G04 #@! TF.GenerationSoftware,KiCad,Pcbnew,6.0.9-8da3e8f707~116~ubuntu20.04.1*
G04 #@! TF.CreationDate,2022-12-16T15:25:19+01:00*
G04 #@! TF.ProjectId,ebaz_adaptor,6562617a-5f61-4646-9170-746f722e6b69,rev?*
G04 #@! TF.SameCoordinates,Original*
G04 #@! TF.FileFunction,Soldermask,Top*
G04 #@! TF.FilePolarity,Negative*
%FSLAX46Y46*%
G04 Gerber Fmt 4.6, Leading zero omitted, Abs format (unit mm)*
G04 Created by KiCad (PCBNEW 6.0.9-8da3e8f707~116~ubuntu20.04.1) date 2022-12-16 15:25:19*
%MOMM*%
%LPD*%
G01*
G04 APERTURE LIST*
G04 Aperture macros list*
%AMRoundRect*
0 Rectangle with rounded corners*
0 $1 Rounding radius*
0 $2 $3 $4 $5 $6 $7 $8 $9 X,Y pos of 4 corners*
0 Add a 4 corners polygon primitive as box body*
4,1,4,$2,$3,$4,$5,$6,$7,$8,$9,$2,$3,0*
0 Add four circle primitives for the rounded corners*
1,1,$1+$1,$2,$3*
1,1,$1+$1,$4,$5*
1,1,$1+$1,$6,$7*
1,1,$1+$1,$8,$9*
0 Add four rect primitives between the rounded corners*
20,1,$1+$1,$2,$3,$4,$5,0*
20,1,$1+$1,$4,$5,$6,$7,0*
20,1,$1+$1,$6,$7,$8,$9,0*
20,1,$1+$1,$8,$9,$2,$3,0*%
G04 Aperture macros list end*
%ADD10RoundRect,0.237500X-0.300000X-0.237500X0.300000X-0.237500X0.300000X0.237500X-0.300000X0.237500X0*%
%ADD11RoundRect,0.237500X-0.237500X0.300000X-0.237500X-0.300000X0.237500X-0.300000X0.237500X0.300000X0*%
%ADD12RoundRect,0.237500X0.237500X-0.287500X0.237500X0.287500X-0.237500X0.287500X-0.237500X-0.287500X0*%
%ADD13R,1.700000X1.700000*%
%ADD14O,1.700000X1.700000*%
%ADD15RoundRect,0.237500X-0.237500X0.250000X-0.237500X-0.250000X0.237500X-0.250000X0.237500X0.250000X0*%
%ADD16R,3.500000X3.500000*%
%ADD17RoundRect,0.750000X0.750000X1.000000X-0.750000X1.000000X-0.750000X-1.000000X0.750000X-1.000000X0*%
%ADD18RoundRect,0.875000X0.875000X0.875000X-0.875000X0.875000X-0.875000X-0.875000X0.875000X-0.875000X0*%
%ADD19R,1.350000X1.350000*%
%ADD20O,1.350000X1.350000*%
%ADD21RoundRect,0.237500X0.300000X0.237500X-0.300000X0.237500X-0.300000X-0.237500X0.300000X-0.237500X0*%
%ADD22C,2.000000*%
%ADD23RoundRect,0.237500X-0.250000X-0.237500X0.250000X-0.237500X0.250000X0.237500X-0.250000X0.237500X0*%
%ADD24RoundRect,0.237500X0.237500X-0.300000X0.237500X0.300000X-0.237500X0.300000X-0.237500X-0.300000X0*%
%ADD25RoundRect,0.237500X-0.237500X0.287500X-0.237500X-0.287500X0.237500X-0.287500X0.237500X0.287500X0*%
%ADD26C,2.500000*%
%ADD27R,1.500000X2.000000*%
%ADD28R,3.800000X2.000000*%
%ADD29RoundRect,0.237500X0.237500X-0.250000X0.237500X0.250000X-0.237500X0.250000X-0.237500X-0.250000X0*%
%ADD30R,1.200000X2.200000*%
%ADD31R,5.800000X6.400000*%
G04 APERTURE END LIST*
D10*
X45720000Y-53340000D03*
X47445000Y-53340000D03*
X45720000Y-60960000D03*
X47445000Y-60960000D03*
D11*
X103968000Y-78130000D03*
X103968000Y-79855000D03*
X95250000Y-96520000D03*
X95250000Y-98245000D03*
D12*
X114890000Y-80806500D03*
X114890000Y-79056500D03*
D10*
X122414000Y-85598000D03*
X124139000Y-85598000D03*
X122414000Y-87884000D03*
X124139000Y-87884000D03*
D13*
X93980000Y-63500000D03*
D14*
X93980000Y-66040000D03*
X91440000Y-63500000D03*
X91440000Y-66040000D03*
X88900000Y-63500000D03*
X88900000Y-66040000D03*
X86360000Y-63500000D03*
X86360000Y-66040000D03*
X83820000Y-63500000D03*
X83820000Y-66040000D03*
X81280000Y-63500000D03*
X81280000Y-66040000D03*
X78740000Y-63500000D03*
X78740000Y-66040000D03*
X76200000Y-63500000D03*
X76200000Y-66040000D03*
X73660000Y-63500000D03*
X73660000Y-66040000D03*
X71120000Y-63500000D03*
X71120000Y-66040000D03*
X68580000Y-63500000D03*
X68580000Y-66040000D03*
X66040000Y-63500000D03*
X66040000Y-66040000D03*
X63500000Y-63500000D03*
X63500000Y-66040000D03*
X60960000Y-63500000D03*
X60960000Y-66040000D03*
X58420000Y-63500000D03*
X58420000Y-66040000D03*
X55880000Y-63500000D03*
X55880000Y-66040000D03*
X53340000Y-63500000D03*
X53340000Y-66040000D03*
X50800000Y-63500000D03*
X50800000Y-66040000D03*
X48260000Y-63500000D03*
X48260000Y-66040000D03*
X45720000Y-63500000D03*
X45720000Y-66040000D03*
D15*
X120523000Y-59677500D03*
X120523000Y-57852500D03*
D16*
X122016000Y-76395500D03*
D17*
X128016000Y-76395500D03*
D18*
X125016000Y-71695500D03*
D19*
X64000000Y-46000000D03*
D20*
X64000000Y-44000000D03*
X62000000Y-46000000D03*
X62000000Y-44000000D03*
X60000000Y-46000000D03*
X60000000Y-44000000D03*
X58000000Y-46000000D03*
X58000000Y-44000000D03*
X56000000Y-46000000D03*
X56000000Y-44000000D03*
X54000000Y-46000000D03*
X54000000Y-44000000D03*
X52000000Y-46000000D03*
X52000000Y-44000000D03*
X50000000Y-46000000D03*
X50000000Y-44000000D03*
X48000000Y-46000000D03*
X48000000Y-44000000D03*
X46000000Y-46000000D03*
X46000000Y-44000000D03*
D10*
X45720000Y-68580000D03*
X47445000Y-68580000D03*
D15*
X114935000Y-59677500D03*
X114935000Y-57852500D03*
D21*
X50800000Y-83820000D03*
X49075000Y-83820000D03*
D22*
X124333000Y-63210000D03*
X130833000Y-63210000D03*
X130833000Y-58710000D03*
X124333000Y-58710000D03*
D13*
X99060000Y-96520000D03*
D14*
X99060000Y-99060000D03*
X101600000Y-96520000D03*
X101600000Y-99060000D03*
X104140000Y-96520000D03*
X104140000Y-99060000D03*
X106680000Y-96520000D03*
X106680000Y-99060000D03*
X109220000Y-96520000D03*
X109220000Y-99060000D03*
X111760000Y-96520000D03*
X111760000Y-99060000D03*
D13*
X83820000Y-71120000D03*
D14*
X83820000Y-73660000D03*
X81280000Y-71120000D03*
X81280000Y-73660000D03*
X78740000Y-71120000D03*
X78740000Y-73660000D03*
X76200000Y-71120000D03*
X76200000Y-73660000D03*
X73660000Y-71120000D03*
X73660000Y-73660000D03*
X71120000Y-71120000D03*
X71120000Y-73660000D03*
X68580000Y-71120000D03*
X68580000Y-73660000D03*
X66040000Y-71120000D03*
X66040000Y-73660000D03*
X63500000Y-71120000D03*
X63500000Y-73660000D03*
X60960000Y-71120000D03*
X60960000Y-73660000D03*
X58420000Y-71120000D03*
X58420000Y-73660000D03*
X55880000Y-71120000D03*
X55880000Y-73660000D03*
X53340000Y-71120000D03*
X53340000Y-73660000D03*
X50800000Y-71120000D03*
X50800000Y-73660000D03*
X48260000Y-71120000D03*
X48260000Y-73660000D03*
X45720000Y-71120000D03*
X45720000Y-73660000D03*
D12*
X114935000Y-62335000D03*
X114935000Y-64085000D03*
D11*
X101682000Y-78130000D03*
X101682000Y-79855000D03*
D23*
X106068500Y-55590000D03*
X104243500Y-55590000D03*
D15*
X114890000Y-74574000D03*
X114890000Y-76399000D03*
D23*
X128570500Y-55590000D03*
X126745500Y-55590000D03*
D13*
X45720000Y-58420000D03*
D14*
X45720000Y-55880000D03*
X48260000Y-58420000D03*
X48260000Y-55880000D03*
X50800000Y-58420000D03*
X50800000Y-55880000D03*
X53340000Y-58420000D03*
X53340000Y-55880000D03*
X55880000Y-58420000D03*
X55880000Y-55880000D03*
X58420000Y-58420000D03*
X58420000Y-55880000D03*
X60960000Y-58420000D03*
X60960000Y-55880000D03*
X63500000Y-58420000D03*
X63500000Y-55880000D03*
X66040000Y-58420000D03*
X66040000Y-55880000D03*
X68580000Y-58420000D03*
X68580000Y-55880000D03*
X71120000Y-58420000D03*
X71120000Y-55880000D03*
X73660000Y-58420000D03*
X73660000Y-55880000D03*
X76200000Y-58420000D03*
X76200000Y-55880000D03*
X78740000Y-58420000D03*
X78740000Y-55880000D03*
X81280000Y-58420000D03*
X81280000Y-55880000D03*
X83820000Y-58420000D03*
X83820000Y-55880000D03*
X86360000Y-58420000D03*
X86360000Y-55880000D03*
X88900000Y-58420000D03*
X88900000Y-55880000D03*
X91440000Y-58420000D03*
X91440000Y-55880000D03*
X93980000Y-58420000D03*
X93980000Y-55880000D03*
D22*
X108406000Y-63210000D03*
X101906000Y-63210000D03*
X108406000Y-58710000D03*
X101906000Y-58710000D03*
D24*
X41910000Y-98245000D03*
X41910000Y-96520000D03*
D13*
X93980000Y-78740000D03*
D14*
X93980000Y-81280000D03*
X91440000Y-78740000D03*
X91440000Y-81280000D03*
X88900000Y-78740000D03*
X88900000Y-81280000D03*
X86360000Y-78740000D03*
X86360000Y-81280000D03*
X83820000Y-78740000D03*
X83820000Y-81280000D03*
X81280000Y-78740000D03*
X81280000Y-81280000D03*
X78740000Y-78740000D03*
X78740000Y-81280000D03*
X76200000Y-78740000D03*
X76200000Y-81280000D03*
X73660000Y-78740000D03*
X73660000Y-81280000D03*
X71120000Y-78740000D03*
X71120000Y-81280000D03*
X68580000Y-78740000D03*
X68580000Y-81280000D03*
X66040000Y-78740000D03*
X66040000Y-81280000D03*
X63500000Y-78740000D03*
X63500000Y-81280000D03*
X60960000Y-78740000D03*
X60960000Y-81280000D03*
X58420000Y-78740000D03*
X58420000Y-81280000D03*
X55880000Y-78740000D03*
X55880000Y-81280000D03*
X53340000Y-78740000D03*
X53340000Y-81280000D03*
D24*
X131812000Y-97409000D03*
X131812000Y-95684000D03*
D13*
X45720000Y-96520000D03*
D14*
X45720000Y-99060000D03*
X48260000Y-96520000D03*
X48260000Y-99060000D03*
X50800000Y-96520000D03*
X50800000Y-99060000D03*
X53340000Y-96520000D03*
X53340000Y-99060000D03*
X55880000Y-96520000D03*
X55880000Y-99060000D03*
X58420000Y-96520000D03*
X58420000Y-99060000D03*
X60960000Y-96520000D03*
X60960000Y-99060000D03*
X63500000Y-96520000D03*
X63500000Y-99060000D03*
X66040000Y-96520000D03*
X66040000Y-99060000D03*
D15*
X117729000Y-59677500D03*
X117729000Y-57852500D03*
D21*
X110208500Y-87019000D03*
X108483500Y-87019000D03*
D13*
X76200000Y-96520000D03*
D14*
X76200000Y-99060000D03*
X78740000Y-96520000D03*
X78740000Y-99060000D03*
X81280000Y-96520000D03*
X81280000Y-99060000D03*
X83820000Y-96520000D03*
X83820000Y-99060000D03*
X86360000Y-96520000D03*
X86360000Y-99060000D03*
X88900000Y-96520000D03*
X88900000Y-99060000D03*
D15*
X112141000Y-59677500D03*
X112141000Y-57852500D03*
D25*
X118858000Y-91059000D03*
X118858000Y-92809000D03*
D24*
X97028000Y-81280000D03*
X97028000Y-79555000D03*
D11*
X72390000Y-96520000D03*
X72390000Y-98245000D03*
D12*
X112141000Y-62335000D03*
X112141000Y-64085000D03*
D24*
X129526000Y-97409000D03*
X129526000Y-95684000D03*
D26*
X131445000Y-105410000D03*
X40640000Y-105410000D03*
X131445000Y-46355000D03*
D12*
X117729000Y-62335000D03*
X117729000Y-64085000D03*
D27*
X127014000Y-91084000D03*
X124714000Y-91084000D03*
D28*
X124714000Y-97384000D03*
D27*
X122414000Y-91084000D03*
D12*
X120523000Y-62335000D03*
X120523000Y-64085000D03*
D19*
X111000000Y-46000000D03*
D20*
X111000000Y-44000000D03*
X109000000Y-46000000D03*
X109000000Y-44000000D03*
X107000000Y-46000000D03*
X107000000Y-44000000D03*
X105000000Y-46000000D03*
X105000000Y-44000000D03*
X103000000Y-46000000D03*
X103000000Y-44000000D03*
X101000000Y-46000000D03*
X101000000Y-44000000D03*
X99000000Y-46000000D03*
X99000000Y-44000000D03*
X97000000Y-46000000D03*
X97000000Y-44000000D03*
X95000000Y-46000000D03*
X95000000Y-44000000D03*
X93000000Y-46000000D03*
X93000000Y-44000000D03*
D19*
X87500000Y-46000000D03*
D20*
X87500000Y-44000000D03*
X85500000Y-46000000D03*
X85500000Y-44000000D03*
X83500000Y-46000000D03*
X83500000Y-44000000D03*
X81500000Y-46000000D03*
X81500000Y-44000000D03*
X79500000Y-46000000D03*
X79500000Y-44000000D03*
X77500000Y-46000000D03*
X77500000Y-44000000D03*
X75500000Y-46000000D03*
X75500000Y-44000000D03*
X73500000Y-46000000D03*
X73500000Y-44000000D03*
X71500000Y-46000000D03*
X71500000Y-44000000D03*
X69500000Y-46000000D03*
X69500000Y-44000000D03*
D24*
X97028000Y-66040000D03*
X97028000Y-64315000D03*
D26*
X40640000Y-46355000D03*
D21*
X110208500Y-84733000D03*
X108483500Y-84733000D03*
D13*
X93980000Y-86360000D03*
D14*
X93980000Y-88900000D03*
X91440000Y-86360000D03*
X91440000Y-88900000D03*
X88900000Y-86360000D03*
X88900000Y-88900000D03*
X86360000Y-86360000D03*
X86360000Y-88900000D03*
X83820000Y-86360000D03*
X83820000Y-88900000D03*
X81280000Y-86360000D03*
X81280000Y-88900000D03*
X78740000Y-86360000D03*
X78740000Y-88900000D03*
X76200000Y-86360000D03*
X76200000Y-88900000D03*
X73660000Y-86360000D03*
X73660000Y-88900000D03*
X71120000Y-86360000D03*
X71120000Y-88900000D03*
X68580000Y-86360000D03*
X68580000Y-88900000D03*
X66040000Y-86360000D03*
X66040000Y-88900000D03*
X63500000Y-86360000D03*
X63500000Y-88900000D03*
X60960000Y-86360000D03*
X60960000Y-88900000D03*
X58420000Y-86360000D03*
X58420000Y-88900000D03*
X55880000Y-86360000D03*
X55880000Y-88900000D03*
X53340000Y-86360000D03*
X53340000Y-88900000D03*
X50800000Y-86360000D03*
X50800000Y-88900000D03*
D29*
X118858000Y-96901000D03*
X118858000Y-95076000D03*
D30*
X106940000Y-81992000D03*
D31*
X109220000Y-75692000D03*
D30*
X111500000Y-81992000D03*
D26*
X71120000Y-105410000D03*
D10*
X45720000Y-76200000D03*
X47445000Y-76200000D03*
M02*
