G04 #@! TF.GenerationSoftware,KiCad,Pcbnew,6.0.9-8da3e8f707~116~ubuntu20.04.1*
G04 #@! TF.CreationDate,2022-12-16T15:25:19+01:00*
G04 #@! TF.ProjectId,ebaz_adaptor,6562617a-5f61-4646-9170-746f722e6b69,rev?*
G04 #@! TF.SameCoordinates,Original*
G04 #@! TF.FileFunction,Legend,Top*
G04 #@! TF.FilePolarity,Positive*
%FSLAX46Y46*%
G04 Gerber Fmt 4.6, Leading zero omitted, Abs format (unit mm)*
G04 Created by KiCad (PCBNEW 6.0.9-8da3e8f707~116~ubuntu20.04.1) date 2022-12-16 15:25:19*
%MOMM*%
%LPD*%
G01*
G04 APERTURE LIST*
G04 Aperture macros list*
%AMRoundRect*
0 Rectangle with rounded corners*
0 $1 Rounding radius*
0 $2 $3 $4 $5 $6 $7 $8 $9 X,Y pos of 4 corners*
0 Add a 4 corners polygon primitive as box body*
4,1,4,$2,$3,$4,$5,$6,$7,$8,$9,$2,$3,0*
0 Add four circle primitives for the rounded corners*
1,1,$1+$1,$2,$3*
1,1,$1+$1,$4,$5*
1,1,$1+$1,$6,$7*
1,1,$1+$1,$8,$9*
0 Add four rect primitives between the rounded corners*
20,1,$1+$1,$2,$3,$4,$5,0*
20,1,$1+$1,$4,$5,$6,$7,0*
20,1,$1+$1,$6,$7,$8,$9,0*
20,1,$1+$1,$8,$9,$2,$3,0*%
G04 Aperture macros list end*
%ADD10C,0.150000*%
%ADD11C,0.125000*%
%ADD12C,0.250000*%
%ADD13C,0.120000*%
%ADD14RoundRect,0.237500X-0.300000X-0.237500X0.300000X-0.237500X0.300000X0.237500X-0.300000X0.237500X0*%
%ADD15RoundRect,0.237500X-0.237500X0.300000X-0.237500X-0.300000X0.237500X-0.300000X0.237500X0.300000X0*%
%ADD16RoundRect,0.237500X0.237500X-0.287500X0.237500X0.287500X-0.237500X0.287500X-0.237500X-0.287500X0*%
%ADD17R,1.700000X1.700000*%
%ADD18O,1.700000X1.700000*%
%ADD19RoundRect,0.237500X-0.237500X0.250000X-0.237500X-0.250000X0.237500X-0.250000X0.237500X0.250000X0*%
%ADD20R,3.500000X3.500000*%
%ADD21RoundRect,0.750000X0.750000X1.000000X-0.750000X1.000000X-0.750000X-1.000000X0.750000X-1.000000X0*%
%ADD22RoundRect,0.875000X0.875000X0.875000X-0.875000X0.875000X-0.875000X-0.875000X0.875000X-0.875000X0*%
%ADD23R,1.350000X1.350000*%
%ADD24O,1.350000X1.350000*%
%ADD25RoundRect,0.237500X0.300000X0.237500X-0.300000X0.237500X-0.300000X-0.237500X0.300000X-0.237500X0*%
%ADD26C,2.000000*%
%ADD27RoundRect,0.237500X-0.250000X-0.237500X0.250000X-0.237500X0.250000X0.237500X-0.250000X0.237500X0*%
%ADD28RoundRect,0.237500X0.237500X-0.300000X0.237500X0.300000X-0.237500X0.300000X-0.237500X-0.300000X0*%
%ADD29RoundRect,0.237500X-0.237500X0.287500X-0.237500X-0.287500X0.237500X-0.287500X0.237500X0.287500X0*%
%ADD30C,2.500000*%
%ADD31R,1.500000X2.000000*%
%ADD32R,3.800000X2.000000*%
%ADD33RoundRect,0.237500X0.237500X-0.250000X0.237500X0.250000X-0.237500X0.250000X-0.237500X-0.250000X0*%
%ADD34R,1.200000X2.200000*%
%ADD35R,5.800000X6.400000*%
G04 APERTURE END LIST*
D10*
X126869142Y-67943000D02*
X127226285Y-67943000D01*
X126797714Y-68157285D02*
X127047714Y-67407285D01*
X127297714Y-68157285D01*
X127512000Y-67478714D02*
X127547714Y-67443000D01*
X127619142Y-67407285D01*
X127797714Y-67407285D01*
X127869142Y-67443000D01*
X127904857Y-67478714D01*
X127940571Y-67550142D01*
X127940571Y-67621571D01*
X127904857Y-67728714D01*
X127476285Y-68157285D01*
X127940571Y-68157285D01*
X128404857Y-67407285D02*
X128476285Y-67407285D01*
X128547714Y-67443000D01*
X128583428Y-67478714D01*
X128619142Y-67550142D01*
X128654857Y-67693000D01*
X128654857Y-67871571D01*
X128619142Y-68014428D01*
X128583428Y-68085857D01*
X128547714Y-68121571D01*
X128476285Y-68157285D01*
X128404857Y-68157285D01*
X128333428Y-68121571D01*
X128297714Y-68085857D01*
X128262000Y-68014428D01*
X128226285Y-67871571D01*
X128226285Y-67693000D01*
X128262000Y-67550142D01*
X128297714Y-67478714D01*
X128333428Y-67443000D01*
X128404857Y-67407285D01*
X119862285Y-67764428D02*
X119969428Y-67800142D01*
X120005142Y-67835857D01*
X120040857Y-67907285D01*
X120040857Y-68014428D01*
X120005142Y-68085857D01*
X119969428Y-68121571D01*
X119898000Y-68157285D01*
X119612285Y-68157285D01*
X119612285Y-67407285D01*
X119862285Y-67407285D01*
X119933714Y-67443000D01*
X119969428Y-67478714D01*
X120005142Y-67550142D01*
X120005142Y-67621571D01*
X119969428Y-67693000D01*
X119933714Y-67728714D01*
X119862285Y-67764428D01*
X119612285Y-67764428D01*
X120755142Y-68157285D02*
X120326571Y-68157285D01*
X120540857Y-68157285D02*
X120540857Y-67407285D01*
X120469428Y-67514428D01*
X120398000Y-67585857D01*
X120326571Y-67621571D01*
X121112285Y-68157285D02*
X121255142Y-68157285D01*
X121326571Y-68121571D01*
X121362285Y-68085857D01*
X121433714Y-67978714D01*
X121469428Y-67835857D01*
X121469428Y-67550142D01*
X121433714Y-67478714D01*
X121398000Y-67443000D01*
X121326571Y-67407285D01*
X121183714Y-67407285D01*
X121112285Y-67443000D01*
X121076571Y-67478714D01*
X121040857Y-67550142D01*
X121040857Y-67728714D01*
X121076571Y-67800142D01*
X121112285Y-67835857D01*
X121183714Y-67871571D01*
X121326571Y-67871571D01*
X121398000Y-67835857D01*
X121433714Y-67800142D01*
X121469428Y-67728714D01*
X117246857Y-68085857D02*
X117211142Y-68121571D01*
X117104000Y-68157285D01*
X117032571Y-68157285D01*
X116925428Y-68121571D01*
X116854000Y-68050142D01*
X116818285Y-67978714D01*
X116782571Y-67835857D01*
X116782571Y-67728714D01*
X116818285Y-67585857D01*
X116854000Y-67514428D01*
X116925428Y-67443000D01*
X117032571Y-67407285D01*
X117104000Y-67407285D01*
X117211142Y-67443000D01*
X117246857Y-67478714D01*
X117532571Y-67478714D02*
X117568285Y-67443000D01*
X117639714Y-67407285D01*
X117818285Y-67407285D01*
X117889714Y-67443000D01*
X117925428Y-67478714D01*
X117961142Y-67550142D01*
X117961142Y-67621571D01*
X117925428Y-67728714D01*
X117496857Y-68157285D01*
X117961142Y-68157285D01*
X118425428Y-67407285D02*
X118496857Y-67407285D01*
X118568285Y-67443000D01*
X118604000Y-67478714D01*
X118639714Y-67550142D01*
X118675428Y-67693000D01*
X118675428Y-67871571D01*
X118639714Y-68014428D01*
X118604000Y-68085857D01*
X118568285Y-68121571D01*
X118496857Y-68157285D01*
X118425428Y-68157285D01*
X118354000Y-68121571D01*
X118318285Y-68085857D01*
X118282571Y-68014428D01*
X118246857Y-67871571D01*
X118246857Y-67693000D01*
X118282571Y-67550142D01*
X118318285Y-67478714D01*
X118354000Y-67443000D01*
X118425428Y-67407285D01*
X114006428Y-68157285D02*
X114006428Y-67407285D01*
X114006428Y-67764428D02*
X114435000Y-67764428D01*
X114435000Y-68157285D02*
X114435000Y-67407285D01*
X115185000Y-68157285D02*
X114756428Y-68157285D01*
X114970714Y-68157285D02*
X114970714Y-67407285D01*
X114899285Y-67514428D01*
X114827857Y-67585857D01*
X114756428Y-67621571D01*
X115435000Y-67407285D02*
X115935000Y-67407285D01*
X115613571Y-68157285D01*
X111230285Y-68157285D02*
X111230285Y-67407285D01*
X111408857Y-67407285D01*
X111516000Y-67443000D01*
X111587428Y-67514428D01*
X111623142Y-67585857D01*
X111658857Y-67728714D01*
X111658857Y-67835857D01*
X111623142Y-67978714D01*
X111587428Y-68050142D01*
X111516000Y-68121571D01*
X111408857Y-68157285D01*
X111230285Y-68157285D01*
X111944571Y-67478714D02*
X111980285Y-67443000D01*
X112051714Y-67407285D01*
X112230285Y-67407285D01*
X112301714Y-67443000D01*
X112337428Y-67478714D01*
X112373142Y-67550142D01*
X112373142Y-67621571D01*
X112337428Y-67728714D01*
X111908857Y-68157285D01*
X112373142Y-68157285D01*
X112837428Y-67407285D02*
X112908857Y-67407285D01*
X112980285Y-67443000D01*
X113016000Y-67478714D01*
X113051714Y-67550142D01*
X113087428Y-67693000D01*
X113087428Y-67871571D01*
X113051714Y-68014428D01*
X113016000Y-68085857D01*
X112980285Y-68121571D01*
X112908857Y-68157285D01*
X112837428Y-68157285D01*
X112766000Y-68121571D01*
X112730285Y-68085857D01*
X112694571Y-68014428D01*
X112658857Y-67871571D01*
X112658857Y-67693000D01*
X112694571Y-67550142D01*
X112730285Y-67478714D01*
X112766000Y-67443000D01*
X112837428Y-67407285D01*
X104227428Y-68157285D02*
X104227428Y-67407285D01*
X104227428Y-67764428D02*
X104656000Y-67764428D01*
X104656000Y-68157285D02*
X104656000Y-67407285D01*
X105406000Y-68157285D02*
X104977428Y-68157285D01*
X105191714Y-68157285D02*
X105191714Y-67407285D01*
X105120285Y-67514428D01*
X105048857Y-67585857D01*
X104977428Y-67621571D01*
X105834571Y-67728714D02*
X105763142Y-67693000D01*
X105727428Y-67657285D01*
X105691714Y-67585857D01*
X105691714Y-67550142D01*
X105727428Y-67478714D01*
X105763142Y-67443000D01*
X105834571Y-67407285D01*
X105977428Y-67407285D01*
X106048857Y-67443000D01*
X106084571Y-67478714D01*
X106120285Y-67550142D01*
X106120285Y-67585857D01*
X106084571Y-67657285D01*
X106048857Y-67693000D01*
X105977428Y-67728714D01*
X105834571Y-67728714D01*
X105763142Y-67764428D01*
X105727428Y-67800142D01*
X105691714Y-67871571D01*
X105691714Y-68014428D01*
X105727428Y-68085857D01*
X105763142Y-68121571D01*
X105834571Y-68157285D01*
X105977428Y-68157285D01*
X106048857Y-68121571D01*
X106084571Y-68085857D01*
X106120285Y-68014428D01*
X106120285Y-67871571D01*
X106084571Y-67800142D01*
X106048857Y-67764428D01*
X105977428Y-67728714D01*
D11*
X111706428Y-94317892D02*
X111742142Y-94232178D01*
X111777857Y-94203607D01*
X111849285Y-94175035D01*
X111956428Y-94175035D01*
X112027857Y-94203607D01*
X112063571Y-94232178D01*
X112099285Y-94289321D01*
X112099285Y-94517892D01*
X111349285Y-94517892D01*
X111349285Y-94317892D01*
X111385000Y-94260750D01*
X111420714Y-94232178D01*
X111492142Y-94203607D01*
X111563571Y-94203607D01*
X111635000Y-94232178D01*
X111670714Y-94260750D01*
X111706428Y-94317892D01*
X111706428Y-94517892D01*
X111420714Y-93946464D02*
X111385000Y-93917892D01*
X111349285Y-93860750D01*
X111349285Y-93717892D01*
X111385000Y-93660750D01*
X111420714Y-93632178D01*
X111492142Y-93603607D01*
X111563571Y-93603607D01*
X111670714Y-93632178D01*
X112099285Y-93975035D01*
X112099285Y-93603607D01*
X111349285Y-93232178D02*
X111349285Y-93175035D01*
X111385000Y-93117892D01*
X111420714Y-93089321D01*
X111492142Y-93060750D01*
X111635000Y-93032178D01*
X111813571Y-93032178D01*
X111956428Y-93060750D01*
X112027857Y-93089321D01*
X112063571Y-93117892D01*
X112099285Y-93175035D01*
X112099285Y-93232178D01*
X112063571Y-93289321D01*
X112027857Y-93317892D01*
X111956428Y-93346464D01*
X111813571Y-93375035D01*
X111635000Y-93375035D01*
X111492142Y-93346464D01*
X111420714Y-93317892D01*
X111385000Y-93289321D01*
X111349285Y-93232178D01*
X111706428Y-92117892D02*
X111706428Y-92317892D01*
X112099285Y-92317892D02*
X111349285Y-92317892D01*
X111349285Y-92032178D01*
X112099285Y-91489321D02*
X112099285Y-91832178D01*
X112099285Y-91660750D02*
X111349285Y-91660750D01*
X111456428Y-91717892D01*
X111527857Y-91775035D01*
X111563571Y-91832178D01*
X112099285Y-91203607D02*
X112099285Y-91089321D01*
X112063571Y-91032178D01*
X112027857Y-91003607D01*
X111920714Y-90946464D01*
X111777857Y-90917892D01*
X111492142Y-90917892D01*
X111420714Y-90946464D01*
X111385000Y-90975035D01*
X111349285Y-91032178D01*
X111349285Y-91146464D01*
X111385000Y-91203607D01*
X111420714Y-91232178D01*
X111492142Y-91260750D01*
X111670714Y-91260750D01*
X111742142Y-91232178D01*
X111777857Y-91203607D01*
X111813571Y-91146464D01*
X111813571Y-91032178D01*
X111777857Y-90975035D01*
X111742142Y-90946464D01*
X111670714Y-90917892D01*
X109559285Y-94517892D02*
X108809285Y-94517892D01*
X108809285Y-94375035D01*
X108845000Y-94289321D01*
X108916428Y-94232178D01*
X108987857Y-94203607D01*
X109130714Y-94175035D01*
X109237857Y-94175035D01*
X109380714Y-94203607D01*
X109452142Y-94232178D01*
X109523571Y-94289321D01*
X109559285Y-94375035D01*
X109559285Y-94517892D01*
X109559285Y-93603607D02*
X109559285Y-93946464D01*
X109559285Y-93775035D02*
X108809285Y-93775035D01*
X108916428Y-93832178D01*
X108987857Y-93889321D01*
X109023571Y-93946464D01*
X109130714Y-93260750D02*
X109095000Y-93317892D01*
X109059285Y-93346464D01*
X108987857Y-93375035D01*
X108952142Y-93375035D01*
X108880714Y-93346464D01*
X108845000Y-93317892D01*
X108809285Y-93260750D01*
X108809285Y-93146464D01*
X108845000Y-93089321D01*
X108880714Y-93060750D01*
X108952142Y-93032178D01*
X108987857Y-93032178D01*
X109059285Y-93060750D01*
X109095000Y-93089321D01*
X109130714Y-93146464D01*
X109130714Y-93260750D01*
X109166428Y-93317892D01*
X109202142Y-93346464D01*
X109273571Y-93375035D01*
X109416428Y-93375035D01*
X109487857Y-93346464D01*
X109523571Y-93317892D01*
X109559285Y-93260750D01*
X109559285Y-93146464D01*
X109523571Y-93089321D01*
X109487857Y-93060750D01*
X109416428Y-93032178D01*
X109273571Y-93032178D01*
X109202142Y-93060750D01*
X109166428Y-93089321D01*
X109130714Y-93146464D01*
X108845000Y-92003607D02*
X108809285Y-92060750D01*
X108809285Y-92146464D01*
X108845000Y-92232178D01*
X108916428Y-92289321D01*
X108987857Y-92317892D01*
X109130714Y-92346464D01*
X109237857Y-92346464D01*
X109380714Y-92317892D01*
X109452142Y-92289321D01*
X109523571Y-92232178D01*
X109559285Y-92146464D01*
X109559285Y-92089321D01*
X109523571Y-92003607D01*
X109487857Y-91975035D01*
X109237857Y-91975035D01*
X109237857Y-92089321D01*
X108880714Y-91746464D02*
X108845000Y-91717892D01*
X108809285Y-91660750D01*
X108809285Y-91517892D01*
X108845000Y-91460750D01*
X108880714Y-91432178D01*
X108952142Y-91403607D01*
X109023571Y-91403607D01*
X109130714Y-91432178D01*
X109559285Y-91775035D01*
X109559285Y-91403607D01*
X108809285Y-91032178D02*
X108809285Y-90975035D01*
X108845000Y-90917892D01*
X108880714Y-90889321D01*
X108952142Y-90860750D01*
X109095000Y-90832178D01*
X109273571Y-90832178D01*
X109416428Y-90860750D01*
X109487857Y-90889321D01*
X109523571Y-90917892D01*
X109559285Y-90975035D01*
X109559285Y-91032178D01*
X109523571Y-91089321D01*
X109487857Y-91117892D01*
X109416428Y-91146464D01*
X109273571Y-91175035D01*
X109095000Y-91175035D01*
X108952142Y-91146464D01*
X108880714Y-91117892D01*
X108845000Y-91089321D01*
X108809285Y-91032178D01*
X107019285Y-94517892D02*
X106269285Y-94517892D01*
X106269285Y-94375035D01*
X106305000Y-94289321D01*
X106376428Y-94232178D01*
X106447857Y-94203607D01*
X106590714Y-94175035D01*
X106697857Y-94175035D01*
X106840714Y-94203607D01*
X106912142Y-94232178D01*
X106983571Y-94289321D01*
X107019285Y-94375035D01*
X107019285Y-94517892D01*
X107019285Y-93603607D02*
X107019285Y-93946464D01*
X107019285Y-93775035D02*
X106269285Y-93775035D01*
X106376428Y-93832178D01*
X106447857Y-93889321D01*
X106483571Y-93946464D01*
X107019285Y-93317892D02*
X107019285Y-93203607D01*
X106983571Y-93146464D01*
X106947857Y-93117892D01*
X106840714Y-93060750D01*
X106697857Y-93032178D01*
X106412142Y-93032178D01*
X106340714Y-93060750D01*
X106305000Y-93089321D01*
X106269285Y-93146464D01*
X106269285Y-93260750D01*
X106305000Y-93317892D01*
X106340714Y-93346464D01*
X106412142Y-93375035D01*
X106590714Y-93375035D01*
X106662142Y-93346464D01*
X106697857Y-93317892D01*
X106733571Y-93260750D01*
X106733571Y-93146464D01*
X106697857Y-93089321D01*
X106662142Y-93060750D01*
X106590714Y-93032178D01*
X106305000Y-92003607D02*
X106269285Y-92060750D01*
X106269285Y-92146464D01*
X106305000Y-92232178D01*
X106376428Y-92289321D01*
X106447857Y-92317892D01*
X106590714Y-92346464D01*
X106697857Y-92346464D01*
X106840714Y-92317892D01*
X106912142Y-92289321D01*
X106983571Y-92232178D01*
X107019285Y-92146464D01*
X107019285Y-92089321D01*
X106983571Y-92003607D01*
X106947857Y-91975035D01*
X106697857Y-91975035D01*
X106697857Y-92089321D01*
X107019285Y-91403607D02*
X107019285Y-91746464D01*
X107019285Y-91575035D02*
X106269285Y-91575035D01*
X106376428Y-91632178D01*
X106447857Y-91689321D01*
X106483571Y-91746464D01*
X107019285Y-91117892D02*
X107019285Y-91003607D01*
X106983571Y-90946464D01*
X106947857Y-90917892D01*
X106840714Y-90860750D01*
X106697857Y-90832178D01*
X106412142Y-90832178D01*
X106340714Y-90860750D01*
X106305000Y-90889321D01*
X106269285Y-90946464D01*
X106269285Y-91060750D01*
X106305000Y-91117892D01*
X106340714Y-91146464D01*
X106412142Y-91175035D01*
X106590714Y-91175035D01*
X106662142Y-91146464D01*
X106697857Y-91117892D01*
X106733571Y-91060750D01*
X106733571Y-90946464D01*
X106697857Y-90889321D01*
X106662142Y-90860750D01*
X106590714Y-90832178D01*
X104086428Y-94517892D02*
X104086428Y-94317892D01*
X104479285Y-94232178D02*
X104479285Y-94517892D01*
X103729285Y-94517892D01*
X103729285Y-94232178D01*
X104479285Y-93660750D02*
X104479285Y-94003607D01*
X104479285Y-93832178D02*
X103729285Y-93832178D01*
X103836428Y-93889321D01*
X103907857Y-93946464D01*
X103943571Y-94003607D01*
X104479285Y-93375035D02*
X104479285Y-93260750D01*
X104443571Y-93203607D01*
X104407857Y-93175035D01*
X104300714Y-93117892D01*
X104157857Y-93089321D01*
X103872142Y-93089321D01*
X103800714Y-93117892D01*
X103765000Y-93146464D01*
X103729285Y-93203607D01*
X103729285Y-93317892D01*
X103765000Y-93375035D01*
X103800714Y-93403607D01*
X103872142Y-93432178D01*
X104050714Y-93432178D01*
X104122142Y-93403607D01*
X104157857Y-93375035D01*
X104193571Y-93317892D01*
X104193571Y-93203607D01*
X104157857Y-93146464D01*
X104122142Y-93117892D01*
X104050714Y-93089321D01*
X103729285Y-92203607D02*
X104265000Y-92203607D01*
X104372142Y-92232178D01*
X104443571Y-92289321D01*
X104479285Y-92375035D01*
X104479285Y-92432178D01*
X104479285Y-91603607D02*
X104479285Y-91946464D01*
X104479285Y-91775035D02*
X103729285Y-91775035D01*
X103836428Y-91832178D01*
X103907857Y-91889321D01*
X103943571Y-91946464D01*
X104479285Y-91317892D02*
X104479285Y-91203607D01*
X104443571Y-91146464D01*
X104407857Y-91117892D01*
X104300714Y-91060750D01*
X104157857Y-91032178D01*
X103872142Y-91032178D01*
X103800714Y-91060750D01*
X103765000Y-91089321D01*
X103729285Y-91146464D01*
X103729285Y-91260750D01*
X103765000Y-91317892D01*
X103800714Y-91346464D01*
X103872142Y-91375035D01*
X104050714Y-91375035D01*
X104122142Y-91346464D01*
X104157857Y-91317892D01*
X104193571Y-91260750D01*
X104193571Y-91146464D01*
X104157857Y-91089321D01*
X104122142Y-91060750D01*
X104050714Y-91032178D01*
X81365285Y-93247892D02*
X80615285Y-93247892D01*
X81151000Y-93047892D01*
X80615285Y-92847892D01*
X81365285Y-92847892D01*
X81365285Y-92247892D02*
X81365285Y-92590750D01*
X81365285Y-92419321D02*
X80615285Y-92419321D01*
X80722428Y-92476464D01*
X80793857Y-92533607D01*
X80829571Y-92590750D01*
X80936714Y-91905035D02*
X80901000Y-91962178D01*
X80865285Y-91990750D01*
X80793857Y-92019321D01*
X80758142Y-92019321D01*
X80686714Y-91990750D01*
X80651000Y-91962178D01*
X80615285Y-91905035D01*
X80615285Y-91790750D01*
X80651000Y-91733607D01*
X80686714Y-91705035D01*
X80758142Y-91676464D01*
X80793857Y-91676464D01*
X80865285Y-91705035D01*
X80901000Y-91733607D01*
X80936714Y-91790750D01*
X80936714Y-91905035D01*
X80972428Y-91962178D01*
X81008142Y-91990750D01*
X81079571Y-92019321D01*
X81222428Y-92019321D01*
X81293857Y-91990750D01*
X81329571Y-91962178D01*
X81365285Y-91905035D01*
X81365285Y-91790750D01*
X81329571Y-91733607D01*
X81293857Y-91705035D01*
X81222428Y-91676464D01*
X81079571Y-91676464D01*
X81008142Y-91705035D01*
X80972428Y-91733607D01*
X80936714Y-91790750D01*
X89239285Y-94517892D02*
X88489285Y-94517892D01*
X89239285Y-94175035D02*
X88810714Y-94432178D01*
X88489285Y-94175035D02*
X88917857Y-94517892D01*
X89239285Y-93603607D02*
X89239285Y-93946464D01*
X89239285Y-93775035D02*
X88489285Y-93775035D01*
X88596428Y-93832178D01*
X88667857Y-93889321D01*
X88703571Y-93946464D01*
X88489285Y-93403607D02*
X88489285Y-93003607D01*
X89239285Y-93260750D01*
X89239285Y-92317892D02*
X88489285Y-92317892D01*
X89239285Y-91975035D02*
X88810714Y-92232178D01*
X88489285Y-91975035D02*
X88917857Y-92317892D01*
X89239285Y-91403607D02*
X89239285Y-91746464D01*
X89239285Y-91575035D02*
X88489285Y-91575035D01*
X88596428Y-91632178D01*
X88667857Y-91689321D01*
X88703571Y-91746464D01*
X88810714Y-91060750D02*
X88775000Y-91117892D01*
X88739285Y-91146464D01*
X88667857Y-91175035D01*
X88632142Y-91175035D01*
X88560714Y-91146464D01*
X88525000Y-91117892D01*
X88489285Y-91060750D01*
X88489285Y-90946464D01*
X88525000Y-90889321D01*
X88560714Y-90860750D01*
X88632142Y-90832178D01*
X88667857Y-90832178D01*
X88739285Y-90860750D01*
X88775000Y-90889321D01*
X88810714Y-90946464D01*
X88810714Y-91060750D01*
X88846428Y-91117892D01*
X88882142Y-91146464D01*
X88953571Y-91175035D01*
X89096428Y-91175035D01*
X89167857Y-91146464D01*
X89203571Y-91117892D01*
X89239285Y-91060750D01*
X89239285Y-90946464D01*
X89203571Y-90889321D01*
X89167857Y-90860750D01*
X89096428Y-90832178D01*
X88953571Y-90832178D01*
X88882142Y-90860750D01*
X88846428Y-90889321D01*
X88810714Y-90946464D01*
X85949285Y-94346464D02*
X86485000Y-94346464D01*
X86592142Y-94375035D01*
X86663571Y-94432178D01*
X86699285Y-94517892D01*
X86699285Y-94575035D01*
X86699285Y-93746464D02*
X86699285Y-94089321D01*
X86699285Y-93917892D02*
X85949285Y-93917892D01*
X86056428Y-93975035D01*
X86127857Y-94032178D01*
X86163571Y-94089321D01*
X86270714Y-93403607D02*
X86235000Y-93460750D01*
X86199285Y-93489321D01*
X86127857Y-93517892D01*
X86092142Y-93517892D01*
X86020714Y-93489321D01*
X85985000Y-93460750D01*
X85949285Y-93403607D01*
X85949285Y-93289321D01*
X85985000Y-93232178D01*
X86020714Y-93203607D01*
X86092142Y-93175035D01*
X86127857Y-93175035D01*
X86199285Y-93203607D01*
X86235000Y-93232178D01*
X86270714Y-93289321D01*
X86270714Y-93403607D01*
X86306428Y-93460750D01*
X86342142Y-93489321D01*
X86413571Y-93517892D01*
X86556428Y-93517892D01*
X86627857Y-93489321D01*
X86663571Y-93460750D01*
X86699285Y-93403607D01*
X86699285Y-93289321D01*
X86663571Y-93232178D01*
X86627857Y-93203607D01*
X86556428Y-93175035D01*
X86413571Y-93175035D01*
X86342142Y-93203607D01*
X86306428Y-93232178D01*
X86270714Y-93289321D01*
X86699285Y-92460750D02*
X85949285Y-92460750D01*
X86699285Y-92117892D02*
X86270714Y-92375035D01*
X85949285Y-92117892D02*
X86377857Y-92460750D01*
X86699285Y-91546464D02*
X86699285Y-91889321D01*
X86699285Y-91717892D02*
X85949285Y-91717892D01*
X86056428Y-91775035D01*
X86127857Y-91832178D01*
X86163571Y-91889321D01*
X86699285Y-91260750D02*
X86699285Y-91146464D01*
X86663571Y-91089321D01*
X86627857Y-91060750D01*
X86520714Y-91003607D01*
X86377857Y-90975035D01*
X86092142Y-90975035D01*
X86020714Y-91003607D01*
X85985000Y-91032178D01*
X85949285Y-91089321D01*
X85949285Y-91203607D01*
X85985000Y-91260750D01*
X86020714Y-91289321D01*
X86092142Y-91317892D01*
X86270714Y-91317892D01*
X86342142Y-91289321D01*
X86377857Y-91260750D01*
X86413571Y-91203607D01*
X86413571Y-91089321D01*
X86377857Y-91032178D01*
X86342142Y-91003607D01*
X86270714Y-90975035D01*
X84159285Y-94517892D02*
X83409285Y-94517892D01*
X83766428Y-94517892D02*
X83766428Y-94175035D01*
X84159285Y-94175035D02*
X83409285Y-94175035D01*
X83480714Y-93917892D02*
X83445000Y-93889321D01*
X83409285Y-93832178D01*
X83409285Y-93689321D01*
X83445000Y-93632178D01*
X83480714Y-93603607D01*
X83552142Y-93575035D01*
X83623571Y-93575035D01*
X83730714Y-93603607D01*
X84159285Y-93946464D01*
X84159285Y-93575035D01*
X83409285Y-93203607D02*
X83409285Y-93146464D01*
X83445000Y-93089321D01*
X83480714Y-93060750D01*
X83552142Y-93032178D01*
X83695000Y-93003607D01*
X83873571Y-93003607D01*
X84016428Y-93032178D01*
X84087857Y-93060750D01*
X84123571Y-93089321D01*
X84159285Y-93146464D01*
X84159285Y-93203607D01*
X84123571Y-93260750D01*
X84087857Y-93289321D01*
X84016428Y-93317892D01*
X83873571Y-93346464D01*
X83695000Y-93346464D01*
X83552142Y-93317892D01*
X83480714Y-93289321D01*
X83445000Y-93260750D01*
X83409285Y-93203607D01*
X84159285Y-92003607D02*
X84159285Y-92289321D01*
X83409285Y-92289321D01*
X84159285Y-91489321D02*
X84159285Y-91832178D01*
X84159285Y-91660750D02*
X83409285Y-91660750D01*
X83516428Y-91717892D01*
X83587857Y-91775035D01*
X83623571Y-91832178D01*
X83409285Y-90975035D02*
X83409285Y-91089321D01*
X83445000Y-91146464D01*
X83480714Y-91175035D01*
X83587857Y-91232178D01*
X83730714Y-91260750D01*
X84016428Y-91260750D01*
X84087857Y-91232178D01*
X84123571Y-91203607D01*
X84159285Y-91146464D01*
X84159285Y-91032178D01*
X84123571Y-90975035D01*
X84087857Y-90946464D01*
X84016428Y-90917892D01*
X83837857Y-90917892D01*
X83766428Y-90946464D01*
X83730714Y-90975035D01*
X83695000Y-91032178D01*
X83695000Y-91146464D01*
X83730714Y-91203607D01*
X83766428Y-91232178D01*
X83837857Y-91260750D01*
X81631285Y-94346464D02*
X82167000Y-94346464D01*
X82274142Y-94375035D01*
X82345571Y-94432178D01*
X82381285Y-94517892D01*
X82381285Y-94575035D01*
X81702714Y-94089321D02*
X81667000Y-94060750D01*
X81631285Y-94003607D01*
X81631285Y-93860750D01*
X81667000Y-93803607D01*
X81702714Y-93775035D01*
X81774142Y-93746464D01*
X81845571Y-93746464D01*
X81952714Y-93775035D01*
X82381285Y-94117892D01*
X82381285Y-93746464D01*
X81631285Y-93375035D02*
X81631285Y-93317892D01*
X81667000Y-93260750D01*
X81702714Y-93232178D01*
X81774142Y-93203607D01*
X81917000Y-93175035D01*
X82095571Y-93175035D01*
X82238428Y-93203607D01*
X82309857Y-93232178D01*
X82345571Y-93260750D01*
X82381285Y-93317892D01*
X82381285Y-93375035D01*
X82345571Y-93432178D01*
X82309857Y-93460750D01*
X82238428Y-93489321D01*
X82095571Y-93517892D01*
X81917000Y-93517892D01*
X81774142Y-93489321D01*
X81702714Y-93460750D01*
X81667000Y-93432178D01*
X81631285Y-93375035D01*
X63331285Y-93247892D02*
X62581285Y-93247892D01*
X63117000Y-93047892D01*
X62581285Y-92847892D01*
X63331285Y-92847892D01*
X63331285Y-92247892D02*
X63331285Y-92590750D01*
X63331285Y-92419321D02*
X62581285Y-92419321D01*
X62688428Y-92476464D01*
X62759857Y-92533607D01*
X62795571Y-92590750D01*
X63331285Y-91962178D02*
X63331285Y-91847892D01*
X63295571Y-91790750D01*
X63259857Y-91762178D01*
X63152714Y-91705035D01*
X63009857Y-91676464D01*
X62724142Y-91676464D01*
X62652714Y-91705035D01*
X62617000Y-91733607D01*
X62581285Y-91790750D01*
X62581285Y-91905035D01*
X62617000Y-91962178D01*
X62652714Y-91990750D01*
X62724142Y-92019321D01*
X62902714Y-92019321D01*
X62974142Y-91990750D01*
X63009857Y-91962178D01*
X63045571Y-91905035D01*
X63045571Y-91790750D01*
X63009857Y-91733607D01*
X62974142Y-91705035D01*
X62902714Y-91676464D01*
X66379285Y-94232178D02*
X66379285Y-94517892D01*
X65629285Y-94517892D01*
X66379285Y-93717892D02*
X66379285Y-94060750D01*
X66379285Y-93889321D02*
X65629285Y-93889321D01*
X65736428Y-93946464D01*
X65807857Y-94003607D01*
X65843571Y-94060750D01*
X66379285Y-93432178D02*
X66379285Y-93317892D01*
X66343571Y-93260750D01*
X66307857Y-93232178D01*
X66200714Y-93175035D01*
X66057857Y-93146464D01*
X65772142Y-93146464D01*
X65700714Y-93175035D01*
X65665000Y-93203607D01*
X65629285Y-93260750D01*
X65629285Y-93375035D01*
X65665000Y-93432178D01*
X65700714Y-93460750D01*
X65772142Y-93489321D01*
X65950714Y-93489321D01*
X66022142Y-93460750D01*
X66057857Y-93432178D01*
X66093571Y-93375035D01*
X66093571Y-93260750D01*
X66057857Y-93203607D01*
X66022142Y-93175035D01*
X65950714Y-93146464D01*
X66379285Y-92432178D02*
X65629285Y-92432178D01*
X66165000Y-92232178D01*
X65629285Y-92032178D01*
X66379285Y-92032178D01*
X65700714Y-91775035D02*
X65665000Y-91746464D01*
X65629285Y-91689321D01*
X65629285Y-91546464D01*
X65665000Y-91489321D01*
X65700714Y-91460750D01*
X65772142Y-91432178D01*
X65843571Y-91432178D01*
X65950714Y-91460750D01*
X66379285Y-91803607D01*
X66379285Y-91432178D01*
X65629285Y-91060750D02*
X65629285Y-91003607D01*
X65665000Y-90946464D01*
X65700714Y-90917892D01*
X65772142Y-90889321D01*
X65915000Y-90860750D01*
X66093571Y-90860750D01*
X66236428Y-90889321D01*
X66307857Y-90917892D01*
X66343571Y-90946464D01*
X66379285Y-91003607D01*
X66379285Y-91060750D01*
X66343571Y-91117892D01*
X66307857Y-91146464D01*
X66236428Y-91175035D01*
X66093571Y-91203607D01*
X65915000Y-91203607D01*
X65772142Y-91175035D01*
X65700714Y-91146464D01*
X65665000Y-91117892D01*
X65629285Y-91060750D01*
X64347285Y-94232178D02*
X64347285Y-94517892D01*
X63597285Y-94517892D01*
X63668714Y-94060750D02*
X63633000Y-94032178D01*
X63597285Y-93975035D01*
X63597285Y-93832178D01*
X63633000Y-93775035D01*
X63668714Y-93746464D01*
X63740142Y-93717892D01*
X63811571Y-93717892D01*
X63918714Y-93746464D01*
X64347285Y-94089321D01*
X64347285Y-93717892D01*
X63597285Y-93346464D02*
X63597285Y-93289321D01*
X63633000Y-93232178D01*
X63668714Y-93203607D01*
X63740142Y-93175035D01*
X63883000Y-93146464D01*
X64061571Y-93146464D01*
X64204428Y-93175035D01*
X64275857Y-93203607D01*
X64311571Y-93232178D01*
X64347285Y-93289321D01*
X64347285Y-93346464D01*
X64311571Y-93403607D01*
X64275857Y-93432178D01*
X64204428Y-93460750D01*
X64061571Y-93489321D01*
X63883000Y-93489321D01*
X63740142Y-93460750D01*
X63668714Y-93432178D01*
X63633000Y-93403607D01*
X63597285Y-93346464D01*
X61299285Y-94232178D02*
X61299285Y-94517892D01*
X60549285Y-94517892D01*
X61299285Y-93717892D02*
X61299285Y-94060750D01*
X61299285Y-93889321D02*
X60549285Y-93889321D01*
X60656428Y-93946464D01*
X60727857Y-94003607D01*
X60763571Y-94060750D01*
X60549285Y-93517892D02*
X60549285Y-93117892D01*
X61299285Y-93375035D01*
X61299285Y-92432178D02*
X60549285Y-92432178D01*
X60549285Y-92203607D01*
X60585000Y-92146464D01*
X60620714Y-92117892D01*
X60692142Y-92089321D01*
X60799285Y-92089321D01*
X60870714Y-92117892D01*
X60906428Y-92146464D01*
X60942142Y-92203607D01*
X60942142Y-92432178D01*
X61299285Y-91517892D02*
X61299285Y-91860750D01*
X61299285Y-91689321D02*
X60549285Y-91689321D01*
X60656428Y-91746464D01*
X60727857Y-91803607D01*
X60763571Y-91860750D01*
X60870714Y-91175035D02*
X60835000Y-91232178D01*
X60799285Y-91260750D01*
X60727857Y-91289321D01*
X60692142Y-91289321D01*
X60620714Y-91260750D01*
X60585000Y-91232178D01*
X60549285Y-91175035D01*
X60549285Y-91060750D01*
X60585000Y-91003607D01*
X60620714Y-90975035D01*
X60692142Y-90946464D01*
X60727857Y-90946464D01*
X60799285Y-90975035D01*
X60835000Y-91003607D01*
X60870714Y-91060750D01*
X60870714Y-91175035D01*
X60906428Y-91232178D01*
X60942142Y-91260750D01*
X61013571Y-91289321D01*
X61156428Y-91289321D01*
X61227857Y-91260750D01*
X61263571Y-91232178D01*
X61299285Y-91175035D01*
X61299285Y-91060750D01*
X61263571Y-91003607D01*
X61227857Y-90975035D01*
X61156428Y-90946464D01*
X61013571Y-90946464D01*
X60942142Y-90975035D01*
X60906428Y-91003607D01*
X60870714Y-91060750D01*
X58759285Y-94517892D02*
X58009285Y-94517892D01*
X58759285Y-94175035D01*
X58009285Y-94175035D01*
X58080714Y-93917892D02*
X58045000Y-93889321D01*
X58009285Y-93832178D01*
X58009285Y-93689321D01*
X58045000Y-93632178D01*
X58080714Y-93603607D01*
X58152142Y-93575035D01*
X58223571Y-93575035D01*
X58330714Y-93603607D01*
X58759285Y-93946464D01*
X58759285Y-93575035D01*
X58009285Y-93203607D02*
X58009285Y-93146464D01*
X58045000Y-93089321D01*
X58080714Y-93060750D01*
X58152142Y-93032178D01*
X58295000Y-93003607D01*
X58473571Y-93003607D01*
X58616428Y-93032178D01*
X58687857Y-93060750D01*
X58723571Y-93089321D01*
X58759285Y-93146464D01*
X58759285Y-93203607D01*
X58723571Y-93260750D01*
X58687857Y-93289321D01*
X58616428Y-93317892D01*
X58473571Y-93346464D01*
X58295000Y-93346464D01*
X58152142Y-93317892D01*
X58080714Y-93289321D01*
X58045000Y-93260750D01*
X58009285Y-93203607D01*
X58759285Y-92289321D02*
X58009285Y-92289321D01*
X58759285Y-91946464D01*
X58009285Y-91946464D01*
X58759285Y-91346464D02*
X58759285Y-91689321D01*
X58759285Y-91517892D02*
X58009285Y-91517892D01*
X58116428Y-91575035D01*
X58187857Y-91632178D01*
X58223571Y-91689321D01*
X58009285Y-91146464D02*
X58009285Y-90746464D01*
X58759285Y-91003607D01*
X56219285Y-94517892D02*
X55469285Y-94517892D01*
X56005000Y-94317892D01*
X55469285Y-94117892D01*
X56219285Y-94117892D01*
X56219285Y-93517892D02*
X56219285Y-93860750D01*
X56219285Y-93689321D02*
X55469285Y-93689321D01*
X55576428Y-93746464D01*
X55647857Y-93803607D01*
X55683571Y-93860750D01*
X55469285Y-93317892D02*
X55469285Y-92917892D01*
X56219285Y-93175035D01*
X56219285Y-92232178D02*
X55469285Y-92232178D01*
X55469285Y-92003607D01*
X55505000Y-91946464D01*
X55540714Y-91917892D01*
X55612142Y-91889321D01*
X55719285Y-91889321D01*
X55790714Y-91917892D01*
X55826428Y-91946464D01*
X55862142Y-92003607D01*
X55862142Y-92232178D01*
X55540714Y-91660750D02*
X55505000Y-91632178D01*
X55469285Y-91575035D01*
X55469285Y-91432178D01*
X55505000Y-91375035D01*
X55540714Y-91346464D01*
X55612142Y-91317892D01*
X55683571Y-91317892D01*
X55790714Y-91346464D01*
X56219285Y-91689321D01*
X56219285Y-91317892D01*
X55469285Y-90946464D02*
X55469285Y-90889321D01*
X55505000Y-90832178D01*
X55540714Y-90803607D01*
X55612142Y-90775035D01*
X55755000Y-90746464D01*
X55933571Y-90746464D01*
X56076428Y-90775035D01*
X56147857Y-90803607D01*
X56183571Y-90832178D01*
X56219285Y-90889321D01*
X56219285Y-90946464D01*
X56183571Y-91003607D01*
X56147857Y-91032178D01*
X56076428Y-91060750D01*
X55933571Y-91089321D01*
X55755000Y-91089321D01*
X55612142Y-91060750D01*
X55540714Y-91032178D01*
X55505000Y-91003607D01*
X55469285Y-90946464D01*
X52929285Y-94603607D02*
X52929285Y-94260750D01*
X53679285Y-94432178D02*
X52929285Y-94432178D01*
X53000714Y-94089321D02*
X52965000Y-94060750D01*
X52929285Y-94003607D01*
X52929285Y-93860750D01*
X52965000Y-93803607D01*
X53000714Y-93775035D01*
X53072142Y-93746464D01*
X53143571Y-93746464D01*
X53250714Y-93775035D01*
X53679285Y-94117892D01*
X53679285Y-93746464D01*
X52929285Y-93375035D02*
X52929285Y-93317892D01*
X52965000Y-93260750D01*
X53000714Y-93232178D01*
X53072142Y-93203607D01*
X53215000Y-93175035D01*
X53393571Y-93175035D01*
X53536428Y-93203607D01*
X53607857Y-93232178D01*
X53643571Y-93260750D01*
X53679285Y-93317892D01*
X53679285Y-93375035D01*
X53643571Y-93432178D01*
X53607857Y-93460750D01*
X53536428Y-93489321D01*
X53393571Y-93517892D01*
X53215000Y-93517892D01*
X53072142Y-93489321D01*
X53000714Y-93460750D01*
X52965000Y-93432178D01*
X52929285Y-93375035D01*
X53679285Y-92460750D02*
X52929285Y-92460750D01*
X52929285Y-92232178D01*
X52965000Y-92175035D01*
X53000714Y-92146464D01*
X53072142Y-92117892D01*
X53179285Y-92117892D01*
X53250714Y-92146464D01*
X53286428Y-92175035D01*
X53322142Y-92232178D01*
X53322142Y-92460750D01*
X53679285Y-91546464D02*
X53679285Y-91889321D01*
X53679285Y-91717892D02*
X52929285Y-91717892D01*
X53036428Y-91775035D01*
X53107857Y-91832178D01*
X53143571Y-91889321D01*
X53679285Y-91260750D02*
X53679285Y-91146464D01*
X53643571Y-91089321D01*
X53607857Y-91060750D01*
X53500714Y-91003607D01*
X53357857Y-90975035D01*
X53072142Y-90975035D01*
X53000714Y-91003607D01*
X52965000Y-91032178D01*
X52929285Y-91089321D01*
X52929285Y-91203607D01*
X52965000Y-91260750D01*
X53000714Y-91289321D01*
X53072142Y-91317892D01*
X53250714Y-91317892D01*
X53322142Y-91289321D01*
X53357857Y-91260750D01*
X53393571Y-91203607D01*
X53393571Y-91089321D01*
X53357857Y-91032178D01*
X53322142Y-91003607D01*
X53250714Y-90975035D01*
X50389285Y-94603607D02*
X50389285Y-94260750D01*
X51139285Y-94432178D02*
X50389285Y-94432178D01*
X51139285Y-93746464D02*
X51139285Y-94089321D01*
X51139285Y-93917892D02*
X50389285Y-93917892D01*
X50496428Y-93975035D01*
X50567857Y-94032178D01*
X50603571Y-94089321D01*
X51139285Y-93460750D02*
X51139285Y-93346464D01*
X51103571Y-93289321D01*
X51067857Y-93260750D01*
X50960714Y-93203607D01*
X50817857Y-93175035D01*
X50532142Y-93175035D01*
X50460714Y-93203607D01*
X50425000Y-93232178D01*
X50389285Y-93289321D01*
X50389285Y-93403607D01*
X50425000Y-93460750D01*
X50460714Y-93489321D01*
X50532142Y-93517892D01*
X50710714Y-93517892D01*
X50782142Y-93489321D01*
X50817857Y-93460750D01*
X50853571Y-93403607D01*
X50853571Y-93289321D01*
X50817857Y-93232178D01*
X50782142Y-93203607D01*
X50710714Y-93175035D01*
X50389285Y-92460750D02*
X50996428Y-92460750D01*
X51067857Y-92432178D01*
X51103571Y-92403607D01*
X51139285Y-92346464D01*
X51139285Y-92232178D01*
X51103571Y-92175035D01*
X51067857Y-92146464D01*
X50996428Y-92117892D01*
X50389285Y-92117892D01*
X50460714Y-91860750D02*
X50425000Y-91832178D01*
X50389285Y-91775035D01*
X50389285Y-91632178D01*
X50425000Y-91575035D01*
X50460714Y-91546464D01*
X50532142Y-91517892D01*
X50603571Y-91517892D01*
X50710714Y-91546464D01*
X51139285Y-91889321D01*
X51139285Y-91517892D01*
X50389285Y-91146464D02*
X50389285Y-91089321D01*
X50425000Y-91032178D01*
X50460714Y-91003607D01*
X50532142Y-90975035D01*
X50675000Y-90946464D01*
X50853571Y-90946464D01*
X50996428Y-90975035D01*
X51067857Y-91003607D01*
X51103571Y-91032178D01*
X51139285Y-91089321D01*
X51139285Y-91146464D01*
X51103571Y-91203607D01*
X51067857Y-91232178D01*
X50996428Y-91260750D01*
X50853571Y-91289321D01*
X50675000Y-91289321D01*
X50532142Y-91260750D01*
X50460714Y-91232178D01*
X50425000Y-91203607D01*
X50389285Y-91146464D01*
X47849285Y-94517892D02*
X48456428Y-94517892D01*
X48527857Y-94489321D01*
X48563571Y-94460750D01*
X48599285Y-94403607D01*
X48599285Y-94289321D01*
X48563571Y-94232178D01*
X48527857Y-94203607D01*
X48456428Y-94175035D01*
X47849285Y-94175035D01*
X48599285Y-93575035D02*
X48599285Y-93917892D01*
X48599285Y-93746464D02*
X47849285Y-93746464D01*
X47956428Y-93803607D01*
X48027857Y-93860750D01*
X48063571Y-93917892D01*
X48599285Y-93289321D02*
X48599285Y-93175035D01*
X48563571Y-93117892D01*
X48527857Y-93089321D01*
X48420714Y-93032178D01*
X48277857Y-93003607D01*
X47992142Y-93003607D01*
X47920714Y-93032178D01*
X47885000Y-93060750D01*
X47849285Y-93117892D01*
X47849285Y-93232178D01*
X47885000Y-93289321D01*
X47920714Y-93317892D01*
X47992142Y-93346464D01*
X48170714Y-93346464D01*
X48242142Y-93317892D01*
X48277857Y-93289321D01*
X48313571Y-93232178D01*
X48313571Y-93117892D01*
X48277857Y-93060750D01*
X48242142Y-93032178D01*
X48170714Y-93003607D01*
X47849285Y-92375035D02*
X48599285Y-92175035D01*
X47849285Y-91975035D01*
X47920714Y-91803607D02*
X47885000Y-91775035D01*
X47849285Y-91717892D01*
X47849285Y-91575035D01*
X47885000Y-91517892D01*
X47920714Y-91489321D01*
X47992142Y-91460750D01*
X48063571Y-91460750D01*
X48170714Y-91489321D01*
X48599285Y-91832178D01*
X48599285Y-91460750D01*
X47849285Y-91089321D02*
X47849285Y-91032178D01*
X47885000Y-90975035D01*
X47920714Y-90946464D01*
X47992142Y-90917892D01*
X48135000Y-90889321D01*
X48313571Y-90889321D01*
X48456428Y-90917892D01*
X48527857Y-90946464D01*
X48563571Y-90975035D01*
X48599285Y-91032178D01*
X48599285Y-91089321D01*
X48563571Y-91146464D01*
X48527857Y-91175035D01*
X48456428Y-91203607D01*
X48313571Y-91232178D01*
X48135000Y-91232178D01*
X47992142Y-91203607D01*
X47920714Y-91175035D01*
X47885000Y-91146464D01*
X47849285Y-91089321D01*
D10*
X77287619Y-48712380D02*
X77287619Y-47712380D01*
X77287619Y-48664761D02*
X77192380Y-48712380D01*
X77001904Y-48712380D01*
X76906666Y-48664761D01*
X76859047Y-48617142D01*
X76811428Y-48521904D01*
X76811428Y-48236190D01*
X76859047Y-48140952D01*
X76906666Y-48093333D01*
X77001904Y-48045714D01*
X77192380Y-48045714D01*
X77287619Y-48093333D01*
X78192380Y-48712380D02*
X78192380Y-48188571D01*
X78144761Y-48093333D01*
X78049523Y-48045714D01*
X77859047Y-48045714D01*
X77763809Y-48093333D01*
X78192380Y-48664761D02*
X78097142Y-48712380D01*
X77859047Y-48712380D01*
X77763809Y-48664761D01*
X77716190Y-48569523D01*
X77716190Y-48474285D01*
X77763809Y-48379047D01*
X77859047Y-48331428D01*
X78097142Y-48331428D01*
X78192380Y-48283809D01*
X78525714Y-48045714D02*
X78906666Y-48045714D01*
X78668571Y-47712380D02*
X78668571Y-48569523D01*
X78716190Y-48664761D01*
X78811428Y-48712380D01*
X78906666Y-48712380D01*
X79668571Y-48712380D02*
X79668571Y-48188571D01*
X79620952Y-48093333D01*
X79525714Y-48045714D01*
X79335238Y-48045714D01*
X79240000Y-48093333D01*
X79668571Y-48664761D02*
X79573333Y-48712380D01*
X79335238Y-48712380D01*
X79240000Y-48664761D01*
X79192380Y-48569523D01*
X79192380Y-48474285D01*
X79240000Y-48379047D01*
X79335238Y-48331428D01*
X79573333Y-48331428D01*
X79668571Y-48283809D01*
X80097142Y-47807619D02*
X80144761Y-47760000D01*
X80240000Y-47712380D01*
X80478095Y-47712380D01*
X80573333Y-47760000D01*
X80620952Y-47807619D01*
X80668571Y-47902857D01*
X80668571Y-47998095D01*
X80620952Y-48140952D01*
X80049523Y-48712380D01*
X80668571Y-48712380D01*
X97318666Y-94178428D02*
X97852000Y-94178428D01*
X97585333Y-94559380D02*
X97585333Y-93797476D01*
X98118666Y-93559380D02*
X98552000Y-93559380D01*
X98318666Y-93940333D01*
X98418666Y-93940333D01*
X98485333Y-93987952D01*
X98518666Y-94035571D01*
X98552000Y-94130809D01*
X98552000Y-94368904D01*
X98518666Y-94464142D01*
X98485333Y-94511761D01*
X98418666Y-94559380D01*
X98218666Y-94559380D01*
X98152000Y-94511761D01*
X98118666Y-94464142D01*
X98752000Y-93559380D02*
X98985333Y-94559380D01*
X99218666Y-93559380D01*
X99385333Y-93559380D02*
X99818666Y-93559380D01*
X99585333Y-93940333D01*
X99685333Y-93940333D01*
X99752000Y-93987952D01*
X99785333Y-94035571D01*
X99818666Y-94130809D01*
X99818666Y-94368904D01*
X99785333Y-94464142D01*
X99752000Y-94511761D01*
X99685333Y-94559380D01*
X99485333Y-94559380D01*
X99418666Y-94511761D01*
X99385333Y-94464142D01*
X82955714Y-49458571D02*
X83289047Y-49458571D01*
X83431904Y-49982380D02*
X82955714Y-49982380D01*
X82955714Y-48982380D01*
X83431904Y-48982380D01*
X84193809Y-49458571D02*
X84336666Y-49506190D01*
X84384285Y-49553809D01*
X84431904Y-49649047D01*
X84431904Y-49791904D01*
X84384285Y-49887142D01*
X84336666Y-49934761D01*
X84241428Y-49982380D01*
X83860476Y-49982380D01*
X83860476Y-48982380D01*
X84193809Y-48982380D01*
X84289047Y-49030000D01*
X84336666Y-49077619D01*
X84384285Y-49172857D01*
X84384285Y-49268095D01*
X84336666Y-49363333D01*
X84289047Y-49410952D01*
X84193809Y-49458571D01*
X83860476Y-49458571D01*
X84812857Y-49696666D02*
X85289047Y-49696666D01*
X84717619Y-49982380D02*
X85050952Y-48982380D01*
X85384285Y-49982380D01*
X85622380Y-48982380D02*
X86289047Y-48982380D01*
X85622380Y-49982380D01*
X86289047Y-49982380D01*
X87098571Y-49315714D02*
X87098571Y-49982380D01*
X86860476Y-48934761D02*
X86622380Y-49649047D01*
X87241428Y-49649047D01*
X87574761Y-49077619D02*
X87622380Y-49030000D01*
X87717619Y-48982380D01*
X87955714Y-48982380D01*
X88050952Y-49030000D01*
X88098571Y-49077619D01*
X88146190Y-49172857D01*
X88146190Y-49268095D01*
X88098571Y-49410952D01*
X87527142Y-49982380D01*
X88146190Y-49982380D01*
X88765238Y-48982380D02*
X88860476Y-48982380D01*
X88955714Y-49030000D01*
X89003333Y-49077619D01*
X89050952Y-49172857D01*
X89098571Y-49363333D01*
X89098571Y-49601428D01*
X89050952Y-49791904D01*
X89003333Y-49887142D01*
X88955714Y-49934761D01*
X88860476Y-49982380D01*
X88765238Y-49982380D01*
X88670000Y-49934761D01*
X88622380Y-49887142D01*
X88574761Y-49791904D01*
X88527142Y-49601428D01*
X88527142Y-49363333D01*
X88574761Y-49172857D01*
X88622380Y-49077619D01*
X88670000Y-49030000D01*
X88765238Y-48982380D01*
X90003333Y-48982380D02*
X89527142Y-48982380D01*
X89479523Y-49458571D01*
X89527142Y-49410952D01*
X89622380Y-49363333D01*
X89860476Y-49363333D01*
X89955714Y-49410952D01*
X90003333Y-49458571D01*
X90050952Y-49553809D01*
X90050952Y-49791904D01*
X90003333Y-49887142D01*
X89955714Y-49934761D01*
X89860476Y-49982380D01*
X89622380Y-49982380D01*
X89527142Y-49934761D01*
X89479523Y-49887142D01*
X91241428Y-49982380D02*
X91241428Y-49315714D01*
X91241428Y-48982380D02*
X91193809Y-49030000D01*
X91241428Y-49077619D01*
X91289047Y-49030000D01*
X91241428Y-48982380D01*
X91241428Y-49077619D01*
X91717619Y-49315714D02*
X91717619Y-49982380D01*
X91717619Y-49410952D02*
X91765238Y-49363333D01*
X91860476Y-49315714D01*
X92003333Y-49315714D01*
X92098571Y-49363333D01*
X92146190Y-49458571D01*
X92146190Y-49982380D01*
X92479523Y-49315714D02*
X92860476Y-49315714D01*
X92622380Y-48982380D02*
X92622380Y-49839523D01*
X92670000Y-49934761D01*
X92765238Y-49982380D01*
X92860476Y-49982380D01*
X93574761Y-49934761D02*
X93479523Y-49982380D01*
X93289047Y-49982380D01*
X93193809Y-49934761D01*
X93146190Y-49839523D01*
X93146190Y-49458571D01*
X93193809Y-49363333D01*
X93289047Y-49315714D01*
X93479523Y-49315714D01*
X93574761Y-49363333D01*
X93622380Y-49458571D01*
X93622380Y-49553809D01*
X93146190Y-49649047D01*
X94050952Y-49982380D02*
X94050952Y-49315714D01*
X94050952Y-49506190D02*
X94098571Y-49410952D01*
X94146190Y-49363333D01*
X94241428Y-49315714D01*
X94336666Y-49315714D01*
X94527142Y-49315714D02*
X94908095Y-49315714D01*
X94670000Y-49982380D02*
X94670000Y-49125238D01*
X94717619Y-49030000D01*
X94812857Y-48982380D01*
X94908095Y-48982380D01*
X95670000Y-49982380D02*
X95670000Y-49458571D01*
X95622380Y-49363333D01*
X95527142Y-49315714D01*
X95336666Y-49315714D01*
X95241428Y-49363333D01*
X95670000Y-49934761D02*
X95574761Y-49982380D01*
X95336666Y-49982380D01*
X95241428Y-49934761D01*
X95193809Y-49839523D01*
X95193809Y-49744285D01*
X95241428Y-49649047D01*
X95336666Y-49601428D01*
X95574761Y-49601428D01*
X95670000Y-49553809D01*
X96574761Y-49934761D02*
X96479523Y-49982380D01*
X96289047Y-49982380D01*
X96193809Y-49934761D01*
X96146190Y-49887142D01*
X96098571Y-49791904D01*
X96098571Y-49506190D01*
X96146190Y-49410952D01*
X96193809Y-49363333D01*
X96289047Y-49315714D01*
X96479523Y-49315714D01*
X96574761Y-49363333D01*
X97384285Y-49934761D02*
X97289047Y-49982380D01*
X97098571Y-49982380D01*
X97003333Y-49934761D01*
X96955714Y-49839523D01*
X96955714Y-49458571D01*
X97003333Y-49363333D01*
X97098571Y-49315714D01*
X97289047Y-49315714D01*
X97384285Y-49363333D01*
X97431904Y-49458571D01*
X97431904Y-49553809D01*
X96955714Y-49649047D01*
X44656476Y-92559142D02*
X44608857Y-92606761D01*
X44466000Y-92654380D01*
X44370761Y-92654380D01*
X44227904Y-92606761D01*
X44132666Y-92511523D01*
X44085047Y-92416285D01*
X44037428Y-92225809D01*
X44037428Y-92082952D01*
X44085047Y-91892476D01*
X44132666Y-91797238D01*
X44227904Y-91702000D01*
X44370761Y-91654380D01*
X44466000Y-91654380D01*
X44608857Y-91702000D01*
X44656476Y-91749619D01*
X45513619Y-92654380D02*
X45513619Y-92130571D01*
X45466000Y-92035333D01*
X45370761Y-91987714D01*
X45180285Y-91987714D01*
X45085047Y-92035333D01*
X45513619Y-92606761D02*
X45418380Y-92654380D01*
X45180285Y-92654380D01*
X45085047Y-92606761D01*
X45037428Y-92511523D01*
X45037428Y-92416285D01*
X45085047Y-92321047D01*
X45180285Y-92273428D01*
X45418380Y-92273428D01*
X45513619Y-92225809D01*
X45989809Y-92654380D02*
X45989809Y-91987714D01*
X45989809Y-92082952D02*
X46037428Y-92035333D01*
X46132666Y-91987714D01*
X46275523Y-91987714D01*
X46370761Y-92035333D01*
X46418380Y-92130571D01*
X46418380Y-92654380D01*
X46418380Y-92130571D02*
X46466000Y-92035333D01*
X46561238Y-91987714D01*
X46704095Y-91987714D01*
X46799333Y-92035333D01*
X46846952Y-92130571D01*
X46846952Y-92654380D01*
X56889428Y-61253666D02*
X57365619Y-61253666D01*
X56794190Y-61539380D02*
X57127523Y-60539380D01*
X57460857Y-61539380D01*
X57937047Y-61539380D02*
X57841809Y-61491761D01*
X57794190Y-61396523D01*
X57794190Y-60539380D01*
X58318000Y-61539380D02*
X58318000Y-60872714D01*
X58318000Y-60539380D02*
X58270380Y-60587000D01*
X58318000Y-60634619D01*
X58365619Y-60587000D01*
X58318000Y-60539380D01*
X58318000Y-60634619D01*
X58794190Y-60872714D02*
X58794190Y-61539380D01*
X58794190Y-60967952D02*
X58841809Y-60920333D01*
X58937047Y-60872714D01*
X59079904Y-60872714D01*
X59175142Y-60920333D01*
X59222761Y-61015571D01*
X59222761Y-61539380D01*
X59603714Y-61539380D02*
X60127523Y-60872714D01*
X59603714Y-60872714D02*
X60127523Y-61539380D01*
X61270380Y-61539380D02*
X61270380Y-60539380D01*
X61270380Y-61015571D02*
X61841809Y-61015571D01*
X61841809Y-61539380D02*
X61841809Y-60539380D01*
X62318000Y-61539380D02*
X62318000Y-60539380D01*
X62556095Y-60539380D01*
X62698952Y-60587000D01*
X62794190Y-60682238D01*
X62841809Y-60777476D01*
X62889428Y-60967952D01*
X62889428Y-61110809D01*
X62841809Y-61301285D01*
X62794190Y-61396523D01*
X62698952Y-61491761D01*
X62556095Y-61539380D01*
X62318000Y-61539380D01*
X63318000Y-61539380D02*
X63318000Y-60539380D01*
X63651333Y-61253666D01*
X63984666Y-60539380D01*
X63984666Y-61539380D01*
X64460857Y-61539380D02*
X64460857Y-60539380D01*
X65651333Y-60491761D02*
X64794190Y-61777476D01*
X65984666Y-61015571D02*
X66318000Y-61015571D01*
X66460857Y-61539380D02*
X65984666Y-61539380D01*
X65984666Y-60539380D01*
X66460857Y-60539380D01*
X66746571Y-60872714D02*
X67127523Y-60872714D01*
X66889428Y-60539380D02*
X66889428Y-61396523D01*
X66937047Y-61491761D01*
X67032285Y-61539380D01*
X67127523Y-61539380D01*
X67460857Y-61539380D02*
X67460857Y-60539380D01*
X67889428Y-61539380D02*
X67889428Y-61015571D01*
X67841809Y-60920333D01*
X67746571Y-60872714D01*
X67603714Y-60872714D01*
X67508476Y-60920333D01*
X67460857Y-60967952D01*
X68746571Y-61491761D02*
X68651333Y-61539380D01*
X68460857Y-61539380D01*
X68365619Y-61491761D01*
X68318000Y-61396523D01*
X68318000Y-61015571D01*
X68365619Y-60920333D01*
X68460857Y-60872714D01*
X68651333Y-60872714D01*
X68746571Y-60920333D01*
X68794190Y-61015571D01*
X68794190Y-61110809D01*
X68318000Y-61206047D01*
X69222761Y-61539380D02*
X69222761Y-60872714D01*
X69222761Y-61063190D02*
X69270380Y-60967952D01*
X69318000Y-60920333D01*
X69413238Y-60872714D01*
X69508476Y-60872714D01*
X69841809Y-60872714D02*
X69841809Y-61539380D01*
X69841809Y-60967952D02*
X69889428Y-60920333D01*
X69984666Y-60872714D01*
X70127523Y-60872714D01*
X70222761Y-60920333D01*
X70270380Y-61015571D01*
X70270380Y-61539380D01*
X71127523Y-61491761D02*
X71032285Y-61539380D01*
X70841809Y-61539380D01*
X70746571Y-61491761D01*
X70698952Y-61396523D01*
X70698952Y-61015571D01*
X70746571Y-60920333D01*
X70841809Y-60872714D01*
X71032285Y-60872714D01*
X71127523Y-60920333D01*
X71175142Y-61015571D01*
X71175142Y-61110809D01*
X70698952Y-61206047D01*
X71460857Y-60872714D02*
X71841809Y-60872714D01*
X71603714Y-60539380D02*
X71603714Y-61396523D01*
X71651333Y-61491761D01*
X71746571Y-61539380D01*
X71841809Y-61539380D01*
X72937047Y-61539380D02*
X72937047Y-60872714D01*
X72937047Y-60967952D02*
X72984666Y-60920333D01*
X73079904Y-60872714D01*
X73222761Y-60872714D01*
X73318000Y-60920333D01*
X73365619Y-61015571D01*
X73365619Y-61539380D01*
X73365619Y-61015571D02*
X73413238Y-60920333D01*
X73508476Y-60872714D01*
X73651333Y-60872714D01*
X73746571Y-60920333D01*
X73794190Y-61015571D01*
X73794190Y-61539380D01*
X74413238Y-61539380D02*
X74318000Y-61491761D01*
X74270380Y-61444142D01*
X74222761Y-61348904D01*
X74222761Y-61063190D01*
X74270380Y-60967952D01*
X74318000Y-60920333D01*
X74413238Y-60872714D01*
X74556095Y-60872714D01*
X74651333Y-60920333D01*
X74698952Y-60967952D01*
X74746571Y-61063190D01*
X74746571Y-61348904D01*
X74698952Y-61444142D01*
X74651333Y-61491761D01*
X74556095Y-61539380D01*
X74413238Y-61539380D01*
X75603714Y-61539380D02*
X75603714Y-60539380D01*
X75603714Y-61491761D02*
X75508476Y-61539380D01*
X75318000Y-61539380D01*
X75222761Y-61491761D01*
X75175142Y-61444142D01*
X75127523Y-61348904D01*
X75127523Y-61063190D01*
X75175142Y-60967952D01*
X75222761Y-60920333D01*
X75318000Y-60872714D01*
X75508476Y-60872714D01*
X75603714Y-60920333D01*
X76508476Y-60872714D02*
X76508476Y-61539380D01*
X76079904Y-60872714D02*
X76079904Y-61396523D01*
X76127523Y-61491761D01*
X76222761Y-61539380D01*
X76365619Y-61539380D01*
X76460857Y-61491761D01*
X76508476Y-61444142D01*
X77127523Y-61539380D02*
X77032285Y-61491761D01*
X76984666Y-61396523D01*
X76984666Y-60539380D01*
X77889428Y-61491761D02*
X77794190Y-61539380D01*
X77603714Y-61539380D01*
X77508476Y-61491761D01*
X77460857Y-61396523D01*
X77460857Y-61015571D01*
X77508476Y-60920333D01*
X77603714Y-60872714D01*
X77794190Y-60872714D01*
X77889428Y-60920333D01*
X77937047Y-61015571D01*
X77937047Y-61110809D01*
X77460857Y-61206047D01*
X78317999Y-61491761D02*
X78413238Y-61539380D01*
X78603714Y-61539380D01*
X78698952Y-61491761D01*
X78746571Y-61396523D01*
X78746571Y-61348904D01*
X78698952Y-61253666D01*
X78603714Y-61206047D01*
X78460857Y-61206047D01*
X78365619Y-61158428D01*
X78317999Y-61063190D01*
X78317999Y-61015571D01*
X78365619Y-60920333D01*
X78460857Y-60872714D01*
X78603714Y-60872714D01*
X78698952Y-60920333D01*
X41438666Y-63571428D02*
X41972000Y-63571428D01*
X41705333Y-63952380D02*
X41705333Y-63190476D01*
X42238666Y-62952380D02*
X42672000Y-62952380D01*
X42438666Y-63333333D01*
X42538666Y-63333333D01*
X42605333Y-63380952D01*
X42638666Y-63428571D01*
X42672000Y-63523809D01*
X42672000Y-63761904D01*
X42638666Y-63857142D01*
X42605333Y-63904761D01*
X42538666Y-63952380D01*
X42338666Y-63952380D01*
X42272000Y-63904761D01*
X42238666Y-63857142D01*
X42872000Y-62952380D02*
X43105333Y-63952380D01*
X43338666Y-62952380D01*
X43505333Y-62952380D02*
X43938666Y-62952380D01*
X43705333Y-63333333D01*
X43805333Y-63333333D01*
X43872000Y-63380952D01*
X43905333Y-63428571D01*
X43938666Y-63523809D01*
X43938666Y-63761904D01*
X43905333Y-63857142D01*
X43872000Y-63904761D01*
X43805333Y-63952380D01*
X43605333Y-63952380D01*
X43538666Y-63904761D01*
X43505333Y-63857142D01*
X113776285Y-82875428D02*
X114538190Y-82875428D01*
X114157238Y-83256380D02*
X114157238Y-82494476D01*
X115490571Y-82256380D02*
X115014380Y-82256380D01*
X114966761Y-82732571D01*
X115014380Y-82684952D01*
X115109619Y-82637333D01*
X115347714Y-82637333D01*
X115442952Y-82684952D01*
X115490571Y-82732571D01*
X115538190Y-82827809D01*
X115538190Y-83065904D01*
X115490571Y-83161142D01*
X115442952Y-83208761D01*
X115347714Y-83256380D01*
X115109619Y-83256380D01*
X115014380Y-83208761D01*
X114966761Y-83161142D01*
X115823904Y-82256380D02*
X116157238Y-83256380D01*
X116490571Y-82256380D01*
X93289523Y-76325428D02*
X93289523Y-76811142D01*
X93241904Y-76868285D01*
X93194285Y-76896857D01*
X93099047Y-76925428D01*
X92956190Y-76925428D01*
X92860952Y-76896857D01*
X93289523Y-76696857D02*
X93194285Y-76725428D01*
X93003809Y-76725428D01*
X92908571Y-76696857D01*
X92860952Y-76668285D01*
X92813333Y-76611142D01*
X92813333Y-76439714D01*
X92860952Y-76382571D01*
X92908571Y-76354000D01*
X93003809Y-76325428D01*
X93194285Y-76325428D01*
X93289523Y-76354000D01*
X93765714Y-76325428D02*
X93765714Y-76725428D01*
X93765714Y-76382571D02*
X93813333Y-76354000D01*
X93908571Y-76325428D01*
X94051428Y-76325428D01*
X94146666Y-76354000D01*
X94194285Y-76411142D01*
X94194285Y-76725428D01*
X95099047Y-76725428D02*
X95099047Y-76125428D01*
X95099047Y-76696857D02*
X95003809Y-76725428D01*
X94813333Y-76725428D01*
X94718095Y-76696857D01*
X94670476Y-76668285D01*
X94622857Y-76611142D01*
X94622857Y-76439714D01*
X94670476Y-76382571D01*
X94718095Y-76354000D01*
X94813333Y-76325428D01*
X95003809Y-76325428D01*
X95099047Y-76354000D01*
X41438666Y-100020428D02*
X41972000Y-100020428D01*
X41705333Y-100401380D02*
X41705333Y-99639476D01*
X42238666Y-99401380D02*
X42672000Y-99401380D01*
X42438666Y-99782333D01*
X42538666Y-99782333D01*
X42605333Y-99829952D01*
X42638666Y-99877571D01*
X42672000Y-99972809D01*
X42672000Y-100210904D01*
X42638666Y-100306142D01*
X42605333Y-100353761D01*
X42538666Y-100401380D01*
X42338666Y-100401380D01*
X42272000Y-100353761D01*
X42238666Y-100306142D01*
X42872000Y-99401380D02*
X43105333Y-100401380D01*
X43338666Y-99401380D01*
X43505333Y-99401380D02*
X43938666Y-99401380D01*
X43705333Y-99782333D01*
X43805333Y-99782333D01*
X43872000Y-99829952D01*
X43905333Y-99877571D01*
X43938666Y-99972809D01*
X43938666Y-100210904D01*
X43905333Y-100306142D01*
X43872000Y-100353761D01*
X43805333Y-100401380D01*
X43605333Y-100401380D01*
X43538666Y-100353761D01*
X43505333Y-100306142D01*
X115091333Y-48475809D02*
X115091333Y-46875809D01*
X115424666Y-46875809D01*
X115624666Y-46952000D01*
X115758000Y-47104380D01*
X115824666Y-47256761D01*
X115891333Y-47561523D01*
X115891333Y-47790095D01*
X115824666Y-48094857D01*
X115758000Y-48247238D01*
X115624666Y-48399619D01*
X115424666Y-48475809D01*
X115091333Y-48475809D01*
X117024666Y-48399619D02*
X116891333Y-48475809D01*
X116624666Y-48475809D01*
X116491333Y-48399619D01*
X116424666Y-48247238D01*
X116424666Y-47637714D01*
X116491333Y-47485333D01*
X116624666Y-47409142D01*
X116891333Y-47409142D01*
X117024666Y-47485333D01*
X117091333Y-47637714D01*
X117091333Y-47790095D01*
X116424666Y-47942476D01*
X117624666Y-48399619D02*
X117758000Y-48475809D01*
X118024666Y-48475809D01*
X118158000Y-48399619D01*
X118224666Y-48247238D01*
X118224666Y-48171047D01*
X118158000Y-48018666D01*
X118024666Y-47942476D01*
X117824666Y-47942476D01*
X117691333Y-47866285D01*
X117624666Y-47713904D01*
X117624666Y-47637714D01*
X117691333Y-47485333D01*
X117824666Y-47409142D01*
X118024666Y-47409142D01*
X118158000Y-47485333D01*
X118824666Y-48475809D02*
X118824666Y-47409142D01*
X118824666Y-46875809D02*
X118758000Y-46952000D01*
X118824666Y-47028190D01*
X118891333Y-46952000D01*
X118824666Y-46875809D01*
X118824666Y-47028190D01*
X120091333Y-47409142D02*
X120091333Y-48704380D01*
X120024666Y-48856761D01*
X119958000Y-48932952D01*
X119824666Y-49009142D01*
X119624666Y-49009142D01*
X119491333Y-48932952D01*
X120091333Y-48399619D02*
X119958000Y-48475809D01*
X119691333Y-48475809D01*
X119558000Y-48399619D01*
X119491333Y-48323428D01*
X119424666Y-48171047D01*
X119424666Y-47713904D01*
X119491333Y-47561523D01*
X119558000Y-47485333D01*
X119691333Y-47409142D01*
X119958000Y-47409142D01*
X120091333Y-47485333D01*
X120758000Y-47409142D02*
X120758000Y-48475809D01*
X120758000Y-47561523D02*
X120824666Y-47485333D01*
X120958000Y-47409142D01*
X121158000Y-47409142D01*
X121291333Y-47485333D01*
X121358000Y-47637714D01*
X121358000Y-48475809D01*
X122558000Y-48399619D02*
X122424666Y-48475809D01*
X122158000Y-48475809D01*
X122024666Y-48399619D01*
X121958000Y-48247238D01*
X121958000Y-47637714D01*
X122024666Y-47485333D01*
X122158000Y-47409142D01*
X122424666Y-47409142D01*
X122558000Y-47485333D01*
X122624666Y-47637714D01*
X122624666Y-47790095D01*
X121958000Y-47942476D01*
X123824666Y-48475809D02*
X123824666Y-46875809D01*
X123824666Y-48399619D02*
X123691333Y-48475809D01*
X123424666Y-48475809D01*
X123291333Y-48399619D01*
X123224666Y-48323428D01*
X123158000Y-48171047D01*
X123158000Y-47713904D01*
X123224666Y-47561523D01*
X123291333Y-47485333D01*
X123424666Y-47409142D01*
X123691333Y-47409142D01*
X123824666Y-47485333D01*
X125558000Y-48475809D02*
X125558000Y-46875809D01*
X125558000Y-47485333D02*
X125691333Y-47409142D01*
X125958000Y-47409142D01*
X126091333Y-47485333D01*
X126158000Y-47561523D01*
X126224666Y-47713904D01*
X126224666Y-48171047D01*
X126158000Y-48323428D01*
X126091333Y-48399619D01*
X125958000Y-48475809D01*
X125691333Y-48475809D01*
X125558000Y-48399619D01*
X126691333Y-47409142D02*
X127024666Y-48475809D01*
X127358000Y-47409142D02*
X127024666Y-48475809D01*
X126891333Y-48856761D01*
X126824666Y-48932952D01*
X126691333Y-49009142D01*
X92440285Y-68397428D02*
X93202190Y-68397428D01*
X92821238Y-68778380D02*
X92821238Y-68016476D01*
X94154571Y-67778380D02*
X93678380Y-67778380D01*
X93630761Y-68254571D01*
X93678380Y-68206952D01*
X93773619Y-68159333D01*
X94011714Y-68159333D01*
X94106952Y-68206952D01*
X94154571Y-68254571D01*
X94202190Y-68349809D01*
X94202190Y-68587904D01*
X94154571Y-68683142D01*
X94106952Y-68730761D01*
X94011714Y-68778380D01*
X93773619Y-68778380D01*
X93678380Y-68730761D01*
X93630761Y-68683142D01*
X94487904Y-67778380D02*
X94821238Y-68778380D01*
X95154571Y-67778380D01*
X74458666Y-94178428D02*
X74992000Y-94178428D01*
X74725333Y-94559380D02*
X74725333Y-93797476D01*
X75258666Y-93559380D02*
X75692000Y-93559380D01*
X75458666Y-93940333D01*
X75558666Y-93940333D01*
X75625333Y-93987952D01*
X75658666Y-94035571D01*
X75692000Y-94130809D01*
X75692000Y-94368904D01*
X75658666Y-94464142D01*
X75625333Y-94511761D01*
X75558666Y-94559380D01*
X75358666Y-94559380D01*
X75292000Y-94511761D01*
X75258666Y-94464142D01*
X75892000Y-93559380D02*
X76125333Y-94559380D01*
X76358666Y-93559380D01*
X76525333Y-93559380D02*
X76958666Y-93559380D01*
X76725333Y-93940333D01*
X76825333Y-93940333D01*
X76892000Y-93987952D01*
X76925333Y-94035571D01*
X76958666Y-94130809D01*
X76958666Y-94368904D01*
X76925333Y-94464142D01*
X76892000Y-94511761D01*
X76825333Y-94559380D01*
X76625333Y-94559380D01*
X76558666Y-94511761D01*
X76525333Y-94464142D01*
X45029523Y-94105428D02*
X45029523Y-94591142D01*
X44981904Y-94648285D01*
X44934285Y-94676857D01*
X44839047Y-94705428D01*
X44696190Y-94705428D01*
X44600952Y-94676857D01*
X45029523Y-94476857D02*
X44934285Y-94505428D01*
X44743809Y-94505428D01*
X44648571Y-94476857D01*
X44600952Y-94448285D01*
X44553333Y-94391142D01*
X44553333Y-94219714D01*
X44600952Y-94162571D01*
X44648571Y-94134000D01*
X44743809Y-94105428D01*
X44934285Y-94105428D01*
X45029523Y-94134000D01*
X45505714Y-94105428D02*
X45505714Y-94505428D01*
X45505714Y-94162571D02*
X45553333Y-94134000D01*
X45648571Y-94105428D01*
X45791428Y-94105428D01*
X45886666Y-94134000D01*
X45934285Y-94191142D01*
X45934285Y-94505428D01*
X46839047Y-94505428D02*
X46839047Y-93905428D01*
X46839047Y-94476857D02*
X46743809Y-94505428D01*
X46553333Y-94505428D01*
X46458095Y-94476857D01*
X46410476Y-94448285D01*
X46362857Y-94391142D01*
X46362857Y-94219714D01*
X46410476Y-94162571D01*
X46458095Y-94134000D01*
X46553333Y-94105428D01*
X46743809Y-94105428D01*
X46839047Y-94134000D01*
X48839523Y-75436428D02*
X48839523Y-75922142D01*
X48791904Y-75979285D01*
X48744285Y-76007857D01*
X48649047Y-76036428D01*
X48506190Y-76036428D01*
X48410952Y-76007857D01*
X48839523Y-75807857D02*
X48744285Y-75836428D01*
X48553809Y-75836428D01*
X48458571Y-75807857D01*
X48410952Y-75779285D01*
X48363333Y-75722142D01*
X48363333Y-75550714D01*
X48410952Y-75493571D01*
X48458571Y-75465000D01*
X48553809Y-75436428D01*
X48744285Y-75436428D01*
X48839523Y-75465000D01*
X49315714Y-75436428D02*
X49315714Y-75836428D01*
X49315714Y-75493571D02*
X49363333Y-75465000D01*
X49458571Y-75436428D01*
X49601428Y-75436428D01*
X49696666Y-75465000D01*
X49744285Y-75522142D01*
X49744285Y-75836428D01*
X50649047Y-75836428D02*
X50649047Y-75236428D01*
X50649047Y-75807857D02*
X50553809Y-75836428D01*
X50363333Y-75836428D01*
X50268095Y-75807857D01*
X50220476Y-75779285D01*
X50172857Y-75722142D01*
X50172857Y-75550714D01*
X50220476Y-75493571D01*
X50268095Y-75465000D01*
X50363333Y-75436428D01*
X50553809Y-75436428D01*
X50649047Y-75465000D01*
X80589523Y-90803428D02*
X80589523Y-91289142D01*
X80541904Y-91346285D01*
X80494285Y-91374857D01*
X80399047Y-91403428D01*
X80256190Y-91403428D01*
X80160952Y-91374857D01*
X80589523Y-91174857D02*
X80494285Y-91203428D01*
X80303809Y-91203428D01*
X80208571Y-91174857D01*
X80160952Y-91146285D01*
X80113333Y-91089142D01*
X80113333Y-90917714D01*
X80160952Y-90860571D01*
X80208571Y-90832000D01*
X80303809Y-90803428D01*
X80494285Y-90803428D01*
X80589523Y-90832000D01*
X81065714Y-90803428D02*
X81065714Y-91203428D01*
X81065714Y-90860571D02*
X81113333Y-90832000D01*
X81208571Y-90803428D01*
X81351428Y-90803428D01*
X81446666Y-90832000D01*
X81494285Y-90889142D01*
X81494285Y-91203428D01*
X82399047Y-91203428D02*
X82399047Y-90603428D01*
X82399047Y-91174857D02*
X82303809Y-91203428D01*
X82113333Y-91203428D01*
X82018095Y-91174857D01*
X81970476Y-91146285D01*
X81922857Y-91089142D01*
X81922857Y-90917714D01*
X81970476Y-90860571D01*
X82018095Y-90832000D01*
X82113333Y-90803428D01*
X82303809Y-90803428D01*
X82399047Y-90832000D01*
X48839523Y-53592428D02*
X48839523Y-54078142D01*
X48791904Y-54135285D01*
X48744285Y-54163857D01*
X48649047Y-54192428D01*
X48506190Y-54192428D01*
X48410952Y-54163857D01*
X48839523Y-53963857D02*
X48744285Y-53992428D01*
X48553809Y-53992428D01*
X48458571Y-53963857D01*
X48410952Y-53935285D01*
X48363333Y-53878142D01*
X48363333Y-53706714D01*
X48410952Y-53649571D01*
X48458571Y-53621000D01*
X48553809Y-53592428D01*
X48744285Y-53592428D01*
X48839523Y-53621000D01*
X49315714Y-53592428D02*
X49315714Y-53992428D01*
X49315714Y-53649571D02*
X49363333Y-53621000D01*
X49458571Y-53592428D01*
X49601428Y-53592428D01*
X49696666Y-53621000D01*
X49744285Y-53678142D01*
X49744285Y-53992428D01*
X50649047Y-53992428D02*
X50649047Y-53392428D01*
X50649047Y-53963857D02*
X50553809Y-53992428D01*
X50363333Y-53992428D01*
X50268095Y-53963857D01*
X50220476Y-53935285D01*
X50172857Y-53878142D01*
X50172857Y-53706714D01*
X50220476Y-53649571D01*
X50268095Y-53621000D01*
X50363333Y-53592428D01*
X50553809Y-53592428D01*
X50649047Y-53621000D01*
X41438666Y-55951428D02*
X41972000Y-55951428D01*
X41705333Y-56332380D02*
X41705333Y-55570476D01*
X42238666Y-55332380D02*
X42672000Y-55332380D01*
X42438666Y-55713333D01*
X42538666Y-55713333D01*
X42605333Y-55760952D01*
X42638666Y-55808571D01*
X42672000Y-55903809D01*
X42672000Y-56141904D01*
X42638666Y-56237142D01*
X42605333Y-56284761D01*
X42538666Y-56332380D01*
X42338666Y-56332380D01*
X42272000Y-56284761D01*
X42238666Y-56237142D01*
X42872000Y-55332380D02*
X43105333Y-56332380D01*
X43338666Y-55332380D01*
X43505333Y-55332380D02*
X43938666Y-55332380D01*
X43705333Y-55713333D01*
X43805333Y-55713333D01*
X43872000Y-55760952D01*
X43905333Y-55808571D01*
X43938666Y-55903809D01*
X43938666Y-56141904D01*
X43905333Y-56237142D01*
X43872000Y-56284761D01*
X43805333Y-56332380D01*
X43605333Y-56332380D01*
X43538666Y-56284761D01*
X43505333Y-56237142D01*
X93289523Y-61085428D02*
X93289523Y-61571142D01*
X93241904Y-61628285D01*
X93194285Y-61656857D01*
X93099047Y-61685428D01*
X92956190Y-61685428D01*
X92860952Y-61656857D01*
X93289523Y-61456857D02*
X93194285Y-61485428D01*
X93003809Y-61485428D01*
X92908571Y-61456857D01*
X92860952Y-61428285D01*
X92813333Y-61371142D01*
X92813333Y-61199714D01*
X92860952Y-61142571D01*
X92908571Y-61114000D01*
X93003809Y-61085428D01*
X93194285Y-61085428D01*
X93289523Y-61114000D01*
X93765714Y-61085428D02*
X93765714Y-61485428D01*
X93765714Y-61142571D02*
X93813333Y-61114000D01*
X93908571Y-61085428D01*
X94051428Y-61085428D01*
X94146666Y-61114000D01*
X94194285Y-61171142D01*
X94194285Y-61485428D01*
X95099047Y-61485428D02*
X95099047Y-60885428D01*
X95099047Y-61456857D02*
X95003809Y-61485428D01*
X94813333Y-61485428D01*
X94718095Y-61456857D01*
X94670476Y-61428285D01*
X94622857Y-61371142D01*
X94622857Y-61199714D01*
X94670476Y-61142571D01*
X94718095Y-61114000D01*
X94813333Y-61085428D01*
X95003809Y-61085428D01*
X95099047Y-61114000D01*
X90817714Y-96791428D02*
X90474857Y-96791428D01*
X90646285Y-96791428D02*
X90646285Y-96191428D01*
X90589142Y-96277142D01*
X90532000Y-96334285D01*
X90474857Y-96362857D01*
X91389142Y-96791428D02*
X91046285Y-96791428D01*
X91217714Y-96791428D02*
X91217714Y-96191428D01*
X91160571Y-96277142D01*
X91103428Y-96334285D01*
X91046285Y-96362857D01*
X78176523Y-94105428D02*
X78176523Y-94591142D01*
X78128904Y-94648285D01*
X78081285Y-94676857D01*
X77986047Y-94705428D01*
X77843190Y-94705428D01*
X77747952Y-94676857D01*
X78176523Y-94476857D02*
X78081285Y-94505428D01*
X77890809Y-94505428D01*
X77795571Y-94476857D01*
X77747952Y-94448285D01*
X77700333Y-94391142D01*
X77700333Y-94219714D01*
X77747952Y-94162571D01*
X77795571Y-94134000D01*
X77890809Y-94105428D01*
X78081285Y-94105428D01*
X78176523Y-94134000D01*
X78652714Y-94105428D02*
X78652714Y-94505428D01*
X78652714Y-94162571D02*
X78700333Y-94134000D01*
X78795571Y-94105428D01*
X78938428Y-94105428D01*
X79033666Y-94134000D01*
X79081285Y-94191142D01*
X79081285Y-94505428D01*
X79986047Y-94505428D02*
X79986047Y-93905428D01*
X79986047Y-94476857D02*
X79890809Y-94505428D01*
X79700333Y-94505428D01*
X79605095Y-94476857D01*
X79557476Y-94448285D01*
X79509857Y-94391142D01*
X79509857Y-94219714D01*
X79557476Y-94162571D01*
X79605095Y-94134000D01*
X79700333Y-94105428D01*
X79890809Y-94105428D01*
X79986047Y-94134000D01*
X58706857Y-53506666D02*
X59183047Y-53506666D01*
X58611619Y-53792380D02*
X58944952Y-52792380D01*
X59278285Y-53792380D01*
X59611619Y-53792380D02*
X59611619Y-52792380D01*
X59849714Y-52792380D01*
X59992571Y-52840000D01*
X60087809Y-52935238D01*
X60135428Y-53030476D01*
X60183047Y-53220952D01*
X60183047Y-53363809D01*
X60135428Y-53554285D01*
X60087809Y-53649523D01*
X59992571Y-53744761D01*
X59849714Y-53792380D01*
X59611619Y-53792380D01*
X60659238Y-53792380D02*
X60849714Y-53792380D01*
X60944952Y-53744761D01*
X60992571Y-53697142D01*
X61087809Y-53554285D01*
X61135428Y-53363809D01*
X61135428Y-52982857D01*
X61087809Y-52887619D01*
X61040190Y-52840000D01*
X60944952Y-52792380D01*
X60754476Y-52792380D01*
X60659238Y-52840000D01*
X60611619Y-52887619D01*
X60564000Y-52982857D01*
X60564000Y-53220952D01*
X60611619Y-53316190D01*
X60659238Y-53363809D01*
X60754476Y-53411428D01*
X60944952Y-53411428D01*
X61040190Y-53363809D01*
X61087809Y-53316190D01*
X61135428Y-53220952D01*
X61611619Y-53792380D02*
X61802095Y-53792380D01*
X61897333Y-53744761D01*
X61944952Y-53697142D01*
X62040190Y-53554285D01*
X62087809Y-53363809D01*
X62087809Y-52982857D01*
X62040190Y-52887619D01*
X61992571Y-52840000D01*
X61897333Y-52792380D01*
X61706857Y-52792380D01*
X61611619Y-52840000D01*
X61564000Y-52887619D01*
X61516380Y-52982857D01*
X61516380Y-53220952D01*
X61564000Y-53316190D01*
X61611619Y-53363809D01*
X61706857Y-53411428D01*
X61897333Y-53411428D01*
X61992571Y-53363809D01*
X62040190Y-53316190D01*
X62087809Y-53220952D01*
X62992571Y-52792380D02*
X62516380Y-52792380D01*
X62468761Y-53268571D01*
X62516380Y-53220952D01*
X62611619Y-53173333D01*
X62849714Y-53173333D01*
X62944952Y-53220952D01*
X62992571Y-53268571D01*
X63040190Y-53363809D01*
X63040190Y-53601904D01*
X62992571Y-53697142D01*
X62944952Y-53744761D01*
X62849714Y-53792380D01*
X62611619Y-53792380D01*
X62516380Y-53744761D01*
X62468761Y-53697142D01*
X63373523Y-52792380D02*
X64040190Y-52792380D01*
X63611619Y-53792380D01*
X65183047Y-53792380D02*
X65183047Y-52792380D01*
X66373523Y-52744761D02*
X65516380Y-54030476D01*
X67373523Y-53887619D02*
X67278285Y-53840000D01*
X67183047Y-53744761D01*
X67040190Y-53601904D01*
X66944952Y-53554285D01*
X66849714Y-53554285D01*
X66897333Y-53792380D02*
X66802095Y-53744761D01*
X66706857Y-53649523D01*
X66659238Y-53459047D01*
X66659238Y-53125714D01*
X66706857Y-52935238D01*
X66802095Y-52840000D01*
X66897333Y-52792380D01*
X67087809Y-52792380D01*
X67183047Y-52840000D01*
X67278285Y-52935238D01*
X67325904Y-53125714D01*
X67325904Y-53459047D01*
X67278285Y-53649523D01*
X67183047Y-53744761D01*
X67087809Y-53792380D01*
X66897333Y-53792380D01*
X67754476Y-53411428D02*
X68516380Y-53411428D01*
X68992571Y-53792380D02*
X68992571Y-52792380D01*
X69230666Y-52792380D01*
X69373523Y-52840000D01*
X69468761Y-52935238D01*
X69516380Y-53030476D01*
X69564000Y-53220952D01*
X69564000Y-53363809D01*
X69516380Y-53554285D01*
X69468761Y-53649523D01*
X69373523Y-53744761D01*
X69230666Y-53792380D01*
X68992571Y-53792380D01*
X69944952Y-53506666D02*
X70421142Y-53506666D01*
X69849714Y-53792380D02*
X70183047Y-52792380D01*
X70516380Y-53792380D01*
X71421142Y-53697142D02*
X71373523Y-53744761D01*
X71230666Y-53792380D01*
X71135428Y-53792380D01*
X70992571Y-53744761D01*
X70897333Y-53649523D01*
X70849714Y-53554285D01*
X70802095Y-53363809D01*
X70802095Y-53220952D01*
X70849714Y-53030476D01*
X70897333Y-52935238D01*
X70992571Y-52840000D01*
X71135428Y-52792380D01*
X71230666Y-52792380D01*
X71373523Y-52840000D01*
X71421142Y-52887619D01*
X72611619Y-53792380D02*
X72611619Y-52792380D01*
X72611619Y-53173333D02*
X72706857Y-53125714D01*
X72897333Y-53125714D01*
X72992571Y-53173333D01*
X73040190Y-53220952D01*
X73087809Y-53316190D01*
X73087809Y-53601904D01*
X73040190Y-53697142D01*
X72992571Y-53744761D01*
X72897333Y-53792380D01*
X72706857Y-53792380D01*
X72611619Y-53744761D01*
X73659238Y-53792380D02*
X73564000Y-53744761D01*
X73516380Y-53697142D01*
X73468761Y-53601904D01*
X73468761Y-53316190D01*
X73516380Y-53220952D01*
X73564000Y-53173333D01*
X73659238Y-53125714D01*
X73802095Y-53125714D01*
X73897333Y-53173333D01*
X73944952Y-53220952D01*
X73992571Y-53316190D01*
X73992571Y-53601904D01*
X73944952Y-53697142D01*
X73897333Y-53744761D01*
X73802095Y-53792380D01*
X73659238Y-53792380D01*
X74849714Y-53792380D02*
X74849714Y-53268571D01*
X74802095Y-53173333D01*
X74706857Y-53125714D01*
X74516380Y-53125714D01*
X74421142Y-53173333D01*
X74849714Y-53744761D02*
X74754476Y-53792380D01*
X74516380Y-53792380D01*
X74421142Y-53744761D01*
X74373523Y-53649523D01*
X74373523Y-53554285D01*
X74421142Y-53459047D01*
X74516380Y-53411428D01*
X74754476Y-53411428D01*
X74849714Y-53363809D01*
X75325904Y-53792380D02*
X75325904Y-53125714D01*
X75325904Y-53316190D02*
X75373523Y-53220952D01*
X75421142Y-53173333D01*
X75516380Y-53125714D01*
X75611619Y-53125714D01*
X76373523Y-53792380D02*
X76373523Y-52792380D01*
X76373523Y-53744761D02*
X76278285Y-53792380D01*
X76087809Y-53792380D01*
X75992571Y-53744761D01*
X75944952Y-53697142D01*
X75897333Y-53601904D01*
X75897333Y-53316190D01*
X75944952Y-53220952D01*
X75992571Y-53173333D01*
X76087809Y-53125714D01*
X76278285Y-53125714D01*
X76373523Y-53173333D01*
X79359285Y-84399428D02*
X80121190Y-84399428D01*
X79740238Y-84780380D02*
X79740238Y-84018476D01*
X81073571Y-83780380D02*
X80597380Y-83780380D01*
X80549761Y-84256571D01*
X80597380Y-84208952D01*
X80692619Y-84161333D01*
X80930714Y-84161333D01*
X81025952Y-84208952D01*
X81073571Y-84256571D01*
X81121190Y-84351809D01*
X81121190Y-84589904D01*
X81073571Y-84685142D01*
X81025952Y-84732761D01*
X80930714Y-84780380D01*
X80692619Y-84780380D01*
X80597380Y-84732761D01*
X80549761Y-84685142D01*
X81406904Y-83780380D02*
X81740238Y-84780380D01*
X82073571Y-83780380D01*
X116348095Y-88717428D02*
X117110000Y-88717428D01*
X116729047Y-89098380D02*
X116729047Y-88336476D01*
X117490952Y-88098380D02*
X118110000Y-88098380D01*
X117776666Y-88479333D01*
X117919523Y-88479333D01*
X118014761Y-88526952D01*
X118062380Y-88574571D01*
X118110000Y-88669809D01*
X118110000Y-88907904D01*
X118062380Y-89003142D01*
X118014761Y-89050761D01*
X117919523Y-89098380D01*
X117633809Y-89098380D01*
X117538571Y-89050761D01*
X117490952Y-89003142D01*
X118395714Y-88098380D02*
X118729047Y-89098380D01*
X119062380Y-88098380D01*
X119300476Y-88098380D02*
X119919523Y-88098380D01*
X119586190Y-88479333D01*
X119729047Y-88479333D01*
X119824285Y-88526952D01*
X119871904Y-88574571D01*
X119919523Y-88669809D01*
X119919523Y-88907904D01*
X119871904Y-89003142D01*
X119824285Y-89050761D01*
X119729047Y-89098380D01*
X119443333Y-89098380D01*
X119348095Y-89050761D01*
X119300476Y-89003142D01*
X97453428Y-96791428D02*
X97110571Y-96791428D01*
X97282000Y-96791428D02*
X97282000Y-96191428D01*
X97224857Y-96277142D01*
X97167714Y-96334285D01*
X97110571Y-96362857D01*
X90817714Y-99331428D02*
X90474857Y-99331428D01*
X90646285Y-99331428D02*
X90646285Y-98731428D01*
X90589142Y-98817142D01*
X90532000Y-98874285D01*
X90474857Y-98902857D01*
X91046285Y-98788571D02*
X91074857Y-98760000D01*
X91132000Y-98731428D01*
X91274857Y-98731428D01*
X91332000Y-98760000D01*
X91360571Y-98788571D01*
X91389142Y-98845714D01*
X91389142Y-98902857D01*
X91360571Y-98988571D01*
X91017714Y-99331428D01*
X91389142Y-99331428D01*
X48839523Y-67816428D02*
X48839523Y-68302142D01*
X48791904Y-68359285D01*
X48744285Y-68387857D01*
X48649047Y-68416428D01*
X48506190Y-68416428D01*
X48410952Y-68387857D01*
X48839523Y-68187857D02*
X48744285Y-68216428D01*
X48553809Y-68216428D01*
X48458571Y-68187857D01*
X48410952Y-68159285D01*
X48363333Y-68102142D01*
X48363333Y-67930714D01*
X48410952Y-67873571D01*
X48458571Y-67845000D01*
X48553809Y-67816428D01*
X48744285Y-67816428D01*
X48839523Y-67845000D01*
X49315714Y-67816428D02*
X49315714Y-68216428D01*
X49315714Y-67873571D02*
X49363333Y-67845000D01*
X49458571Y-67816428D01*
X49601428Y-67816428D01*
X49696666Y-67845000D01*
X49744285Y-67902142D01*
X49744285Y-68216428D01*
X50649047Y-68216428D02*
X50649047Y-67616428D01*
X50649047Y-68187857D02*
X50553809Y-68216428D01*
X50363333Y-68216428D01*
X50268095Y-68187857D01*
X50220476Y-68159285D01*
X50172857Y-68102142D01*
X50172857Y-67930714D01*
X50220476Y-67873571D01*
X50268095Y-67845000D01*
X50363333Y-67816428D01*
X50553809Y-67816428D01*
X50649047Y-67845000D01*
X97110571Y-98026571D02*
X97139142Y-97998000D01*
X97196285Y-97969428D01*
X97339142Y-97969428D01*
X97396285Y-97998000D01*
X97424857Y-98026571D01*
X97453428Y-98083714D01*
X97453428Y-98140857D01*
X97424857Y-98226571D01*
X97082000Y-98569428D01*
X97453428Y-98569428D01*
X48839523Y-68959428D02*
X48839523Y-69445142D01*
X48791904Y-69502285D01*
X48744285Y-69530857D01*
X48649047Y-69559428D01*
X48506190Y-69559428D01*
X48410952Y-69530857D01*
X48839523Y-69330857D02*
X48744285Y-69359428D01*
X48553809Y-69359428D01*
X48458571Y-69330857D01*
X48410952Y-69302285D01*
X48363333Y-69245142D01*
X48363333Y-69073714D01*
X48410952Y-69016571D01*
X48458571Y-68988000D01*
X48553809Y-68959428D01*
X48744285Y-68959428D01*
X48839523Y-68988000D01*
X49315714Y-68959428D02*
X49315714Y-69359428D01*
X49315714Y-69016571D02*
X49363333Y-68988000D01*
X49458571Y-68959428D01*
X49601428Y-68959428D01*
X49696666Y-68988000D01*
X49744285Y-69045142D01*
X49744285Y-69359428D01*
X50649047Y-69359428D02*
X50649047Y-68759428D01*
X50649047Y-69330857D02*
X50553809Y-69359428D01*
X50363333Y-69359428D01*
X50268095Y-69330857D01*
X50220476Y-69302285D01*
X50172857Y-69245142D01*
X50172857Y-69073714D01*
X50220476Y-69016571D01*
X50268095Y-68988000D01*
X50363333Y-68959428D01*
X50553809Y-68959428D01*
X50649047Y-68988000D01*
X62809523Y-90803428D02*
X62809523Y-91289142D01*
X62761904Y-91346285D01*
X62714285Y-91374857D01*
X62619047Y-91403428D01*
X62476190Y-91403428D01*
X62380952Y-91374857D01*
X62809523Y-91174857D02*
X62714285Y-91203428D01*
X62523809Y-91203428D01*
X62428571Y-91174857D01*
X62380952Y-91146285D01*
X62333333Y-91089142D01*
X62333333Y-90917714D01*
X62380952Y-90860571D01*
X62428571Y-90832000D01*
X62523809Y-90803428D01*
X62714285Y-90803428D01*
X62809523Y-90832000D01*
X63285714Y-90803428D02*
X63285714Y-91203428D01*
X63285714Y-90860571D02*
X63333333Y-90832000D01*
X63428571Y-90803428D01*
X63571428Y-90803428D01*
X63666666Y-90832000D01*
X63714285Y-90889142D01*
X63714285Y-91203428D01*
X64619047Y-91203428D02*
X64619047Y-90603428D01*
X64619047Y-91174857D02*
X64523809Y-91203428D01*
X64333333Y-91203428D01*
X64238095Y-91174857D01*
X64190476Y-91146285D01*
X64142857Y-91089142D01*
X64142857Y-90917714D01*
X64190476Y-90860571D01*
X64238095Y-90832000D01*
X64333333Y-90803428D01*
X64523809Y-90803428D01*
X64619047Y-90832000D01*
X101417619Y-48712380D02*
X101417619Y-47712380D01*
X101417619Y-48664761D02*
X101322380Y-48712380D01*
X101131904Y-48712380D01*
X101036666Y-48664761D01*
X100989047Y-48617142D01*
X100941428Y-48521904D01*
X100941428Y-48236190D01*
X100989047Y-48140952D01*
X101036666Y-48093333D01*
X101131904Y-48045714D01*
X101322380Y-48045714D01*
X101417619Y-48093333D01*
X102322380Y-48712380D02*
X102322380Y-48188571D01*
X102274761Y-48093333D01*
X102179523Y-48045714D01*
X101989047Y-48045714D01*
X101893809Y-48093333D01*
X102322380Y-48664761D02*
X102227142Y-48712380D01*
X101989047Y-48712380D01*
X101893809Y-48664761D01*
X101846190Y-48569523D01*
X101846190Y-48474285D01*
X101893809Y-48379047D01*
X101989047Y-48331428D01*
X102227142Y-48331428D01*
X102322380Y-48283809D01*
X102655714Y-48045714D02*
X103036666Y-48045714D01*
X102798571Y-47712380D02*
X102798571Y-48569523D01*
X102846190Y-48664761D01*
X102941428Y-48712380D01*
X103036666Y-48712380D01*
X103798571Y-48712380D02*
X103798571Y-48188571D01*
X103750952Y-48093333D01*
X103655714Y-48045714D01*
X103465238Y-48045714D01*
X103370000Y-48093333D01*
X103798571Y-48664761D02*
X103703333Y-48712380D01*
X103465238Y-48712380D01*
X103370000Y-48664761D01*
X103322380Y-48569523D01*
X103322380Y-48474285D01*
X103370000Y-48379047D01*
X103465238Y-48331428D01*
X103703333Y-48331428D01*
X103798571Y-48283809D01*
X104798571Y-48712380D02*
X104227142Y-48712380D01*
X104512857Y-48712380D02*
X104512857Y-47712380D01*
X104417619Y-47855238D01*
X104322380Y-47950476D01*
X104227142Y-47998095D01*
X72426666Y-99639428D02*
X72960000Y-99639428D01*
X72693333Y-100020380D02*
X72693333Y-99258476D01*
X73226666Y-99020380D02*
X73660000Y-99020380D01*
X73426666Y-99401333D01*
X73526666Y-99401333D01*
X73593333Y-99448952D01*
X73626666Y-99496571D01*
X73660000Y-99591809D01*
X73660000Y-99829904D01*
X73626666Y-99925142D01*
X73593333Y-99972761D01*
X73526666Y-100020380D01*
X73326666Y-100020380D01*
X73260000Y-99972761D01*
X73226666Y-99925142D01*
X73860000Y-99020380D02*
X74093333Y-100020380D01*
X74326666Y-99020380D01*
X74493333Y-99020380D02*
X74926666Y-99020380D01*
X74693333Y-99401333D01*
X74793333Y-99401333D01*
X74860000Y-99448952D01*
X74893333Y-99496571D01*
X74926666Y-99591809D01*
X74926666Y-99829904D01*
X74893333Y-99925142D01*
X74860000Y-99972761D01*
X74793333Y-100020380D01*
X74593333Y-100020380D01*
X74526666Y-99972761D01*
X74493333Y-99925142D01*
X41438666Y-66111428D02*
X41972000Y-66111428D01*
X41705333Y-66492380D02*
X41705333Y-65730476D01*
X42238666Y-65492380D02*
X42672000Y-65492380D01*
X42438666Y-65873333D01*
X42538666Y-65873333D01*
X42605333Y-65920952D01*
X42638666Y-65968571D01*
X42672000Y-66063809D01*
X42672000Y-66301904D01*
X42638666Y-66397142D01*
X42605333Y-66444761D01*
X42538666Y-66492380D01*
X42338666Y-66492380D01*
X42272000Y-66444761D01*
X42238666Y-66397142D01*
X42872000Y-65492380D02*
X43105333Y-66492380D01*
X43338666Y-65492380D01*
X43505333Y-65492380D02*
X43938666Y-65492380D01*
X43705333Y-65873333D01*
X43805333Y-65873333D01*
X43872000Y-65920952D01*
X43905333Y-65968571D01*
X43938666Y-66063809D01*
X43938666Y-66301904D01*
X43905333Y-66397142D01*
X43872000Y-66444761D01*
X43805333Y-66492380D01*
X43605333Y-66492380D01*
X43538666Y-66444761D01*
X43505333Y-66397142D01*
X95286666Y-99639428D02*
X95820000Y-99639428D01*
X95553333Y-100020380D02*
X95553333Y-99258476D01*
X96086666Y-99020380D02*
X96520000Y-99020380D01*
X96286666Y-99401333D01*
X96386666Y-99401333D01*
X96453333Y-99448952D01*
X96486666Y-99496571D01*
X96520000Y-99591809D01*
X96520000Y-99829904D01*
X96486666Y-99925142D01*
X96453333Y-99972761D01*
X96386666Y-100020380D01*
X96186666Y-100020380D01*
X96120000Y-99972761D01*
X96086666Y-99925142D01*
X96720000Y-99020380D02*
X96953333Y-100020380D01*
X97186666Y-99020380D01*
X97353333Y-99020380D02*
X97786666Y-99020380D01*
X97553333Y-99401333D01*
X97653333Y-99401333D01*
X97720000Y-99448952D01*
X97753333Y-99496571D01*
X97786666Y-99591809D01*
X97786666Y-99829904D01*
X97753333Y-99925142D01*
X97720000Y-99972761D01*
X97653333Y-100020380D01*
X97453333Y-100020380D01*
X97386666Y-99972761D01*
X97353333Y-99925142D01*
X117146928Y-103651095D02*
X116746928Y-103032047D01*
X116461214Y-103651095D02*
X116461214Y-102351095D01*
X116918357Y-102351095D01*
X117032642Y-102413000D01*
X117089785Y-102474904D01*
X117146928Y-102598714D01*
X117146928Y-102784428D01*
X117089785Y-102908238D01*
X117032642Y-102970142D01*
X116918357Y-103032047D01*
X116461214Y-103032047D01*
X118118357Y-103589190D02*
X118004071Y-103651095D01*
X117775500Y-103651095D01*
X117661214Y-103589190D01*
X117604071Y-103465380D01*
X117604071Y-102970142D01*
X117661214Y-102846333D01*
X117775500Y-102784428D01*
X118004071Y-102784428D01*
X118118357Y-102846333D01*
X118175500Y-102970142D01*
X118175500Y-103093952D01*
X117604071Y-103217761D01*
X118575500Y-102784428D02*
X118861214Y-103651095D01*
X119146928Y-102784428D01*
X119604071Y-103527285D02*
X119661214Y-103589190D01*
X119604071Y-103651095D01*
X119546928Y-103589190D01*
X119604071Y-103527285D01*
X119604071Y-103651095D01*
X119604071Y-102846333D02*
X119661214Y-102908238D01*
X119604071Y-102970142D01*
X119546928Y-102908238D01*
X119604071Y-102846333D01*
X119604071Y-102970142D01*
X120804071Y-103651095D02*
X120118357Y-103651095D01*
X120461214Y-103651095D02*
X120461214Y-102351095D01*
X120346928Y-102536809D01*
X120232642Y-102660619D01*
X120118357Y-102722523D01*
X121318357Y-103527285D02*
X121375500Y-103589190D01*
X121318357Y-103651095D01*
X121261214Y-103589190D01*
X121318357Y-103527285D01*
X121318357Y-103651095D01*
X122118357Y-102351095D02*
X122232642Y-102351095D01*
X122346928Y-102413000D01*
X122404071Y-102474904D01*
X122461214Y-102598714D01*
X122518357Y-102846333D01*
X122518357Y-103155857D01*
X122461214Y-103403476D01*
X122404071Y-103527285D01*
X122346928Y-103589190D01*
X122232642Y-103651095D01*
X122118357Y-103651095D01*
X122004071Y-103589190D01*
X121946928Y-103527285D01*
X121889785Y-103403476D01*
X121832642Y-103155857D01*
X121832642Y-102846333D01*
X121889785Y-102598714D01*
X121946928Y-102474904D01*
X122004071Y-102413000D01*
X122118357Y-102351095D01*
X116461214Y-105063142D02*
X116861214Y-105063142D01*
X117032642Y-105744095D02*
X116461214Y-105744095D01*
X116461214Y-104444095D01*
X117032642Y-104444095D01*
X117946928Y-105063142D02*
X118118357Y-105125047D01*
X118175500Y-105186952D01*
X118232642Y-105310761D01*
X118232642Y-105496476D01*
X118175500Y-105620285D01*
X118118357Y-105682190D01*
X118004071Y-105744095D01*
X117546928Y-105744095D01*
X117546928Y-104444095D01*
X117946928Y-104444095D01*
X118061214Y-104506000D01*
X118118357Y-104567904D01*
X118175500Y-104691714D01*
X118175500Y-104815523D01*
X118118357Y-104939333D01*
X118061214Y-105001238D01*
X117946928Y-105063142D01*
X117546928Y-105063142D01*
X118689785Y-105372666D02*
X119261214Y-105372666D01*
X118575500Y-105744095D02*
X118975500Y-104444095D01*
X119375500Y-105744095D01*
X119661214Y-104444095D02*
X120461214Y-104444095D01*
X119661214Y-105744095D01*
X120461214Y-105744095D01*
X121775500Y-105372666D02*
X122346928Y-105372666D01*
X121661214Y-105744095D02*
X122061214Y-104444095D01*
X122461214Y-105744095D01*
X123375500Y-105744095D02*
X123375500Y-104444095D01*
X123375500Y-105682190D02*
X123261214Y-105744095D01*
X123032642Y-105744095D01*
X122918357Y-105682190D01*
X122861214Y-105620285D01*
X122804071Y-105496476D01*
X122804071Y-105125047D01*
X122861214Y-105001238D01*
X122918357Y-104939333D01*
X123032642Y-104877428D01*
X123261214Y-104877428D01*
X123375500Y-104939333D01*
X124461214Y-105744095D02*
X124461214Y-105063142D01*
X124404071Y-104939333D01*
X124289785Y-104877428D01*
X124061214Y-104877428D01*
X123946928Y-104939333D01*
X124461214Y-105682190D02*
X124346928Y-105744095D01*
X124061214Y-105744095D01*
X123946928Y-105682190D01*
X123889785Y-105558380D01*
X123889785Y-105434571D01*
X123946928Y-105310761D01*
X124061214Y-105248857D01*
X124346928Y-105248857D01*
X124461214Y-105186952D01*
X125032642Y-104877428D02*
X125032642Y-106177428D01*
X125032642Y-104939333D02*
X125146928Y-104877428D01*
X125375500Y-104877428D01*
X125489785Y-104939333D01*
X125546928Y-105001238D01*
X125604071Y-105125047D01*
X125604071Y-105496476D01*
X125546928Y-105620285D01*
X125489785Y-105682190D01*
X125375500Y-105744095D01*
X125146928Y-105744095D01*
X125032642Y-105682190D01*
X125946928Y-104877428D02*
X126404071Y-104877428D01*
X126118357Y-104444095D02*
X126118357Y-105558380D01*
X126175500Y-105682190D01*
X126289785Y-105744095D01*
X126404071Y-105744095D01*
X126975500Y-105744095D02*
X126861214Y-105682190D01*
X126804071Y-105620285D01*
X126746928Y-105496476D01*
X126746928Y-105125047D01*
X126804071Y-105001238D01*
X126861214Y-104939333D01*
X126975500Y-104877428D01*
X127146928Y-104877428D01*
X127261214Y-104939333D01*
X127318357Y-105001238D01*
X127375500Y-105125047D01*
X127375500Y-105496476D01*
X127318357Y-105620285D01*
X127261214Y-105682190D01*
X127146928Y-105744095D01*
X126975500Y-105744095D01*
X127889785Y-105744095D02*
X127889785Y-104877428D01*
X127889785Y-105125047D02*
X127946928Y-105001238D01*
X128004071Y-104939333D01*
X128118357Y-104877428D01*
X128232642Y-104877428D01*
X117089785Y-107837095D02*
X116404071Y-107837095D01*
X116746928Y-107837095D02*
X116746928Y-106537095D01*
X116632642Y-106722809D01*
X116518357Y-106846619D01*
X116404071Y-106908523D01*
X117489785Y-106537095D02*
X118232642Y-106537095D01*
X117832642Y-107032333D01*
X118004071Y-107032333D01*
X118118357Y-107094238D01*
X118175500Y-107156142D01*
X118232642Y-107279952D01*
X118232642Y-107589476D01*
X118175500Y-107713285D01*
X118118357Y-107775190D01*
X118004071Y-107837095D01*
X117661214Y-107837095D01*
X117546928Y-107775190D01*
X117489785Y-107713285D01*
X118746928Y-107713285D02*
X118804071Y-107775190D01*
X118746928Y-107837095D01*
X118689785Y-107775190D01*
X118746928Y-107713285D01*
X118746928Y-107837095D01*
X119946928Y-107837095D02*
X119261214Y-107837095D01*
X119604071Y-107837095D02*
X119604071Y-106537095D01*
X119489785Y-106722809D01*
X119375500Y-106846619D01*
X119261214Y-106908523D01*
X120404071Y-106660904D02*
X120461214Y-106599000D01*
X120575500Y-106537095D01*
X120861214Y-106537095D01*
X120975500Y-106599000D01*
X121032642Y-106660904D01*
X121089785Y-106784714D01*
X121089785Y-106908523D01*
X121032642Y-107094238D01*
X120346928Y-107837095D01*
X121089785Y-107837095D01*
X121604071Y-107713285D02*
X121661214Y-107775190D01*
X121604071Y-107837095D01*
X121546928Y-107775190D01*
X121604071Y-107713285D01*
X121604071Y-107837095D01*
X122118357Y-106660904D02*
X122175500Y-106599000D01*
X122289785Y-106537095D01*
X122575500Y-106537095D01*
X122689785Y-106599000D01*
X122746928Y-106660904D01*
X122804071Y-106784714D01*
X122804071Y-106908523D01*
X122746928Y-107094238D01*
X122061214Y-107837095D01*
X122804071Y-107837095D01*
X123546928Y-106537095D02*
X123661214Y-106537095D01*
X123775500Y-106599000D01*
X123832642Y-106660904D01*
X123889785Y-106784714D01*
X123946928Y-107032333D01*
X123946928Y-107341857D01*
X123889785Y-107589476D01*
X123832642Y-107713285D01*
X123775500Y-107775190D01*
X123661214Y-107837095D01*
X123546928Y-107837095D01*
X123432642Y-107775190D01*
X123375500Y-107713285D01*
X123318357Y-107589476D01*
X123261214Y-107341857D01*
X123261214Y-107032333D01*
X123318357Y-106784714D01*
X123375500Y-106660904D01*
X123432642Y-106599000D01*
X123546928Y-106537095D01*
X124404071Y-106660904D02*
X124461214Y-106599000D01*
X124575500Y-106537095D01*
X124861214Y-106537095D01*
X124975500Y-106599000D01*
X125032642Y-106660904D01*
X125089785Y-106784714D01*
X125089785Y-106908523D01*
X125032642Y-107094238D01*
X124346928Y-107837095D01*
X125089785Y-107837095D01*
X125546928Y-106660904D02*
X125604071Y-106599000D01*
X125718357Y-106537095D01*
X126004071Y-106537095D01*
X126118357Y-106599000D01*
X126175500Y-106660904D01*
X126232642Y-106784714D01*
X126232642Y-106908523D01*
X126175500Y-107094238D01*
X125489785Y-107837095D01*
X126232642Y-107837095D01*
X130572095Y-70683428D02*
X131334000Y-70683428D01*
X130953047Y-71064380D02*
X130953047Y-70302476D01*
X132334000Y-71064380D02*
X131762571Y-71064380D01*
X132048285Y-71064380D02*
X132048285Y-70064380D01*
X131953047Y-70207238D01*
X131857809Y-70302476D01*
X131762571Y-70350095D01*
X132714952Y-70159619D02*
X132762571Y-70112000D01*
X132857809Y-70064380D01*
X133095904Y-70064380D01*
X133191142Y-70112000D01*
X133238761Y-70159619D01*
X133286380Y-70254857D01*
X133286380Y-70350095D01*
X133238761Y-70492952D01*
X132667333Y-71064380D01*
X133286380Y-71064380D01*
X133572095Y-70064380D02*
X133905428Y-71064380D01*
X134238761Y-70064380D01*
X41386285Y-71191428D02*
X42148190Y-71191428D01*
X41767238Y-71572380D02*
X41767238Y-70810476D01*
X43100571Y-70572380D02*
X42624380Y-70572380D01*
X42576761Y-71048571D01*
X42624380Y-71000952D01*
X42719619Y-70953333D01*
X42957714Y-70953333D01*
X43052952Y-71000952D01*
X43100571Y-71048571D01*
X43148190Y-71143809D01*
X43148190Y-71381904D01*
X43100571Y-71477142D01*
X43052952Y-71524761D01*
X42957714Y-71572380D01*
X42719619Y-71572380D01*
X42624380Y-71524761D01*
X42576761Y-71477142D01*
X43433904Y-70572380D02*
X43767238Y-71572380D01*
X44100571Y-70572380D01*
X56770238Y-69000666D02*
X57246428Y-69000666D01*
X56675000Y-69286380D02*
X57008333Y-68286380D01*
X57341666Y-69286380D01*
X57675000Y-69286380D02*
X57675000Y-68286380D01*
X57913095Y-68286380D01*
X58055952Y-68334000D01*
X58151190Y-68429238D01*
X58198809Y-68524476D01*
X58246428Y-68714952D01*
X58246428Y-68857809D01*
X58198809Y-69048285D01*
X58151190Y-69143523D01*
X58055952Y-69238761D01*
X57913095Y-69286380D01*
X57675000Y-69286380D01*
X58722619Y-69286380D02*
X58913095Y-69286380D01*
X59008333Y-69238761D01*
X59055952Y-69191142D01*
X59151190Y-69048285D01*
X59198809Y-68857809D01*
X59198809Y-68476857D01*
X59151190Y-68381619D01*
X59103571Y-68334000D01*
X59008333Y-68286380D01*
X58817857Y-68286380D01*
X58722619Y-68334000D01*
X58675000Y-68381619D01*
X58627380Y-68476857D01*
X58627380Y-68714952D01*
X58675000Y-68810190D01*
X58722619Y-68857809D01*
X58817857Y-68905428D01*
X59008333Y-68905428D01*
X59103571Y-68857809D01*
X59151190Y-68810190D01*
X59198809Y-68714952D01*
X59579761Y-68381619D02*
X59627380Y-68334000D01*
X59722619Y-68286380D01*
X59960714Y-68286380D01*
X60055952Y-68334000D01*
X60103571Y-68381619D01*
X60151190Y-68476857D01*
X60151190Y-68572095D01*
X60103571Y-68714952D01*
X59532142Y-69286380D01*
X60151190Y-69286380D01*
X60532142Y-68381619D02*
X60579761Y-68334000D01*
X60675000Y-68286380D01*
X60913095Y-68286380D01*
X61008333Y-68334000D01*
X61055952Y-68381619D01*
X61103571Y-68476857D01*
X61103571Y-68572095D01*
X61055952Y-68714952D01*
X60484523Y-69286380D01*
X61103571Y-69286380D01*
X61960714Y-68286380D02*
X61770238Y-68286380D01*
X61675000Y-68334000D01*
X61627380Y-68381619D01*
X61532142Y-68524476D01*
X61484523Y-68714952D01*
X61484523Y-69095904D01*
X61532142Y-69191142D01*
X61579761Y-69238761D01*
X61675000Y-69286380D01*
X61865476Y-69286380D01*
X61960714Y-69238761D01*
X62008333Y-69191142D01*
X62055952Y-69095904D01*
X62055952Y-68857809D01*
X62008333Y-68762571D01*
X61960714Y-68714952D01*
X61865476Y-68667333D01*
X61675000Y-68667333D01*
X61579761Y-68714952D01*
X61532142Y-68762571D01*
X61484523Y-68857809D01*
X63198809Y-68381619D02*
X63246428Y-68334000D01*
X63341666Y-68286380D01*
X63579761Y-68286380D01*
X63675000Y-68334000D01*
X63722619Y-68381619D01*
X63770238Y-68476857D01*
X63770238Y-68572095D01*
X63722619Y-68714952D01*
X63151190Y-69286380D01*
X63770238Y-69286380D01*
X64198809Y-68905428D02*
X64960714Y-68905428D01*
X65865476Y-69238761D02*
X65770238Y-69286380D01*
X65579761Y-69286380D01*
X65484523Y-69238761D01*
X65436904Y-69191142D01*
X65389285Y-69095904D01*
X65389285Y-68810190D01*
X65436904Y-68714952D01*
X65484523Y-68667333D01*
X65579761Y-68619714D01*
X65770238Y-68619714D01*
X65865476Y-68667333D01*
X66294047Y-69286380D02*
X66294047Y-68286380D01*
X66722619Y-69286380D02*
X66722619Y-68762571D01*
X66675000Y-68667333D01*
X66579761Y-68619714D01*
X66436904Y-68619714D01*
X66341666Y-68667333D01*
X66294047Y-68714952D01*
X67913095Y-69000666D02*
X68389285Y-69000666D01*
X67817857Y-69286380D02*
X68151190Y-68286380D01*
X68484523Y-69286380D01*
X68817857Y-69286380D02*
X68817857Y-68286380D01*
X69055952Y-68286380D01*
X69198809Y-68334000D01*
X69294047Y-68429238D01*
X69341666Y-68524476D01*
X69389285Y-68714952D01*
X69389285Y-68857809D01*
X69341666Y-69048285D01*
X69294047Y-69143523D01*
X69198809Y-69238761D01*
X69055952Y-69286380D01*
X68817857Y-69286380D01*
X70389285Y-69191142D02*
X70341666Y-69238761D01*
X70198809Y-69286380D01*
X70103571Y-69286380D01*
X69960714Y-69238761D01*
X69865476Y-69143523D01*
X69817857Y-69048285D01*
X69770238Y-68857809D01*
X69770238Y-68714952D01*
X69817857Y-68524476D01*
X69865476Y-68429238D01*
X69960714Y-68334000D01*
X70103571Y-68286380D01*
X70198809Y-68286380D01*
X70341666Y-68334000D01*
X70389285Y-68381619D01*
X71579761Y-69286380D02*
X71579761Y-68619714D01*
X71579761Y-68714952D02*
X71627380Y-68667333D01*
X71722619Y-68619714D01*
X71865476Y-68619714D01*
X71960714Y-68667333D01*
X72008333Y-68762571D01*
X72008333Y-69286380D01*
X72008333Y-68762571D02*
X72055952Y-68667333D01*
X72151190Y-68619714D01*
X72294047Y-68619714D01*
X72389285Y-68667333D01*
X72436904Y-68762571D01*
X72436904Y-69286380D01*
X73055952Y-69286380D02*
X72960714Y-69238761D01*
X72913095Y-69191142D01*
X72865476Y-69095904D01*
X72865476Y-68810190D01*
X72913095Y-68714952D01*
X72960714Y-68667333D01*
X73055952Y-68619714D01*
X73198809Y-68619714D01*
X73294047Y-68667333D01*
X73341666Y-68714952D01*
X73389285Y-68810190D01*
X73389285Y-69095904D01*
X73341666Y-69191142D01*
X73294047Y-69238761D01*
X73198809Y-69286380D01*
X73055952Y-69286380D01*
X74246428Y-69286380D02*
X74246428Y-68286380D01*
X74246428Y-69238761D02*
X74151190Y-69286380D01*
X73960714Y-69286380D01*
X73865476Y-69238761D01*
X73817857Y-69191142D01*
X73770238Y-69095904D01*
X73770238Y-68810190D01*
X73817857Y-68714952D01*
X73865476Y-68667333D01*
X73960714Y-68619714D01*
X74151190Y-68619714D01*
X74246428Y-68667333D01*
X75151190Y-68619714D02*
X75151190Y-69286380D01*
X74722619Y-68619714D02*
X74722619Y-69143523D01*
X74770238Y-69238761D01*
X74865476Y-69286380D01*
X75008333Y-69286380D01*
X75103571Y-69238761D01*
X75151190Y-69191142D01*
X75770238Y-69286380D02*
X75675000Y-69238761D01*
X75627380Y-69143523D01*
X75627380Y-68286380D01*
X76532142Y-69238761D02*
X76436904Y-69286380D01*
X76246428Y-69286380D01*
X76151190Y-69238761D01*
X76103571Y-69143523D01*
X76103571Y-68762571D01*
X76151190Y-68667333D01*
X76246428Y-68619714D01*
X76436904Y-68619714D01*
X76532142Y-68667333D01*
X76579761Y-68762571D01*
X76579761Y-68857809D01*
X76103571Y-68953047D01*
X55881238Y-84240666D02*
X56357428Y-84240666D01*
X55786000Y-84526380D02*
X56119333Y-83526380D01*
X56452666Y-84526380D01*
X56786000Y-84526380D02*
X56786000Y-83526380D01*
X57024095Y-83526380D01*
X57166952Y-83574000D01*
X57262190Y-83669238D01*
X57309809Y-83764476D01*
X57357428Y-83954952D01*
X57357428Y-84097809D01*
X57309809Y-84288285D01*
X57262190Y-84383523D01*
X57166952Y-84478761D01*
X57024095Y-84526380D01*
X56786000Y-84526380D01*
X57833619Y-84526380D02*
X58024095Y-84526380D01*
X58119333Y-84478761D01*
X58166952Y-84431142D01*
X58262190Y-84288285D01*
X58309809Y-84097809D01*
X58309809Y-83716857D01*
X58262190Y-83621619D01*
X58214571Y-83574000D01*
X58119333Y-83526380D01*
X57928857Y-83526380D01*
X57833619Y-83574000D01*
X57786000Y-83621619D01*
X57738380Y-83716857D01*
X57738380Y-83954952D01*
X57786000Y-84050190D01*
X57833619Y-84097809D01*
X57928857Y-84145428D01*
X58119333Y-84145428D01*
X58214571Y-84097809D01*
X58262190Y-84050190D01*
X58309809Y-83954952D01*
X58643142Y-83526380D02*
X59309809Y-83526380D01*
X58881238Y-84526380D01*
X60119333Y-83526380D02*
X59928857Y-83526380D01*
X59833619Y-83574000D01*
X59786000Y-83621619D01*
X59690761Y-83764476D01*
X59643142Y-83954952D01*
X59643142Y-84335904D01*
X59690761Y-84431142D01*
X59738380Y-84478761D01*
X59833619Y-84526380D01*
X60024095Y-84526380D01*
X60119333Y-84478761D01*
X60166952Y-84431142D01*
X60214571Y-84335904D01*
X60214571Y-84097809D01*
X60166952Y-84002571D01*
X60119333Y-83954952D01*
X60024095Y-83907333D01*
X59833619Y-83907333D01*
X59738380Y-83954952D01*
X59690761Y-84002571D01*
X59643142Y-84097809D01*
X60547904Y-83526380D02*
X61214571Y-83526380D01*
X60786000Y-84526380D01*
X62309809Y-83621619D02*
X62357428Y-83574000D01*
X62452666Y-83526380D01*
X62690761Y-83526380D01*
X62786000Y-83574000D01*
X62833619Y-83621619D01*
X62881238Y-83716857D01*
X62881238Y-83812095D01*
X62833619Y-83954952D01*
X62262190Y-84526380D01*
X62881238Y-84526380D01*
X63309809Y-84145428D02*
X64071714Y-84145428D01*
X64976476Y-84478761D02*
X64881238Y-84526380D01*
X64690761Y-84526380D01*
X64595523Y-84478761D01*
X64547904Y-84431142D01*
X64500285Y-84335904D01*
X64500285Y-84050190D01*
X64547904Y-83954952D01*
X64595523Y-83907333D01*
X64690761Y-83859714D01*
X64881238Y-83859714D01*
X64976476Y-83907333D01*
X65405047Y-84526380D02*
X65405047Y-83526380D01*
X65833619Y-84526380D02*
X65833619Y-84002571D01*
X65786000Y-83907333D01*
X65690761Y-83859714D01*
X65547904Y-83859714D01*
X65452666Y-83907333D01*
X65405047Y-83954952D01*
X67071714Y-84526380D02*
X67071714Y-83526380D01*
X67309809Y-83526380D01*
X67452666Y-83574000D01*
X67547904Y-83669238D01*
X67595523Y-83764476D01*
X67643142Y-83954952D01*
X67643142Y-84097809D01*
X67595523Y-84288285D01*
X67547904Y-84383523D01*
X67452666Y-84478761D01*
X67309809Y-84526380D01*
X67071714Y-84526380D01*
X68024095Y-84240666D02*
X68500285Y-84240666D01*
X67928857Y-84526380D02*
X68262190Y-83526380D01*
X68595523Y-84526380D01*
X69500285Y-84431142D02*
X69452666Y-84478761D01*
X69309809Y-84526380D01*
X69214571Y-84526380D01*
X69071714Y-84478761D01*
X68976476Y-84383523D01*
X68928857Y-84288285D01*
X68881238Y-84097809D01*
X68881238Y-83954952D01*
X68928857Y-83764476D01*
X68976476Y-83669238D01*
X69071714Y-83574000D01*
X69214571Y-83526380D01*
X69309809Y-83526380D01*
X69452666Y-83574000D01*
X69500285Y-83621619D01*
X70690761Y-84526380D02*
X70690761Y-83859714D01*
X70690761Y-83954952D02*
X70738380Y-83907333D01*
X70833619Y-83859714D01*
X70976476Y-83859714D01*
X71071714Y-83907333D01*
X71119333Y-84002571D01*
X71119333Y-84526380D01*
X71119333Y-84002571D02*
X71166952Y-83907333D01*
X71262190Y-83859714D01*
X71405047Y-83859714D01*
X71500285Y-83907333D01*
X71547904Y-84002571D01*
X71547904Y-84526380D01*
X72166952Y-84526380D02*
X72071714Y-84478761D01*
X72024095Y-84431142D01*
X71976476Y-84335904D01*
X71976476Y-84050190D01*
X72024095Y-83954952D01*
X72071714Y-83907333D01*
X72166952Y-83859714D01*
X72309809Y-83859714D01*
X72405047Y-83907333D01*
X72452666Y-83954952D01*
X72500285Y-84050190D01*
X72500285Y-84335904D01*
X72452666Y-84431142D01*
X72405047Y-84478761D01*
X72309809Y-84526380D01*
X72166952Y-84526380D01*
X73357428Y-84526380D02*
X73357428Y-83526380D01*
X73357428Y-84478761D02*
X73262190Y-84526380D01*
X73071714Y-84526380D01*
X72976476Y-84478761D01*
X72928857Y-84431142D01*
X72881238Y-84335904D01*
X72881238Y-84050190D01*
X72928857Y-83954952D01*
X72976476Y-83907333D01*
X73071714Y-83859714D01*
X73262190Y-83859714D01*
X73357428Y-83907333D01*
X74262190Y-83859714D02*
X74262190Y-84526380D01*
X73833619Y-83859714D02*
X73833619Y-84383523D01*
X73881238Y-84478761D01*
X73976476Y-84526380D01*
X74119333Y-84526380D01*
X74214571Y-84478761D01*
X74262190Y-84431142D01*
X74881238Y-84526380D02*
X74786000Y-84478761D01*
X74738380Y-84383523D01*
X74738380Y-83526380D01*
X75643142Y-84478761D02*
X75547904Y-84526380D01*
X75357428Y-84526380D01*
X75262190Y-84478761D01*
X75214571Y-84383523D01*
X75214571Y-84002571D01*
X75262190Y-83907333D01*
X75357428Y-83859714D01*
X75547904Y-83859714D01*
X75643142Y-83907333D01*
X75690761Y-84002571D01*
X75690761Y-84097809D01*
X75214571Y-84193047D01*
X113677714Y-96791428D02*
X113334857Y-96791428D01*
X113506285Y-96791428D02*
X113506285Y-96191428D01*
X113449142Y-96277142D01*
X113392000Y-96334285D01*
X113334857Y-96362857D01*
X114249142Y-96791428D02*
X113906285Y-96791428D01*
X114077714Y-96791428D02*
X114077714Y-96191428D01*
X114020571Y-96277142D01*
X113963428Y-96334285D01*
X113906285Y-96362857D01*
X48839523Y-61339428D02*
X48839523Y-61825142D01*
X48791904Y-61882285D01*
X48744285Y-61910857D01*
X48649047Y-61939428D01*
X48506190Y-61939428D01*
X48410952Y-61910857D01*
X48839523Y-61710857D02*
X48744285Y-61739428D01*
X48553809Y-61739428D01*
X48458571Y-61710857D01*
X48410952Y-61682285D01*
X48363333Y-61625142D01*
X48363333Y-61453714D01*
X48410952Y-61396571D01*
X48458571Y-61368000D01*
X48553809Y-61339428D01*
X48744285Y-61339428D01*
X48839523Y-61368000D01*
X49315714Y-61339428D02*
X49315714Y-61739428D01*
X49315714Y-61396571D02*
X49363333Y-61368000D01*
X49458571Y-61339428D01*
X49601428Y-61339428D01*
X49696666Y-61368000D01*
X49744285Y-61425142D01*
X49744285Y-61739428D01*
X50649047Y-61739428D02*
X50649047Y-61139428D01*
X50649047Y-61710857D02*
X50553809Y-61739428D01*
X50363333Y-61739428D01*
X50268095Y-61710857D01*
X50220476Y-61682285D01*
X50172857Y-61625142D01*
X50172857Y-61453714D01*
X50220476Y-61396571D01*
X50268095Y-61368000D01*
X50363333Y-61339428D01*
X50553809Y-61339428D01*
X50649047Y-61368000D01*
X100909523Y-94105428D02*
X100909523Y-94591142D01*
X100861904Y-94648285D01*
X100814285Y-94676857D01*
X100719047Y-94705428D01*
X100576190Y-94705428D01*
X100480952Y-94676857D01*
X100909523Y-94476857D02*
X100814285Y-94505428D01*
X100623809Y-94505428D01*
X100528571Y-94476857D01*
X100480952Y-94448285D01*
X100433333Y-94391142D01*
X100433333Y-94219714D01*
X100480952Y-94162571D01*
X100528571Y-94134000D01*
X100623809Y-94105428D01*
X100814285Y-94105428D01*
X100909523Y-94134000D01*
X101385714Y-94105428D02*
X101385714Y-94505428D01*
X101385714Y-94162571D02*
X101433333Y-94134000D01*
X101528571Y-94105428D01*
X101671428Y-94105428D01*
X101766666Y-94134000D01*
X101814285Y-94191142D01*
X101814285Y-94505428D01*
X102719047Y-94505428D02*
X102719047Y-93905428D01*
X102719047Y-94476857D02*
X102623809Y-94505428D01*
X102433333Y-94505428D01*
X102338095Y-94476857D01*
X102290476Y-94448285D01*
X102242857Y-94391142D01*
X102242857Y-94219714D01*
X102290476Y-94162571D01*
X102338095Y-94134000D01*
X102433333Y-94105428D01*
X102623809Y-94105428D01*
X102719047Y-94134000D01*
X44113428Y-96791428D02*
X43770571Y-96791428D01*
X43942000Y-96791428D02*
X43942000Y-96191428D01*
X43884857Y-96277142D01*
X43827714Y-96334285D01*
X43770571Y-96362857D01*
X43770571Y-98407571D02*
X43799142Y-98379000D01*
X43856285Y-98350428D01*
X43999142Y-98350428D01*
X44056285Y-98379000D01*
X44084857Y-98407571D01*
X44113428Y-98464714D01*
X44113428Y-98521857D01*
X44084857Y-98607571D01*
X43742000Y-98950428D01*
X44113428Y-98950428D01*
X113677714Y-99331428D02*
X113334857Y-99331428D01*
X113506285Y-99331428D02*
X113506285Y-98731428D01*
X113449142Y-98817142D01*
X113392000Y-98874285D01*
X113334857Y-98902857D01*
X113906285Y-98788571D02*
X113934857Y-98760000D01*
X113992000Y-98731428D01*
X114134857Y-98731428D01*
X114192000Y-98760000D01*
X114220571Y-98788571D01*
X114249142Y-98845714D01*
X114249142Y-98902857D01*
X114220571Y-98988571D01*
X113877714Y-99331428D01*
X114249142Y-99331428D01*
X48839523Y-60196428D02*
X48839523Y-60682142D01*
X48791904Y-60739285D01*
X48744285Y-60767857D01*
X48649047Y-60796428D01*
X48506190Y-60796428D01*
X48410952Y-60767857D01*
X48839523Y-60567857D02*
X48744285Y-60596428D01*
X48553809Y-60596428D01*
X48458571Y-60567857D01*
X48410952Y-60539285D01*
X48363333Y-60482142D01*
X48363333Y-60310714D01*
X48410952Y-60253571D01*
X48458571Y-60225000D01*
X48553809Y-60196428D01*
X48744285Y-60196428D01*
X48839523Y-60225000D01*
X49315714Y-60196428D02*
X49315714Y-60596428D01*
X49315714Y-60253571D02*
X49363333Y-60225000D01*
X49458571Y-60196428D01*
X49601428Y-60196428D01*
X49696666Y-60225000D01*
X49744285Y-60282142D01*
X49744285Y-60596428D01*
X50649047Y-60596428D02*
X50649047Y-59996428D01*
X50649047Y-60567857D02*
X50553809Y-60596428D01*
X50363333Y-60596428D01*
X50268095Y-60567857D01*
X50220476Y-60539285D01*
X50172857Y-60482142D01*
X50172857Y-60310714D01*
X50220476Y-60253571D01*
X50268095Y-60225000D01*
X50363333Y-60196428D01*
X50553809Y-60196428D01*
X50649047Y-60225000D01*
X66469285Y-76493666D02*
X66945476Y-76493666D01*
X66374047Y-76779380D02*
X66707380Y-75779380D01*
X67040714Y-76779380D01*
X67374047Y-76779380D02*
X67374047Y-75779380D01*
X67612142Y-75779380D01*
X67755000Y-75827000D01*
X67850238Y-75922238D01*
X67897857Y-76017476D01*
X67945476Y-76207952D01*
X67945476Y-76350809D01*
X67897857Y-76541285D01*
X67850238Y-76636523D01*
X67755000Y-76731761D01*
X67612142Y-76779380D01*
X67374047Y-76779380D01*
X69088333Y-75731761D02*
X68231190Y-77017476D01*
X69421666Y-76779380D02*
X69421666Y-75779380D01*
X69659761Y-75779380D01*
X69802619Y-75827000D01*
X69897857Y-75922238D01*
X69945476Y-76017476D01*
X69993095Y-76207952D01*
X69993095Y-76350809D01*
X69945476Y-76541285D01*
X69897857Y-76636523D01*
X69802619Y-76731761D01*
X69659761Y-76779380D01*
X69421666Y-76779380D01*
X70374047Y-76493666D02*
X70850238Y-76493666D01*
X70278809Y-76779380D02*
X70612142Y-75779380D01*
X70945476Y-76779380D01*
X72040714Y-76779380D02*
X72040714Y-76112714D01*
X72040714Y-76207952D02*
X72088333Y-76160333D01*
X72183571Y-76112714D01*
X72326428Y-76112714D01*
X72421666Y-76160333D01*
X72469285Y-76255571D01*
X72469285Y-76779380D01*
X72469285Y-76255571D02*
X72516904Y-76160333D01*
X72612142Y-76112714D01*
X72755000Y-76112714D01*
X72850238Y-76160333D01*
X72897857Y-76255571D01*
X72897857Y-76779380D01*
X73516904Y-76779380D02*
X73421666Y-76731761D01*
X73374047Y-76684142D01*
X73326428Y-76588904D01*
X73326428Y-76303190D01*
X73374047Y-76207952D01*
X73421666Y-76160333D01*
X73516904Y-76112714D01*
X73659761Y-76112714D01*
X73755000Y-76160333D01*
X73802619Y-76207952D01*
X73850238Y-76303190D01*
X73850238Y-76588904D01*
X73802619Y-76684142D01*
X73755000Y-76731761D01*
X73659761Y-76779380D01*
X73516904Y-76779380D01*
X74707380Y-76779380D02*
X74707380Y-75779380D01*
X74707380Y-76731761D02*
X74612142Y-76779380D01*
X74421666Y-76779380D01*
X74326428Y-76731761D01*
X74278809Y-76684142D01*
X74231190Y-76588904D01*
X74231190Y-76303190D01*
X74278809Y-76207952D01*
X74326428Y-76160333D01*
X74421666Y-76112714D01*
X74612142Y-76112714D01*
X74707380Y-76160333D01*
X75612142Y-76112714D02*
X75612142Y-76779380D01*
X75183571Y-76112714D02*
X75183571Y-76636523D01*
X75231190Y-76731761D01*
X75326428Y-76779380D01*
X75469285Y-76779380D01*
X75564523Y-76731761D01*
X75612142Y-76684142D01*
X76231190Y-76779380D02*
X76135952Y-76731761D01*
X76088333Y-76636523D01*
X76088333Y-75779380D01*
X76993095Y-76731761D02*
X76897857Y-76779380D01*
X76707380Y-76779380D01*
X76612142Y-76731761D01*
X76564523Y-76636523D01*
X76564523Y-76255571D01*
X76612142Y-76160333D01*
X76707380Y-76112714D01*
X76897857Y-76112714D01*
X76993095Y-76160333D01*
X77040714Y-76255571D01*
X77040714Y-76350809D01*
X76564523Y-76446047D01*
X92122857Y-105100380D02*
X92122857Y-104100380D01*
X92503809Y-104100380D01*
X92599047Y-104148000D01*
X92646666Y-104195619D01*
X92694285Y-104290857D01*
X92694285Y-104433714D01*
X92646666Y-104528952D01*
X92599047Y-104576571D01*
X92503809Y-104624190D01*
X92122857Y-104624190D01*
X93122857Y-105100380D02*
X93122857Y-104100380D01*
X93456190Y-104814666D01*
X93789523Y-104100380D01*
X93789523Y-105100380D01*
X94456190Y-104100380D02*
X94646666Y-104100380D01*
X94741904Y-104148000D01*
X94837142Y-104243238D01*
X94884761Y-104433714D01*
X94884761Y-104767047D01*
X94837142Y-104957523D01*
X94741904Y-105052761D01*
X94646666Y-105100380D01*
X94456190Y-105100380D01*
X94360952Y-105052761D01*
X94265714Y-104957523D01*
X94218095Y-104767047D01*
X94218095Y-104433714D01*
X94265714Y-104243238D01*
X94360952Y-104148000D01*
X94456190Y-104100380D01*
X95313333Y-105100380D02*
X95313333Y-104100380D01*
X95551428Y-104100380D01*
X95694285Y-104148000D01*
X95789523Y-104243238D01*
X95837142Y-104338476D01*
X95884761Y-104528952D01*
X95884761Y-104671809D01*
X95837142Y-104862285D01*
X95789523Y-104957523D01*
X95694285Y-105052761D01*
X95551428Y-105100380D01*
X95313333Y-105100380D01*
X74593428Y-96791428D02*
X74250571Y-96791428D01*
X74422000Y-96791428D02*
X74422000Y-96191428D01*
X74364857Y-96277142D01*
X74307714Y-96334285D01*
X74250571Y-96362857D01*
X41386285Y-73731428D02*
X42148190Y-73731428D01*
X41767238Y-74112380D02*
X41767238Y-73350476D01*
X43100571Y-73112380D02*
X42624380Y-73112380D01*
X42576761Y-73588571D01*
X42624380Y-73540952D01*
X42719619Y-73493333D01*
X42957714Y-73493333D01*
X43052952Y-73540952D01*
X43100571Y-73588571D01*
X43148190Y-73683809D01*
X43148190Y-73921904D01*
X43100571Y-74017142D01*
X43052952Y-74064761D01*
X42957714Y-74112380D01*
X42719619Y-74112380D01*
X42624380Y-74064761D01*
X42576761Y-74017142D01*
X43433904Y-73112380D02*
X43767238Y-74112380D01*
X44100571Y-73112380D01*
X68084714Y-99458428D02*
X67741857Y-99458428D01*
X67913285Y-99458428D02*
X67913285Y-98858428D01*
X67856142Y-98944142D01*
X67799000Y-99001285D01*
X67741857Y-99029857D01*
X68370428Y-99458428D02*
X68484714Y-99458428D01*
X68541857Y-99429857D01*
X68570428Y-99401285D01*
X68627571Y-99315571D01*
X68656142Y-99201285D01*
X68656142Y-98972714D01*
X68627571Y-98915571D01*
X68599000Y-98887000D01*
X68541857Y-98858428D01*
X68427571Y-98858428D01*
X68370428Y-98887000D01*
X68341857Y-98915571D01*
X68313285Y-98972714D01*
X68313285Y-99115571D01*
X68341857Y-99172714D01*
X68370428Y-99201285D01*
X68427571Y-99229857D01*
X68541857Y-99229857D01*
X68599000Y-99201285D01*
X68627571Y-99172714D01*
X68656142Y-99115571D01*
X92694285Y-83510428D02*
X93456190Y-83510428D01*
X93075238Y-83891380D02*
X93075238Y-83129476D01*
X94408571Y-82891380D02*
X93932380Y-82891380D01*
X93884761Y-83367571D01*
X93932380Y-83319952D01*
X94027619Y-83272333D01*
X94265714Y-83272333D01*
X94360952Y-83319952D01*
X94408571Y-83367571D01*
X94456190Y-83462809D01*
X94456190Y-83700904D01*
X94408571Y-83796142D01*
X94360952Y-83843761D01*
X94265714Y-83891380D01*
X94027619Y-83891380D01*
X93932380Y-83843761D01*
X93884761Y-83796142D01*
X94741904Y-82891380D02*
X95075238Y-83891380D01*
X95408571Y-82891380D01*
X41386285Y-58491428D02*
X42148190Y-58491428D01*
X41767238Y-58872380D02*
X41767238Y-58110476D01*
X43100571Y-57872380D02*
X42624380Y-57872380D01*
X42576761Y-58348571D01*
X42624380Y-58300952D01*
X42719619Y-58253333D01*
X42957714Y-58253333D01*
X43052952Y-58300952D01*
X43100571Y-58348571D01*
X43148190Y-58443809D01*
X43148190Y-58681904D01*
X43100571Y-58777142D01*
X43052952Y-58824761D01*
X42957714Y-58872380D01*
X42719619Y-58872380D01*
X42624380Y-58824761D01*
X42576761Y-58777142D01*
X43433904Y-57872380D02*
X43767238Y-58872380D01*
X44100571Y-57872380D01*
X53157619Y-48712380D02*
X53157619Y-47712380D01*
X53157619Y-48664761D02*
X53062380Y-48712380D01*
X52871904Y-48712380D01*
X52776666Y-48664761D01*
X52729047Y-48617142D01*
X52681428Y-48521904D01*
X52681428Y-48236190D01*
X52729047Y-48140952D01*
X52776666Y-48093333D01*
X52871904Y-48045714D01*
X53062380Y-48045714D01*
X53157619Y-48093333D01*
X54062380Y-48712380D02*
X54062380Y-48188571D01*
X54014761Y-48093333D01*
X53919523Y-48045714D01*
X53729047Y-48045714D01*
X53633809Y-48093333D01*
X54062380Y-48664761D02*
X53967142Y-48712380D01*
X53729047Y-48712380D01*
X53633809Y-48664761D01*
X53586190Y-48569523D01*
X53586190Y-48474285D01*
X53633809Y-48379047D01*
X53729047Y-48331428D01*
X53967142Y-48331428D01*
X54062380Y-48283809D01*
X54395714Y-48045714D02*
X54776666Y-48045714D01*
X54538571Y-47712380D02*
X54538571Y-48569523D01*
X54586190Y-48664761D01*
X54681428Y-48712380D01*
X54776666Y-48712380D01*
X55538571Y-48712380D02*
X55538571Y-48188571D01*
X55490952Y-48093333D01*
X55395714Y-48045714D01*
X55205238Y-48045714D01*
X55110000Y-48093333D01*
X55538571Y-48664761D02*
X55443333Y-48712380D01*
X55205238Y-48712380D01*
X55110000Y-48664761D01*
X55062380Y-48569523D01*
X55062380Y-48474285D01*
X55110000Y-48379047D01*
X55205238Y-48331428D01*
X55443333Y-48331428D01*
X55538571Y-48283809D01*
X55919523Y-47712380D02*
X56538571Y-47712380D01*
X56205238Y-48093333D01*
X56348095Y-48093333D01*
X56443333Y-48140952D01*
X56490952Y-48188571D01*
X56538571Y-48283809D01*
X56538571Y-48521904D01*
X56490952Y-48617142D01*
X56443333Y-48664761D01*
X56348095Y-48712380D01*
X56062380Y-48712380D01*
X55967142Y-48664761D01*
X55919523Y-48617142D01*
D12*
X115164000Y-51955619D02*
X115364000Y-52031809D01*
X115697333Y-52031809D01*
X115830666Y-51955619D01*
X115897333Y-51879428D01*
X115964000Y-51727047D01*
X115964000Y-51574666D01*
X115897333Y-51422285D01*
X115830666Y-51346095D01*
X115697333Y-51269904D01*
X115430666Y-51193714D01*
X115297333Y-51117523D01*
X115230666Y-51041333D01*
X115164000Y-50888952D01*
X115164000Y-50736571D01*
X115230666Y-50584190D01*
X115297333Y-50508000D01*
X115430666Y-50431809D01*
X115764000Y-50431809D01*
X115964000Y-50508000D01*
X117230666Y-50431809D02*
X116564000Y-50431809D01*
X116497333Y-51193714D01*
X116564000Y-51117523D01*
X116697333Y-51041333D01*
X117030666Y-51041333D01*
X117164000Y-51117523D01*
X117230666Y-51193714D01*
X117297333Y-51346095D01*
X117297333Y-51727047D01*
X117230666Y-51879428D01*
X117164000Y-51955619D01*
X117030666Y-52031809D01*
X116697333Y-52031809D01*
X116564000Y-51955619D01*
X116497333Y-51879428D01*
X117964000Y-52031809D02*
X118230666Y-52031809D01*
X118364000Y-51955619D01*
X118430666Y-51879428D01*
X118564000Y-51650857D01*
X118630666Y-51346095D01*
X118630666Y-50736571D01*
X118564000Y-50584190D01*
X118497333Y-50508000D01*
X118364000Y-50431809D01*
X118097333Y-50431809D01*
X117964000Y-50508000D01*
X117897333Y-50584190D01*
X117830666Y-50736571D01*
X117830666Y-51117523D01*
X117897333Y-51269904D01*
X117964000Y-51346095D01*
X118097333Y-51422285D01*
X118364000Y-51422285D01*
X118497333Y-51346095D01*
X118564000Y-51269904D01*
X118630666Y-51117523D01*
X119230666Y-52031809D02*
X119230666Y-50431809D01*
X119697333Y-51574666D01*
X120164000Y-50431809D01*
X120164000Y-52031809D01*
X120697333Y-50431809D02*
X121630666Y-50431809D01*
X120697333Y-52031809D01*
X121630666Y-52031809D01*
D10*
X68084714Y-96791428D02*
X67741857Y-96791428D01*
X67913285Y-96791428D02*
X67913285Y-96191428D01*
X67856142Y-96277142D01*
X67799000Y-96334285D01*
X67741857Y-96362857D01*
X68284714Y-96191428D02*
X68684714Y-96191428D01*
X68427571Y-96791428D01*
X74250571Y-98026571D02*
X74279142Y-97998000D01*
X74336285Y-97969428D01*
X74479142Y-97969428D01*
X74536285Y-97998000D01*
X74564857Y-98026571D01*
X74593428Y-98083714D01*
X74593428Y-98140857D01*
X74564857Y-98226571D01*
X74222000Y-98569428D01*
X74593428Y-98569428D01*
X45939642Y-52267142D02*
X45892023Y-52314761D01*
X45749166Y-52362380D01*
X45653928Y-52362380D01*
X45511071Y-52314761D01*
X45415833Y-52219523D01*
X45368214Y-52124285D01*
X45320595Y-51933809D01*
X45320595Y-51790952D01*
X45368214Y-51600476D01*
X45415833Y-51505238D01*
X45511071Y-51410000D01*
X45653928Y-51362380D01*
X45749166Y-51362380D01*
X45892023Y-51410000D01*
X45939642Y-51457619D01*
X46892023Y-52362380D02*
X46320595Y-52362380D01*
X46606309Y-52362380D02*
X46606309Y-51362380D01*
X46511071Y-51505238D01*
X46415833Y-51600476D01*
X46320595Y-51648095D01*
X47844404Y-52362380D02*
X47272976Y-52362380D01*
X47558690Y-52362380D02*
X47558690Y-51362380D01*
X47463452Y-51505238D01*
X47368214Y-51600476D01*
X47272976Y-51648095D01*
X42537142Y-61317142D02*
X42489523Y-61364761D01*
X42346666Y-61412380D01*
X42251428Y-61412380D01*
X42108571Y-61364761D01*
X42013333Y-61269523D01*
X41965714Y-61174285D01*
X41918095Y-60983809D01*
X41918095Y-60840952D01*
X41965714Y-60650476D01*
X42013333Y-60555238D01*
X42108571Y-60460000D01*
X42251428Y-60412380D01*
X42346666Y-60412380D01*
X42489523Y-60460000D01*
X42537142Y-60507619D01*
X43489523Y-61412380D02*
X42918095Y-61412380D01*
X43203809Y-61412380D02*
X43203809Y-60412380D01*
X43108571Y-60555238D01*
X43013333Y-60650476D01*
X42918095Y-60698095D01*
X44108571Y-60412380D02*
X44203809Y-60412380D01*
X44299047Y-60460000D01*
X44346666Y-60507619D01*
X44394285Y-60602857D01*
X44441904Y-60793333D01*
X44441904Y-61031428D01*
X44394285Y-61221904D01*
X44346666Y-61317142D01*
X44299047Y-61364761D01*
X44203809Y-61412380D01*
X44108571Y-61412380D01*
X44013333Y-61364761D01*
X43965714Y-61317142D01*
X43918095Y-61221904D01*
X43870476Y-61031428D01*
X43870476Y-60793333D01*
X43918095Y-60602857D01*
X43965714Y-60507619D01*
X44013333Y-60460000D01*
X44108571Y-60412380D01*
X103801333Y-76402142D02*
X103753714Y-76449761D01*
X103610857Y-76497380D01*
X103515619Y-76497380D01*
X103372761Y-76449761D01*
X103277523Y-76354523D01*
X103229904Y-76259285D01*
X103182285Y-76068809D01*
X103182285Y-75925952D01*
X103229904Y-75735476D01*
X103277523Y-75640238D01*
X103372761Y-75545000D01*
X103515619Y-75497380D01*
X103610857Y-75497380D01*
X103753714Y-75545000D01*
X103801333Y-75592619D01*
X104658476Y-75497380D02*
X104468000Y-75497380D01*
X104372761Y-75545000D01*
X104325142Y-75592619D01*
X104229904Y-75735476D01*
X104182285Y-75925952D01*
X104182285Y-76306904D01*
X104229904Y-76402142D01*
X104277523Y-76449761D01*
X104372761Y-76497380D01*
X104563238Y-76497380D01*
X104658476Y-76449761D01*
X104706095Y-76402142D01*
X104753714Y-76306904D01*
X104753714Y-76068809D01*
X104706095Y-75973571D01*
X104658476Y-75925952D01*
X104563238Y-75878333D01*
X104372761Y-75878333D01*
X104277523Y-75925952D01*
X104229904Y-75973571D01*
X104182285Y-76068809D01*
X94083142Y-97879090D02*
X94130761Y-97926709D01*
X94178380Y-98069566D01*
X94178380Y-98164804D01*
X94130761Y-98307661D01*
X94035523Y-98402899D01*
X93940285Y-98450518D01*
X93749809Y-98498137D01*
X93606952Y-98498137D01*
X93416476Y-98450518D01*
X93321238Y-98402899D01*
X93226000Y-98307661D01*
X93178380Y-98164804D01*
X93178380Y-98069566D01*
X93226000Y-97926709D01*
X93273619Y-97879090D01*
X94178380Y-96926709D02*
X94178380Y-97498137D01*
X94178380Y-97212423D02*
X93178380Y-97212423D01*
X93321238Y-97307661D01*
X93416476Y-97402899D01*
X93464095Y-97498137D01*
X94178380Y-96450518D02*
X94178380Y-96260042D01*
X94130761Y-96164804D01*
X94083142Y-96117185D01*
X93940285Y-96021947D01*
X93749809Y-95974328D01*
X93368857Y-95974328D01*
X93273619Y-96021947D01*
X93226000Y-96069566D01*
X93178380Y-96164804D01*
X93178380Y-96355280D01*
X93226000Y-96450518D01*
X93273619Y-96498137D01*
X93368857Y-96545756D01*
X93606952Y-96545756D01*
X93702190Y-96498137D01*
X93749809Y-96450518D01*
X93797428Y-96355280D01*
X93797428Y-96164804D01*
X93749809Y-96069566D01*
X93702190Y-96021947D01*
X93606952Y-95974328D01*
X115929904Y-80383880D02*
X115929904Y-79383880D01*
X116168000Y-79383880D01*
X116310857Y-79431500D01*
X116406095Y-79526738D01*
X116453714Y-79621976D01*
X116501333Y-79812452D01*
X116501333Y-79955309D01*
X116453714Y-80145785D01*
X116406095Y-80241023D01*
X116310857Y-80336261D01*
X116168000Y-80383880D01*
X115929904Y-80383880D01*
X117406095Y-79383880D02*
X116929904Y-79383880D01*
X116882285Y-79860071D01*
X116929904Y-79812452D01*
X117025142Y-79764833D01*
X117263238Y-79764833D01*
X117358476Y-79812452D01*
X117406095Y-79860071D01*
X117453714Y-79955309D01*
X117453714Y-80193404D01*
X117406095Y-80288642D01*
X117358476Y-80336261D01*
X117263238Y-80383880D01*
X117025142Y-80383880D01*
X116929904Y-80336261D01*
X116882285Y-80288642D01*
X126057333Y-85955142D02*
X126009714Y-86002761D01*
X125866857Y-86050380D01*
X125771619Y-86050380D01*
X125628761Y-86002761D01*
X125533523Y-85907523D01*
X125485904Y-85812285D01*
X125438285Y-85621809D01*
X125438285Y-85478952D01*
X125485904Y-85288476D01*
X125533523Y-85193238D01*
X125628761Y-85098000D01*
X125771619Y-85050380D01*
X125866857Y-85050380D01*
X126009714Y-85098000D01*
X126057333Y-85145619D01*
X126390666Y-85050380D02*
X127009714Y-85050380D01*
X126676380Y-85431333D01*
X126819238Y-85431333D01*
X126914476Y-85478952D01*
X126962095Y-85526571D01*
X127009714Y-85621809D01*
X127009714Y-85859904D01*
X126962095Y-85955142D01*
X126914476Y-86002761D01*
X126819238Y-86050380D01*
X126533523Y-86050380D01*
X126438285Y-86002761D01*
X126390666Y-85955142D01*
X126057333Y-88241142D02*
X126009714Y-88288761D01*
X125866857Y-88336380D01*
X125771619Y-88336380D01*
X125628761Y-88288761D01*
X125533523Y-88193523D01*
X125485904Y-88098285D01*
X125438285Y-87907809D01*
X125438285Y-87764952D01*
X125485904Y-87574476D01*
X125533523Y-87479238D01*
X125628761Y-87384000D01*
X125771619Y-87336380D01*
X125866857Y-87336380D01*
X126009714Y-87384000D01*
X126057333Y-87431619D01*
X126962095Y-87336380D02*
X126485904Y-87336380D01*
X126438285Y-87812571D01*
X126485904Y-87764952D01*
X126581142Y-87717333D01*
X126819238Y-87717333D01*
X126914476Y-87764952D01*
X126962095Y-87812571D01*
X127009714Y-87907809D01*
X127009714Y-88145904D01*
X126962095Y-88241142D01*
X126914476Y-88288761D01*
X126819238Y-88336380D01*
X126581142Y-88336380D01*
X126485904Y-88288761D01*
X126438285Y-88241142D01*
X96948666Y-61682380D02*
X96948666Y-62396666D01*
X96901047Y-62539523D01*
X96805809Y-62634761D01*
X96662952Y-62682380D01*
X96567714Y-62682380D01*
X97853428Y-61682380D02*
X97662952Y-61682380D01*
X97567714Y-61730000D01*
X97520095Y-61777619D01*
X97424857Y-61920476D01*
X97377238Y-62110952D01*
X97377238Y-62491904D01*
X97424857Y-62587142D01*
X97472476Y-62634761D01*
X97567714Y-62682380D01*
X97758190Y-62682380D01*
X97853428Y-62634761D01*
X97901047Y-62587142D01*
X97948666Y-62491904D01*
X97948666Y-62253809D01*
X97901047Y-62158571D01*
X97853428Y-62110952D01*
X97758190Y-62063333D01*
X97567714Y-62063333D01*
X97472476Y-62110952D01*
X97424857Y-62158571D01*
X97377238Y-62253809D01*
X120356333Y-56042380D02*
X120023000Y-55566190D01*
X119784904Y-56042380D02*
X119784904Y-55042380D01*
X120165857Y-55042380D01*
X120261095Y-55090000D01*
X120308714Y-55137619D01*
X120356333Y-55232857D01*
X120356333Y-55375714D01*
X120308714Y-55470952D01*
X120261095Y-55518571D01*
X120165857Y-55566190D01*
X119784904Y-55566190D01*
X121213476Y-55375714D02*
X121213476Y-56042380D01*
X120975380Y-54994761D02*
X120737285Y-55709047D01*
X121356333Y-55709047D01*
X133524666Y-81748380D02*
X133524666Y-82462666D01*
X133477047Y-82605523D01*
X133381809Y-82700761D01*
X133238952Y-82748380D01*
X133143714Y-82748380D01*
X134429428Y-82081714D02*
X134429428Y-82748380D01*
X134191333Y-81700761D02*
X133953238Y-82415047D01*
X134572285Y-82415047D01*
X66166666Y-44452380D02*
X66166666Y-45166666D01*
X66119047Y-45309523D01*
X66023809Y-45404761D01*
X65880952Y-45452380D01*
X65785714Y-45452380D01*
X66547619Y-44452380D02*
X67166666Y-44452380D01*
X66833333Y-44833333D01*
X66976190Y-44833333D01*
X67071428Y-44880952D01*
X67119047Y-44928571D01*
X67166666Y-45023809D01*
X67166666Y-45261904D01*
X67119047Y-45357142D01*
X67071428Y-45404761D01*
X66976190Y-45452380D01*
X66690476Y-45452380D01*
X66595238Y-45404761D01*
X66547619Y-45357142D01*
X42791142Y-68937142D02*
X42743523Y-68984761D01*
X42600666Y-69032380D01*
X42505428Y-69032380D01*
X42362571Y-68984761D01*
X42267333Y-68889523D01*
X42219714Y-68794285D01*
X42172095Y-68603809D01*
X42172095Y-68460952D01*
X42219714Y-68270476D01*
X42267333Y-68175238D01*
X42362571Y-68080000D01*
X42505428Y-68032380D01*
X42600666Y-68032380D01*
X42743523Y-68080000D01*
X42791142Y-68127619D01*
X43743523Y-69032380D02*
X43172095Y-69032380D01*
X43457809Y-69032380D02*
X43457809Y-68032380D01*
X43362571Y-68175238D01*
X43267333Y-68270476D01*
X43172095Y-68318095D01*
X44076857Y-68032380D02*
X44695904Y-68032380D01*
X44362571Y-68413333D01*
X44505428Y-68413333D01*
X44600666Y-68460952D01*
X44648285Y-68508571D01*
X44695904Y-68603809D01*
X44695904Y-68841904D01*
X44648285Y-68937142D01*
X44600666Y-68984761D01*
X44505428Y-69032380D01*
X44219714Y-69032380D01*
X44124476Y-68984761D01*
X44076857Y-68937142D01*
X114768333Y-56042380D02*
X114435000Y-55566190D01*
X114196904Y-56042380D02*
X114196904Y-55042380D01*
X114577857Y-55042380D01*
X114673095Y-55090000D01*
X114720714Y-55137619D01*
X114768333Y-55232857D01*
X114768333Y-55375714D01*
X114720714Y-55470952D01*
X114673095Y-55518571D01*
X114577857Y-55566190D01*
X114196904Y-55566190D01*
X115149285Y-55137619D02*
X115196904Y-55090000D01*
X115292142Y-55042380D01*
X115530238Y-55042380D01*
X115625476Y-55090000D01*
X115673095Y-55137619D01*
X115720714Y-55232857D01*
X115720714Y-55328095D01*
X115673095Y-55470952D01*
X115101666Y-56042380D01*
X115720714Y-56042380D01*
X45839142Y-84177142D02*
X45791523Y-84224761D01*
X45648666Y-84272380D01*
X45553428Y-84272380D01*
X45410571Y-84224761D01*
X45315333Y-84129523D01*
X45267714Y-84034285D01*
X45220095Y-83843809D01*
X45220095Y-83700952D01*
X45267714Y-83510476D01*
X45315333Y-83415238D01*
X45410571Y-83320000D01*
X45553428Y-83272380D01*
X45648666Y-83272380D01*
X45791523Y-83320000D01*
X45839142Y-83367619D01*
X46791523Y-84272380D02*
X46220095Y-84272380D01*
X46505809Y-84272380D02*
X46505809Y-83272380D01*
X46410571Y-83415238D01*
X46315333Y-83510476D01*
X46220095Y-83558095D01*
X47362952Y-83700952D02*
X47267714Y-83653333D01*
X47220095Y-83605714D01*
X47172476Y-83510476D01*
X47172476Y-83462857D01*
X47220095Y-83367619D01*
X47267714Y-83320000D01*
X47362952Y-83272380D01*
X47553428Y-83272380D01*
X47648666Y-83320000D01*
X47696285Y-83367619D01*
X47743904Y-83462857D01*
X47743904Y-83510476D01*
X47696285Y-83605714D01*
X47648666Y-83653333D01*
X47553428Y-83700952D01*
X47362952Y-83700952D01*
X47267714Y-83748571D01*
X47220095Y-83796190D01*
X47172476Y-83891428D01*
X47172476Y-84081904D01*
X47220095Y-84177142D01*
X47267714Y-84224761D01*
X47362952Y-84272380D01*
X47553428Y-84272380D01*
X47648666Y-84224761D01*
X47696285Y-84177142D01*
X47743904Y-84081904D01*
X47743904Y-83891428D01*
X47696285Y-83796190D01*
X47648666Y-83748571D01*
X47553428Y-83700952D01*
X126428666Y-66698761D02*
X126571523Y-66746380D01*
X126809619Y-66746380D01*
X126904857Y-66698761D01*
X126952476Y-66651142D01*
X127000095Y-66555904D01*
X127000095Y-66460666D01*
X126952476Y-66365428D01*
X126904857Y-66317809D01*
X126809619Y-66270190D01*
X126619142Y-66222571D01*
X126523904Y-66174952D01*
X126476285Y-66127333D01*
X126428666Y-66032095D01*
X126428666Y-65936857D01*
X126476285Y-65841619D01*
X126523904Y-65794000D01*
X126619142Y-65746380D01*
X126857238Y-65746380D01*
X127000095Y-65794000D01*
X127333428Y-65746380D02*
X127571523Y-66746380D01*
X127762000Y-66032095D01*
X127952476Y-66746380D01*
X128190571Y-65746380D01*
X128523904Y-65841619D02*
X128571523Y-65794000D01*
X128666761Y-65746380D01*
X128904857Y-65746380D01*
X129000095Y-65794000D01*
X129047714Y-65841619D01*
X129095333Y-65936857D01*
X129095333Y-66032095D01*
X129047714Y-66174952D01*
X128476285Y-66746380D01*
X129095333Y-66746380D01*
X114252476Y-100417380D02*
X114252476Y-101131666D01*
X114204857Y-101274523D01*
X114109619Y-101369761D01*
X113966761Y-101417380D01*
X113871523Y-101417380D01*
X115252476Y-101417380D02*
X114681047Y-101417380D01*
X114966761Y-101417380D02*
X114966761Y-100417380D01*
X114871523Y-100560238D01*
X114776285Y-100655476D01*
X114681047Y-100703095D01*
X115871523Y-100417380D02*
X115966761Y-100417380D01*
X116062000Y-100465000D01*
X116109619Y-100512619D01*
X116157238Y-100607857D01*
X116204857Y-100798333D01*
X116204857Y-101036428D01*
X116157238Y-101226904D01*
X116109619Y-101322142D01*
X116062000Y-101369761D01*
X115966761Y-101417380D01*
X115871523Y-101417380D01*
X115776285Y-101369761D01*
X115728666Y-101322142D01*
X115681047Y-101226904D01*
X115633428Y-101036428D01*
X115633428Y-100798333D01*
X115681047Y-100607857D01*
X115728666Y-100512619D01*
X115776285Y-100465000D01*
X115871523Y-100417380D01*
X87042666Y-69302380D02*
X87042666Y-70016666D01*
X86995047Y-70159523D01*
X86899809Y-70254761D01*
X86756952Y-70302380D01*
X86661714Y-70302380D01*
X87423619Y-69302380D02*
X88090285Y-69302380D01*
X87661714Y-70302380D01*
X114196904Y-66837380D02*
X114196904Y-65837380D01*
X114435000Y-65837380D01*
X114577857Y-65885000D01*
X114673095Y-65980238D01*
X114720714Y-66075476D01*
X114768333Y-66265952D01*
X114768333Y-66408809D01*
X114720714Y-66599285D01*
X114673095Y-66694523D01*
X114577857Y-66789761D01*
X114435000Y-66837380D01*
X114196904Y-66837380D01*
X115149285Y-65932619D02*
X115196904Y-65885000D01*
X115292142Y-65837380D01*
X115530238Y-65837380D01*
X115625476Y-65885000D01*
X115673095Y-65932619D01*
X115720714Y-66027857D01*
X115720714Y-66123095D01*
X115673095Y-66265952D01*
X115101666Y-66837380D01*
X115720714Y-66837380D01*
X101515333Y-76402142D02*
X101467714Y-76449761D01*
X101324857Y-76497380D01*
X101229619Y-76497380D01*
X101086761Y-76449761D01*
X100991523Y-76354523D01*
X100943904Y-76259285D01*
X100896285Y-76068809D01*
X100896285Y-75925952D01*
X100943904Y-75735476D01*
X100991523Y-75640238D01*
X101086761Y-75545000D01*
X101229619Y-75497380D01*
X101324857Y-75497380D01*
X101467714Y-75545000D01*
X101515333Y-75592619D01*
X102086761Y-75925952D02*
X101991523Y-75878333D01*
X101943904Y-75830714D01*
X101896285Y-75735476D01*
X101896285Y-75687857D01*
X101943904Y-75592619D01*
X101991523Y-75545000D01*
X102086761Y-75497380D01*
X102277238Y-75497380D01*
X102372476Y-75545000D01*
X102420095Y-75592619D01*
X102467714Y-75687857D01*
X102467714Y-75735476D01*
X102420095Y-75830714D01*
X102372476Y-75878333D01*
X102277238Y-75925952D01*
X102086761Y-75925952D01*
X101991523Y-75973571D01*
X101943904Y-76021190D01*
X101896285Y-76116428D01*
X101896285Y-76306904D01*
X101943904Y-76402142D01*
X101991523Y-76449761D01*
X102086761Y-76497380D01*
X102277238Y-76497380D01*
X102372476Y-76449761D01*
X102420095Y-76402142D01*
X102467714Y-76306904D01*
X102467714Y-76116428D01*
X102420095Y-76021190D01*
X102372476Y-75973571D01*
X102277238Y-75925952D01*
X104989333Y-54046380D02*
X104656000Y-53570190D01*
X104417904Y-54046380D02*
X104417904Y-53046380D01*
X104798857Y-53046380D01*
X104894095Y-53094000D01*
X104941714Y-53141619D01*
X104989333Y-53236857D01*
X104989333Y-53379714D01*
X104941714Y-53474952D01*
X104894095Y-53522571D01*
X104798857Y-53570190D01*
X104417904Y-53570190D01*
X105322666Y-53046380D02*
X105989333Y-53046380D01*
X105560761Y-54046380D01*
X116501333Y-76042380D02*
X116168000Y-75566190D01*
X115929904Y-76042380D02*
X115929904Y-75042380D01*
X116310857Y-75042380D01*
X116406095Y-75090000D01*
X116453714Y-75137619D01*
X116501333Y-75232857D01*
X116501333Y-75375714D01*
X116453714Y-75470952D01*
X116406095Y-75518571D01*
X116310857Y-75566190D01*
X115929904Y-75566190D01*
X117406095Y-75042380D02*
X116929904Y-75042380D01*
X116882285Y-75518571D01*
X116929904Y-75470952D01*
X117025142Y-75423333D01*
X117263238Y-75423333D01*
X117358476Y-75470952D01*
X117406095Y-75518571D01*
X117453714Y-75613809D01*
X117453714Y-75851904D01*
X117406095Y-75947142D01*
X117358476Y-75994761D01*
X117263238Y-76042380D01*
X117025142Y-76042380D01*
X116929904Y-75994761D01*
X116882285Y-75947142D01*
X127595333Y-54046380D02*
X127262000Y-53570190D01*
X127023904Y-54046380D02*
X127023904Y-53046380D01*
X127404857Y-53046380D01*
X127500095Y-53094000D01*
X127547714Y-53141619D01*
X127595333Y-53236857D01*
X127595333Y-53379714D01*
X127547714Y-53474952D01*
X127500095Y-53522571D01*
X127404857Y-53570190D01*
X127023904Y-53570190D01*
X128166761Y-53474952D02*
X128071523Y-53427333D01*
X128023904Y-53379714D01*
X127976285Y-53284476D01*
X127976285Y-53236857D01*
X128023904Y-53141619D01*
X128071523Y-53094000D01*
X128166761Y-53046380D01*
X128357238Y-53046380D01*
X128452476Y-53094000D01*
X128500095Y-53141619D01*
X128547714Y-53236857D01*
X128547714Y-53284476D01*
X128500095Y-53379714D01*
X128452476Y-53427333D01*
X128357238Y-53474952D01*
X128166761Y-53474952D01*
X128071523Y-53522571D01*
X128023904Y-53570190D01*
X127976285Y-53665428D01*
X127976285Y-53855904D01*
X128023904Y-53951142D01*
X128071523Y-53998761D01*
X128166761Y-54046380D01*
X128357238Y-54046380D01*
X128452476Y-53998761D01*
X128500095Y-53951142D01*
X128547714Y-53855904D01*
X128547714Y-53665428D01*
X128500095Y-53570190D01*
X128452476Y-53522571D01*
X128357238Y-53474952D01*
X96948666Y-54062380D02*
X96948666Y-54776666D01*
X96901047Y-54919523D01*
X96805809Y-55014761D01*
X96662952Y-55062380D01*
X96567714Y-55062380D01*
X97901047Y-54062380D02*
X97424857Y-54062380D01*
X97377238Y-54538571D01*
X97424857Y-54490952D01*
X97520095Y-54443333D01*
X97758190Y-54443333D01*
X97853428Y-54490952D01*
X97901047Y-54538571D01*
X97948666Y-54633809D01*
X97948666Y-54871904D01*
X97901047Y-54967142D01*
X97853428Y-55014761D01*
X97758190Y-55062380D01*
X97520095Y-55062380D01*
X97424857Y-55014761D01*
X97377238Y-54967142D01*
X104076666Y-66698761D02*
X104219523Y-66746380D01*
X104457619Y-66746380D01*
X104552857Y-66698761D01*
X104600476Y-66651142D01*
X104648095Y-66555904D01*
X104648095Y-66460666D01*
X104600476Y-66365428D01*
X104552857Y-66317809D01*
X104457619Y-66270190D01*
X104267142Y-66222571D01*
X104171904Y-66174952D01*
X104124285Y-66127333D01*
X104076666Y-66032095D01*
X104076666Y-65936857D01*
X104124285Y-65841619D01*
X104171904Y-65794000D01*
X104267142Y-65746380D01*
X104505238Y-65746380D01*
X104648095Y-65794000D01*
X104981428Y-65746380D02*
X105219523Y-66746380D01*
X105410000Y-66032095D01*
X105600476Y-66746380D01*
X105838571Y-65746380D01*
X106743333Y-66746380D02*
X106171904Y-66746380D01*
X106457619Y-66746380D02*
X106457619Y-65746380D01*
X106362380Y-65889238D01*
X106267142Y-65984476D01*
X106171904Y-66032095D01*
X40837142Y-98025357D02*
X40884761Y-98072976D01*
X40932380Y-98215833D01*
X40932380Y-98311071D01*
X40884761Y-98453928D01*
X40789523Y-98549166D01*
X40694285Y-98596785D01*
X40503809Y-98644404D01*
X40360952Y-98644404D01*
X40170476Y-98596785D01*
X40075238Y-98549166D01*
X39980000Y-98453928D01*
X39932380Y-98311071D01*
X39932380Y-98215833D01*
X39980000Y-98072976D01*
X40027619Y-98025357D01*
X40932380Y-97072976D02*
X40932380Y-97644404D01*
X40932380Y-97358690D02*
X39932380Y-97358690D01*
X40075238Y-97453928D01*
X40170476Y-97549166D01*
X40218095Y-97644404D01*
X39932380Y-96168214D02*
X39932380Y-96644404D01*
X40408571Y-96692023D01*
X40360952Y-96644404D01*
X40313333Y-96549166D01*
X40313333Y-96311071D01*
X40360952Y-96215833D01*
X40408571Y-96168214D01*
X40503809Y-96120595D01*
X40741904Y-96120595D01*
X40837142Y-96168214D01*
X40884761Y-96215833D01*
X40932380Y-96311071D01*
X40932380Y-96549166D01*
X40884761Y-96644404D01*
X40837142Y-96692023D01*
X96948666Y-76668380D02*
X96948666Y-77382666D01*
X96901047Y-77525523D01*
X96805809Y-77620761D01*
X96662952Y-77668380D01*
X96567714Y-77668380D01*
X97567714Y-77096952D02*
X97472476Y-77049333D01*
X97424857Y-77001714D01*
X97377238Y-76906476D01*
X97377238Y-76858857D01*
X97424857Y-76763619D01*
X97472476Y-76716000D01*
X97567714Y-76668380D01*
X97758190Y-76668380D01*
X97853428Y-76716000D01*
X97901047Y-76763619D01*
X97948666Y-76858857D01*
X97948666Y-76906476D01*
X97901047Y-77001714D01*
X97853428Y-77049333D01*
X97758190Y-77096952D01*
X97567714Y-77096952D01*
X97472476Y-77144571D01*
X97424857Y-77192190D01*
X97377238Y-77287428D01*
X97377238Y-77477904D01*
X97424857Y-77573142D01*
X97472476Y-77620761D01*
X97567714Y-77668380D01*
X97758190Y-77668380D01*
X97853428Y-77620761D01*
X97901047Y-77573142D01*
X97948666Y-77477904D01*
X97948666Y-77287428D01*
X97901047Y-77192190D01*
X97853428Y-77144571D01*
X97758190Y-77096952D01*
X131645333Y-93855642D02*
X131597714Y-93903261D01*
X131454857Y-93950880D01*
X131359619Y-93950880D01*
X131216761Y-93903261D01*
X131121523Y-93808023D01*
X131073904Y-93712785D01*
X131026285Y-93522309D01*
X131026285Y-93379452D01*
X131073904Y-93188976D01*
X131121523Y-93093738D01*
X131216761Y-92998500D01*
X131359619Y-92950880D01*
X131454857Y-92950880D01*
X131597714Y-92998500D01*
X131645333Y-93046119D01*
X132121523Y-93950880D02*
X132312000Y-93950880D01*
X132407238Y-93903261D01*
X132454857Y-93855642D01*
X132550095Y-93712785D01*
X132597714Y-93522309D01*
X132597714Y-93141357D01*
X132550095Y-93046119D01*
X132502476Y-92998500D01*
X132407238Y-92950880D01*
X132216761Y-92950880D01*
X132121523Y-92998500D01*
X132073904Y-93046119D01*
X132026285Y-93141357D01*
X132026285Y-93379452D01*
X132073904Y-93474690D01*
X132121523Y-93522309D01*
X132216761Y-93569928D01*
X132407238Y-93569928D01*
X132502476Y-93522309D01*
X132550095Y-93474690D01*
X132597714Y-93379452D01*
X68532476Y-100544380D02*
X68532476Y-101258666D01*
X68484857Y-101401523D01*
X68389619Y-101496761D01*
X68246761Y-101544380D01*
X68151523Y-101544380D01*
X69532476Y-101544380D02*
X68961047Y-101544380D01*
X69246761Y-101544380D02*
X69246761Y-100544380D01*
X69151523Y-100687238D01*
X69056285Y-100782476D01*
X68961047Y-100830095D01*
X69913428Y-100639619D02*
X69961047Y-100592000D01*
X70056285Y-100544380D01*
X70294380Y-100544380D01*
X70389619Y-100592000D01*
X70437238Y-100639619D01*
X70484857Y-100734857D01*
X70484857Y-100830095D01*
X70437238Y-100972952D01*
X69865809Y-101544380D01*
X70484857Y-101544380D01*
X117562333Y-56042380D02*
X117229000Y-55566190D01*
X116990904Y-56042380D02*
X116990904Y-55042380D01*
X117371857Y-55042380D01*
X117467095Y-55090000D01*
X117514714Y-55137619D01*
X117562333Y-55232857D01*
X117562333Y-55375714D01*
X117514714Y-55470952D01*
X117467095Y-55518571D01*
X117371857Y-55566190D01*
X116990904Y-55566190D01*
X117895666Y-55042380D02*
X118514714Y-55042380D01*
X118181380Y-55423333D01*
X118324238Y-55423333D01*
X118419476Y-55470952D01*
X118467095Y-55518571D01*
X118514714Y-55613809D01*
X118514714Y-55851904D01*
X118467095Y-55947142D01*
X118419476Y-55994761D01*
X118324238Y-56042380D01*
X118038523Y-56042380D01*
X117943285Y-55994761D01*
X117895666Y-55947142D01*
X111973333Y-87376142D02*
X111925714Y-87423761D01*
X111782857Y-87471380D01*
X111687619Y-87471380D01*
X111544761Y-87423761D01*
X111449523Y-87328523D01*
X111401904Y-87233285D01*
X111354285Y-87042809D01*
X111354285Y-86899952D01*
X111401904Y-86709476D01*
X111449523Y-86614238D01*
X111544761Y-86519000D01*
X111687619Y-86471380D01*
X111782857Y-86471380D01*
X111925714Y-86519000D01*
X111973333Y-86566619D01*
X112354285Y-86566619D02*
X112401904Y-86519000D01*
X112497142Y-86471380D01*
X112735238Y-86471380D01*
X112830476Y-86519000D01*
X112878095Y-86566619D01*
X112925714Y-86661857D01*
X112925714Y-86757095D01*
X112878095Y-86899952D01*
X112306666Y-87471380D01*
X112925714Y-87471380D01*
X91392476Y-100544380D02*
X91392476Y-101258666D01*
X91344857Y-101401523D01*
X91249619Y-101496761D01*
X91106761Y-101544380D01*
X91011523Y-101544380D01*
X92392476Y-101544380D02*
X91821047Y-101544380D01*
X92106761Y-101544380D02*
X92106761Y-100544380D01*
X92011523Y-100687238D01*
X91916285Y-100782476D01*
X91821047Y-100830095D01*
X93344857Y-101544380D02*
X92773428Y-101544380D01*
X93059142Y-101544380D02*
X93059142Y-100544380D01*
X92963904Y-100687238D01*
X92868666Y-100782476D01*
X92773428Y-100830095D01*
X111974333Y-56042380D02*
X111641000Y-55566190D01*
X111402904Y-56042380D02*
X111402904Y-55042380D01*
X111783857Y-55042380D01*
X111879095Y-55090000D01*
X111926714Y-55137619D01*
X111974333Y-55232857D01*
X111974333Y-55375714D01*
X111926714Y-55470952D01*
X111879095Y-55518571D01*
X111783857Y-55566190D01*
X111402904Y-55566190D01*
X112926714Y-56042380D02*
X112355285Y-56042380D01*
X112641000Y-56042380D02*
X112641000Y-55042380D01*
X112545761Y-55185238D01*
X112450523Y-55280476D01*
X112355285Y-55328095D01*
X116101904Y-92400380D02*
X116101904Y-91400380D01*
X116340000Y-91400380D01*
X116482857Y-91448000D01*
X116578095Y-91543238D01*
X116625714Y-91638476D01*
X116673333Y-91828952D01*
X116673333Y-91971809D01*
X116625714Y-92162285D01*
X116578095Y-92257523D01*
X116482857Y-92352761D01*
X116340000Y-92400380D01*
X116101904Y-92400380D01*
X117530476Y-91400380D02*
X117340000Y-91400380D01*
X117244761Y-91448000D01*
X117197142Y-91495619D01*
X117101904Y-91638476D01*
X117054285Y-91828952D01*
X117054285Y-92209904D01*
X117101904Y-92305142D01*
X117149523Y-92352761D01*
X117244761Y-92400380D01*
X117435238Y-92400380D01*
X117530476Y-92352761D01*
X117578095Y-92305142D01*
X117625714Y-92209904D01*
X117625714Y-91971809D01*
X117578095Y-91876571D01*
X117530476Y-91828952D01*
X117435238Y-91781333D01*
X117244761Y-91781333D01*
X117149523Y-91828952D01*
X117101904Y-91876571D01*
X117054285Y-91971809D01*
X99163142Y-81060357D02*
X99210761Y-81107976D01*
X99258380Y-81250833D01*
X99258380Y-81346071D01*
X99210761Y-81488928D01*
X99115523Y-81584166D01*
X99020285Y-81631785D01*
X98829809Y-81679404D01*
X98686952Y-81679404D01*
X98496476Y-81631785D01*
X98401238Y-81584166D01*
X98306000Y-81488928D01*
X98258380Y-81346071D01*
X98258380Y-81250833D01*
X98306000Y-81107976D01*
X98353619Y-81060357D01*
X99258380Y-80107976D02*
X99258380Y-80679404D01*
X99258380Y-80393690D02*
X98258380Y-80393690D01*
X98401238Y-80488928D01*
X98496476Y-80584166D01*
X98544095Y-80679404D01*
X98258380Y-79250833D02*
X98258380Y-79441309D01*
X98306000Y-79536547D01*
X98353619Y-79584166D01*
X98496476Y-79679404D01*
X98686952Y-79727023D01*
X99067904Y-79727023D01*
X99163142Y-79679404D01*
X99210761Y-79631785D01*
X99258380Y-79536547D01*
X99258380Y-79346071D01*
X99210761Y-79250833D01*
X99163142Y-79203214D01*
X99067904Y-79155595D01*
X98829809Y-79155595D01*
X98734571Y-79203214D01*
X98686952Y-79250833D01*
X98639333Y-79346071D01*
X98639333Y-79536547D01*
X98686952Y-79631785D01*
X98734571Y-79679404D01*
X98829809Y-79727023D01*
X70969142Y-97871857D02*
X71016761Y-97919476D01*
X71064380Y-98062333D01*
X71064380Y-98157571D01*
X71016761Y-98300428D01*
X70921523Y-98395666D01*
X70826285Y-98443285D01*
X70635809Y-98490904D01*
X70492952Y-98490904D01*
X70302476Y-98443285D01*
X70207238Y-98395666D01*
X70112000Y-98300428D01*
X70064380Y-98157571D01*
X70064380Y-98062333D01*
X70112000Y-97919476D01*
X70159619Y-97871857D01*
X71064380Y-96919476D02*
X71064380Y-97490904D01*
X71064380Y-97205190D02*
X70064380Y-97205190D01*
X70207238Y-97300428D01*
X70302476Y-97395666D01*
X70350095Y-97490904D01*
X70064380Y-96586142D02*
X70064380Y-95919476D01*
X71064380Y-96348047D01*
X111402904Y-66837380D02*
X111402904Y-65837380D01*
X111641000Y-65837380D01*
X111783857Y-65885000D01*
X111879095Y-65980238D01*
X111926714Y-66075476D01*
X111974333Y-66265952D01*
X111974333Y-66408809D01*
X111926714Y-66599285D01*
X111879095Y-66694523D01*
X111783857Y-66789761D01*
X111641000Y-66837380D01*
X111402904Y-66837380D01*
X112926714Y-66837380D02*
X112355285Y-66837380D01*
X112641000Y-66837380D02*
X112641000Y-65837380D01*
X112545761Y-65980238D01*
X112450523Y-66075476D01*
X112355285Y-66123095D01*
X129359333Y-93956142D02*
X129311714Y-94003761D01*
X129168857Y-94051380D01*
X129073619Y-94051380D01*
X128930761Y-94003761D01*
X128835523Y-93908523D01*
X128787904Y-93813285D01*
X128740285Y-93622809D01*
X128740285Y-93479952D01*
X128787904Y-93289476D01*
X128835523Y-93194238D01*
X128930761Y-93099000D01*
X129073619Y-93051380D01*
X129168857Y-93051380D01*
X129311714Y-93099000D01*
X129359333Y-93146619D01*
X129692666Y-93051380D02*
X130359333Y-93051380D01*
X129930761Y-94051380D01*
X116990904Y-66837380D02*
X116990904Y-65837380D01*
X117229000Y-65837380D01*
X117371857Y-65885000D01*
X117467095Y-65980238D01*
X117514714Y-66075476D01*
X117562333Y-66265952D01*
X117562333Y-66408809D01*
X117514714Y-66599285D01*
X117467095Y-66694523D01*
X117371857Y-66789761D01*
X117229000Y-66837380D01*
X116990904Y-66837380D01*
X117895666Y-65837380D02*
X118514714Y-65837380D01*
X118181380Y-66218333D01*
X118324238Y-66218333D01*
X118419476Y-66265952D01*
X118467095Y-66313571D01*
X118514714Y-66408809D01*
X118514714Y-66646904D01*
X118467095Y-66742142D01*
X118419476Y-66789761D01*
X118324238Y-66837380D01*
X118038523Y-66837380D01*
X117943285Y-66789761D01*
X117895666Y-66742142D01*
X123938095Y-99655380D02*
X123938095Y-100464904D01*
X123985714Y-100560142D01*
X124033333Y-100607761D01*
X124128571Y-100655380D01*
X124319047Y-100655380D01*
X124414285Y-100607761D01*
X124461904Y-100560142D01*
X124509523Y-100464904D01*
X124509523Y-99655380D01*
X124938095Y-99750619D02*
X124985714Y-99703000D01*
X125080952Y-99655380D01*
X125319047Y-99655380D01*
X125414285Y-99703000D01*
X125461904Y-99750619D01*
X125509523Y-99845857D01*
X125509523Y-99941095D01*
X125461904Y-100083952D01*
X124890476Y-100655380D01*
X125509523Y-100655380D01*
X119784904Y-66837380D02*
X119784904Y-65837380D01*
X120023000Y-65837380D01*
X120165857Y-65885000D01*
X120261095Y-65980238D01*
X120308714Y-66075476D01*
X120356333Y-66265952D01*
X120356333Y-66408809D01*
X120308714Y-66599285D01*
X120261095Y-66694523D01*
X120165857Y-66789761D01*
X120023000Y-66837380D01*
X119784904Y-66837380D01*
X121213476Y-66170714D02*
X121213476Y-66837380D01*
X120975380Y-65789761D02*
X120737285Y-66504047D01*
X121356333Y-66504047D01*
X113204666Y-44410380D02*
X113204666Y-45124666D01*
X113157047Y-45267523D01*
X113061809Y-45362761D01*
X112918952Y-45410380D01*
X112823714Y-45410380D01*
X114204666Y-45410380D02*
X113633238Y-45410380D01*
X113918952Y-45410380D02*
X113918952Y-44410380D01*
X113823714Y-44553238D01*
X113728476Y-44648476D01*
X113633238Y-44696095D01*
X89666666Y-44452380D02*
X89666666Y-45166666D01*
X89619047Y-45309523D01*
X89523809Y-45404761D01*
X89380952Y-45452380D01*
X89285714Y-45452380D01*
X90095238Y-44547619D02*
X90142857Y-44500000D01*
X90238095Y-44452380D01*
X90476190Y-44452380D01*
X90571428Y-44500000D01*
X90619047Y-44547619D01*
X90666666Y-44642857D01*
X90666666Y-44738095D01*
X90619047Y-44880952D01*
X90047619Y-45452380D01*
X90666666Y-45452380D01*
X99163142Y-65666857D02*
X99210761Y-65714476D01*
X99258380Y-65857333D01*
X99258380Y-65952571D01*
X99210761Y-66095428D01*
X99115523Y-66190666D01*
X99020285Y-66238285D01*
X98829809Y-66285904D01*
X98686952Y-66285904D01*
X98496476Y-66238285D01*
X98401238Y-66190666D01*
X98306000Y-66095428D01*
X98258380Y-65952571D01*
X98258380Y-65857333D01*
X98306000Y-65714476D01*
X98353619Y-65666857D01*
X99258380Y-64714476D02*
X99258380Y-65285904D01*
X99258380Y-65000190D02*
X98258380Y-65000190D01*
X98401238Y-65095428D01*
X98496476Y-65190666D01*
X98544095Y-65285904D01*
X98353619Y-64333523D02*
X98306000Y-64285904D01*
X98258380Y-64190666D01*
X98258380Y-63952571D01*
X98306000Y-63857333D01*
X98353619Y-63809714D01*
X98448857Y-63762095D01*
X98544095Y-63762095D01*
X98686952Y-63809714D01*
X99258380Y-64381142D01*
X99258380Y-63762095D01*
X111973333Y-85090142D02*
X111925714Y-85137761D01*
X111782857Y-85185380D01*
X111687619Y-85185380D01*
X111544761Y-85137761D01*
X111449523Y-85042523D01*
X111401904Y-84947285D01*
X111354285Y-84756809D01*
X111354285Y-84613952D01*
X111401904Y-84423476D01*
X111449523Y-84328238D01*
X111544761Y-84233000D01*
X111687619Y-84185380D01*
X111782857Y-84185380D01*
X111925714Y-84233000D01*
X111973333Y-84280619D01*
X112830476Y-84518714D02*
X112830476Y-85185380D01*
X112592380Y-84137761D02*
X112354285Y-84852047D01*
X112973333Y-84852047D01*
X96948666Y-84288380D02*
X96948666Y-85002666D01*
X96901047Y-85145523D01*
X96805809Y-85240761D01*
X96662952Y-85288380D01*
X96567714Y-85288380D01*
X97472476Y-85288380D02*
X97662952Y-85288380D01*
X97758190Y-85240761D01*
X97805809Y-85193142D01*
X97901047Y-85050285D01*
X97948666Y-84859809D01*
X97948666Y-84478857D01*
X97901047Y-84383619D01*
X97853428Y-84336000D01*
X97758190Y-84288380D01*
X97567714Y-84288380D01*
X97472476Y-84336000D01*
X97424857Y-84383619D01*
X97377238Y-84478857D01*
X97377238Y-84716952D01*
X97424857Y-84812190D01*
X97472476Y-84859809D01*
X97567714Y-84907428D01*
X97758190Y-84907428D01*
X97853428Y-84859809D01*
X97901047Y-84812190D01*
X97948666Y-84716952D01*
X116673333Y-96464380D02*
X116340000Y-95988190D01*
X116101904Y-96464380D02*
X116101904Y-95464380D01*
X116482857Y-95464380D01*
X116578095Y-95512000D01*
X116625714Y-95559619D01*
X116673333Y-95654857D01*
X116673333Y-95797714D01*
X116625714Y-95892952D01*
X116578095Y-95940571D01*
X116482857Y-95988190D01*
X116101904Y-95988190D01*
X117530476Y-95464380D02*
X117340000Y-95464380D01*
X117244761Y-95512000D01*
X117197142Y-95559619D01*
X117101904Y-95702476D01*
X117054285Y-95892952D01*
X117054285Y-96273904D01*
X117101904Y-96369142D01*
X117149523Y-96416761D01*
X117244761Y-96464380D01*
X117435238Y-96464380D01*
X117530476Y-96416761D01*
X117578095Y-96369142D01*
X117625714Y-96273904D01*
X117625714Y-96035809D01*
X117578095Y-95940571D01*
X117530476Y-95892952D01*
X117435238Y-95845333D01*
X117244761Y-95845333D01*
X117149523Y-95892952D01*
X117101904Y-95940571D01*
X117054285Y-96035809D01*
X108584095Y-69707380D02*
X108584095Y-70516904D01*
X108631714Y-70612142D01*
X108679333Y-70659761D01*
X108774571Y-70707380D01*
X108965047Y-70707380D01*
X109060285Y-70659761D01*
X109107904Y-70612142D01*
X109155523Y-70516904D01*
X109155523Y-69707380D01*
X110155523Y-70707380D02*
X109584095Y-70707380D01*
X109869809Y-70707380D02*
X109869809Y-69707380D01*
X109774571Y-69850238D01*
X109679333Y-69945476D01*
X109584095Y-69993095D01*
X45966142Y-78208142D02*
X45918523Y-78255761D01*
X45775666Y-78303380D01*
X45680428Y-78303380D01*
X45537571Y-78255761D01*
X45442333Y-78160523D01*
X45394714Y-78065285D01*
X45347095Y-77874809D01*
X45347095Y-77731952D01*
X45394714Y-77541476D01*
X45442333Y-77446238D01*
X45537571Y-77351000D01*
X45680428Y-77303380D01*
X45775666Y-77303380D01*
X45918523Y-77351000D01*
X45966142Y-77398619D01*
X46918523Y-78303380D02*
X46347095Y-78303380D01*
X46632809Y-78303380D02*
X46632809Y-77303380D01*
X46537571Y-77446238D01*
X46442333Y-77541476D01*
X46347095Y-77589095D01*
X47775666Y-77636714D02*
X47775666Y-78303380D01*
X47537571Y-77255761D02*
X47299476Y-77970047D01*
X47918523Y-77970047D01*
D13*
X46436233Y-53850000D02*
X46728767Y-53850000D01*
X46436233Y-52830000D02*
X46728767Y-52830000D01*
X46436233Y-61470000D02*
X46728767Y-61470000D01*
X46436233Y-60450000D02*
X46728767Y-60450000D01*
X104478000Y-78846233D02*
X104478000Y-79138767D01*
X103458000Y-78846233D02*
X103458000Y-79138767D01*
X94740000Y-97236233D02*
X94740000Y-97528767D01*
X95760000Y-97236233D02*
X95760000Y-97528767D01*
X114155000Y-79131500D02*
X114155000Y-81591500D01*
X115625000Y-81591500D02*
X115625000Y-79131500D01*
X114155000Y-81591500D02*
X115625000Y-81591500D01*
X123130233Y-86108000D02*
X123422767Y-86108000D01*
X123130233Y-85088000D02*
X123422767Y-85088000D01*
X123130233Y-88394000D02*
X123422767Y-88394000D01*
X123130233Y-87374000D02*
X123422767Y-87374000D01*
X92710000Y-64770000D02*
X95310000Y-64770000D01*
X44390000Y-62170000D02*
X44390000Y-67370000D01*
X92710000Y-62170000D02*
X92710000Y-64770000D01*
X95310000Y-62170000D02*
X95310000Y-63500000D01*
X95310000Y-64770000D02*
X95310000Y-67370000D01*
X92710000Y-62170000D02*
X44390000Y-62170000D01*
X95310000Y-67370000D02*
X44390000Y-67370000D01*
X93980000Y-62170000D02*
X95310000Y-62170000D01*
X121045500Y-58510276D02*
X121045500Y-59019724D01*
X120000500Y-58510276D02*
X120000500Y-59019724D01*
X135816000Y-71795500D02*
X135816000Y-80995500D01*
X121966000Y-81195500D02*
X120916000Y-81195500D01*
X121116000Y-80995500D02*
X121116000Y-78395500D01*
X127016000Y-71795500D02*
X135816000Y-71795500D01*
X121116000Y-74495500D02*
X121116000Y-71795500D01*
X120916000Y-80145500D02*
X120916000Y-81195500D01*
X135816000Y-80995500D02*
X121116000Y-80995500D01*
X121116000Y-71795500D02*
X123016000Y-71795500D01*
X65060000Y-46000000D02*
X65060000Y-46935000D01*
X46360000Y-44862917D02*
X46360000Y-45137083D01*
X54360000Y-42790000D02*
X54360000Y-43137083D01*
X58360000Y-44862917D02*
X58360000Y-45137083D01*
X64360000Y-44862917D02*
X64360000Y-45065000D01*
X61640000Y-42790000D02*
X61640000Y-43137083D01*
X53640000Y-44862917D02*
X53640000Y-45137083D01*
X51640000Y-42790000D02*
X51640000Y-43137083D01*
X50360000Y-44862917D02*
X50360000Y-45137083D01*
X59640000Y-44862917D02*
X59640000Y-45137083D01*
X47640000Y-44862917D02*
X47640000Y-45137083D01*
X49640000Y-42790000D02*
X49640000Y-43137083D01*
X59640000Y-42790000D02*
X59640000Y-43137083D01*
X55640000Y-44862917D02*
X55640000Y-45137083D01*
X52360000Y-44862917D02*
X52360000Y-45137083D01*
X56360000Y-44862917D02*
X56360000Y-45137083D01*
X45640000Y-44862917D02*
X45640000Y-45137083D01*
X63640000Y-44862917D02*
X63640000Y-45065000D01*
X63640000Y-42790000D02*
X63640000Y-43137083D01*
X57640000Y-44862917D02*
X57640000Y-45137083D01*
X55640000Y-42790000D02*
X55640000Y-43137083D01*
X65060000Y-46935000D02*
X64000000Y-46935000D01*
X46360000Y-42790000D02*
X46360000Y-43137083D01*
X53640000Y-42790000D02*
X53640000Y-43137083D01*
X60360000Y-44862917D02*
X60360000Y-45137083D01*
X60360000Y-42790000D02*
X60360000Y-43137083D01*
X45640000Y-42790000D02*
X45640000Y-43137083D01*
X57640000Y-42790000D02*
X57640000Y-43137083D01*
X47640000Y-42790000D02*
X47640000Y-43137083D01*
X52360000Y-42790000D02*
X52360000Y-43137083D01*
X58360000Y-42790000D02*
X58360000Y-43137083D01*
X49640000Y-44862917D02*
X49640000Y-45137083D01*
X48360000Y-42790000D02*
X48360000Y-43137083D01*
X50360000Y-42790000D02*
X50360000Y-43137083D01*
X51640000Y-44862917D02*
X51640000Y-45137083D01*
X62360000Y-44862917D02*
X62360000Y-45137083D01*
X48360000Y-44862917D02*
X48360000Y-45137083D01*
X62360000Y-42790000D02*
X62360000Y-43137083D01*
X61640000Y-44862917D02*
X61640000Y-45137083D01*
X54360000Y-44862917D02*
X54360000Y-45137083D01*
X64360000Y-42790000D02*
X64360000Y-43137083D01*
X56360000Y-42790000D02*
X56360000Y-43137083D01*
X46436233Y-68070000D02*
X46728767Y-68070000D01*
X46436233Y-69090000D02*
X46728767Y-69090000D01*
X115457500Y-58510276D02*
X115457500Y-59019724D01*
X114412500Y-58510276D02*
X114412500Y-59019724D01*
X50083767Y-83310000D02*
X49791233Y-83310000D01*
X50083767Y-84330000D02*
X49791233Y-84330000D01*
X124083000Y-60210000D02*
X124083000Y-61710000D01*
X129833000Y-57710000D02*
X125333000Y-57710000D01*
X131083000Y-61710000D02*
X131083000Y-60210000D01*
X125333000Y-64210000D02*
X129833000Y-64210000D01*
X109580000Y-100520000D02*
X109580000Y-100110000D01*
X103780000Y-100520000D02*
X103780000Y-100110000D01*
X98204285Y-109150000D02*
X98204285Y-100520000D01*
X106320000Y-100520000D02*
X106320000Y-100110000D01*
X97730000Y-96520000D02*
X97730000Y-95410000D01*
X101960000Y-98010000D02*
X101960000Y-97570000D01*
X99739520Y-109150000D02*
X99739520Y-100520000D01*
X99503330Y-109150000D02*
X99503330Y-100520000D01*
X105410000Y-109150000D02*
X105410000Y-100520000D01*
X106320000Y-98010000D02*
X106320000Y-97570000D01*
X99420000Y-100520000D02*
X99420000Y-100110000D01*
X97730000Y-100520000D02*
X113090000Y-100520000D01*
X98700000Y-98010000D02*
X98700000Y-97630000D01*
X107950000Y-109150000D02*
X107950000Y-100520000D01*
X99975710Y-109150000D02*
X99975710Y-100520000D01*
X98912855Y-109150000D02*
X98912855Y-100520000D01*
X98440475Y-109150000D02*
X98440475Y-100520000D01*
X111400000Y-100520000D02*
X111400000Y-100110000D01*
X108860000Y-98010000D02*
X108860000Y-97570000D01*
X109580000Y-98010000D02*
X109580000Y-97570000D01*
X98322380Y-109150000D02*
X98322380Y-100520000D01*
X104500000Y-100520000D02*
X104500000Y-100110000D01*
X110490000Y-109150000D02*
X110490000Y-100520000D01*
X101240000Y-98010000D02*
X101240000Y-97570000D01*
X100093805Y-109150000D02*
X100093805Y-100520000D01*
X107040000Y-98010000D02*
X107040000Y-97570000D01*
X104500000Y-98010000D02*
X104500000Y-97570000D01*
X97730000Y-109150000D02*
X113090000Y-109150000D01*
X98558570Y-109150000D02*
X98558570Y-100520000D01*
X98676665Y-109150000D02*
X98676665Y-100520000D01*
X99030950Y-109150000D02*
X99030950Y-100520000D01*
X99621425Y-109150000D02*
X99621425Y-100520000D01*
X107040000Y-100520000D02*
X107040000Y-100110000D01*
X99149045Y-109150000D02*
X99149045Y-100520000D01*
X97850000Y-109150000D02*
X97850000Y-100520000D01*
X98700000Y-100520000D02*
X98700000Y-100110000D01*
X99385235Y-109150000D02*
X99385235Y-100520000D01*
X101960000Y-100520000D02*
X101960000Y-100110000D01*
X99857615Y-109150000D02*
X99857615Y-100520000D01*
X102870000Y-109150000D02*
X102870000Y-100520000D01*
X98086190Y-109150000D02*
X98086190Y-100520000D01*
X97730000Y-95410000D02*
X99060000Y-95410000D01*
X103780000Y-98010000D02*
X103780000Y-97570000D01*
X99267140Y-109150000D02*
X99267140Y-100520000D01*
X113090000Y-109150000D02*
X113090000Y-100520000D01*
X98794760Y-109150000D02*
X98794760Y-100520000D01*
X112120000Y-98010000D02*
X112120000Y-97570000D01*
X111400000Y-98010000D02*
X111400000Y-97570000D01*
X100330000Y-109150000D02*
X100330000Y-100520000D01*
X108860000Y-100520000D02*
X108860000Y-100110000D01*
X100211900Y-109150000D02*
X100211900Y-100520000D01*
X99420000Y-98010000D02*
X99420000Y-97630000D01*
X112120000Y-100520000D02*
X112120000Y-100110000D01*
X97730000Y-109150000D02*
X97730000Y-100520000D01*
X97968095Y-109150000D02*
X97968095Y-100520000D01*
X101240000Y-100520000D02*
X101240000Y-100110000D01*
X85150000Y-69790000D02*
X85150000Y-71120000D01*
X85150000Y-74990000D02*
X44390000Y-74990000D01*
X83820000Y-69790000D02*
X85150000Y-69790000D01*
X82550000Y-69790000D02*
X82550000Y-72390000D01*
X44390000Y-69790000D02*
X44390000Y-74990000D01*
X82550000Y-69790000D02*
X44390000Y-69790000D01*
X85150000Y-72390000D02*
X85150000Y-74990000D01*
X82550000Y-72390000D02*
X85150000Y-72390000D01*
X114200000Y-62410000D02*
X114200000Y-64870000D01*
X115670000Y-64870000D02*
X115670000Y-62410000D01*
X114200000Y-64870000D02*
X115670000Y-64870000D01*
X101172000Y-78846233D02*
X101172000Y-79138767D01*
X102192000Y-78846233D02*
X102192000Y-79138767D01*
X104901276Y-56112500D02*
X105410724Y-56112500D01*
X104901276Y-55067500D02*
X105410724Y-55067500D01*
X115412500Y-75231776D02*
X115412500Y-75741224D01*
X114367500Y-75231776D02*
X114367500Y-75741224D01*
X127403276Y-55067500D02*
X127912724Y-55067500D01*
X127403276Y-56112500D02*
X127912724Y-56112500D01*
X46990000Y-59750000D02*
X95310000Y-59750000D01*
X46990000Y-57150000D02*
X44390000Y-57150000D01*
X46990000Y-59750000D02*
X46990000Y-57150000D01*
X44390000Y-54550000D02*
X95310000Y-54550000D01*
X44390000Y-59750000D02*
X44390000Y-58420000D01*
X45720000Y-59750000D02*
X44390000Y-59750000D01*
X95310000Y-59750000D02*
X95310000Y-54550000D01*
X44390000Y-57150000D02*
X44390000Y-54550000D01*
X107406000Y-57710000D02*
X102906000Y-57710000D01*
X101656000Y-60210000D02*
X101656000Y-61710000D01*
X102906000Y-64210000D02*
X107406000Y-64210000D01*
X108656000Y-61710000D02*
X108656000Y-60210000D01*
X42420000Y-97528767D02*
X42420000Y-97236233D01*
X41400000Y-97528767D02*
X41400000Y-97236233D01*
X92710000Y-80010000D02*
X95310000Y-80010000D01*
X95310000Y-77410000D02*
X95310000Y-78740000D01*
X52010000Y-77410000D02*
X52010000Y-82610000D01*
X95310000Y-82610000D02*
X52010000Y-82610000D01*
X92710000Y-77410000D02*
X92710000Y-80010000D01*
X93980000Y-77410000D02*
X95310000Y-77410000D01*
X92710000Y-77410000D02*
X52010000Y-77410000D01*
X95310000Y-80010000D02*
X95310000Y-82610000D01*
X131302000Y-96692767D02*
X131302000Y-96400233D01*
X132322000Y-96692767D02*
X132322000Y-96400233D01*
X44390000Y-109150000D02*
X67370000Y-109150000D01*
X65680000Y-100520000D02*
X65680000Y-100110000D01*
X52070000Y-109150000D02*
X52070000Y-100520000D01*
X50440000Y-100520000D02*
X50440000Y-100110000D01*
X63860000Y-98010000D02*
X63860000Y-97570000D01*
X64770000Y-109150000D02*
X64770000Y-100520000D01*
X45690950Y-109150000D02*
X45690950Y-100520000D01*
X45336665Y-109150000D02*
X45336665Y-100520000D01*
X44982380Y-109150000D02*
X44982380Y-100520000D01*
X46163330Y-109150000D02*
X46163330Y-100520000D01*
X44864285Y-109150000D02*
X44864285Y-100520000D01*
X48620000Y-100520000D02*
X48620000Y-100110000D01*
X44390000Y-95410000D02*
X45720000Y-95410000D01*
X45360000Y-98010000D02*
X45360000Y-97630000D01*
X56240000Y-98010000D02*
X56240000Y-97570000D01*
X51160000Y-100520000D02*
X51160000Y-100110000D01*
X58060000Y-100520000D02*
X58060000Y-100110000D01*
X44746190Y-109150000D02*
X44746190Y-100520000D01*
X46635710Y-109150000D02*
X46635710Y-100520000D01*
X55520000Y-100520000D02*
X55520000Y-100110000D01*
X46080000Y-100520000D02*
X46080000Y-100110000D01*
X48620000Y-98010000D02*
X48620000Y-97570000D01*
X52980000Y-100520000D02*
X52980000Y-100110000D01*
X49530000Y-109150000D02*
X49530000Y-100520000D01*
X46753805Y-109150000D02*
X46753805Y-100520000D01*
X50440000Y-98010000D02*
X50440000Y-97570000D01*
X63140000Y-98010000D02*
X63140000Y-97570000D01*
X66400000Y-98010000D02*
X66400000Y-97570000D01*
X52980000Y-98010000D02*
X52980000Y-97570000D01*
X55520000Y-98010000D02*
X55520000Y-97570000D01*
X60600000Y-100520000D02*
X60600000Y-100110000D01*
X45927140Y-109150000D02*
X45927140Y-100520000D01*
X46045235Y-109150000D02*
X46045235Y-100520000D01*
X53700000Y-98010000D02*
X53700000Y-97570000D01*
X63140000Y-100520000D02*
X63140000Y-100110000D01*
X44390000Y-109150000D02*
X44390000Y-100520000D01*
X45809045Y-109150000D02*
X45809045Y-100520000D01*
X62230000Y-109150000D02*
X62230000Y-100520000D01*
X60600000Y-98010000D02*
X60600000Y-97570000D01*
X58060000Y-98010000D02*
X58060000Y-97570000D01*
X53700000Y-100520000D02*
X53700000Y-100110000D01*
X66400000Y-100520000D02*
X66400000Y-100110000D01*
X51160000Y-98010000D02*
X51160000Y-97570000D01*
X45218570Y-109150000D02*
X45218570Y-100520000D01*
X44510000Y-109150000D02*
X44510000Y-100520000D01*
X46990000Y-109150000D02*
X46990000Y-100520000D01*
X46080000Y-98010000D02*
X46080000Y-97630000D01*
X47900000Y-100520000D02*
X47900000Y-100110000D01*
X47900000Y-98010000D02*
X47900000Y-97570000D01*
X46399520Y-109150000D02*
X46399520Y-100520000D01*
X45100475Y-109150000D02*
X45100475Y-100520000D01*
X45572855Y-109150000D02*
X45572855Y-100520000D01*
X46517615Y-109150000D02*
X46517615Y-100520000D01*
X44390000Y-100520000D02*
X67370000Y-100520000D01*
X54610000Y-109150000D02*
X54610000Y-100520000D01*
X61320000Y-98010000D02*
X61320000Y-97570000D01*
X44390000Y-96520000D02*
X44390000Y-95410000D01*
X45360000Y-100520000D02*
X45360000Y-100110000D01*
X58780000Y-100520000D02*
X58780000Y-100110000D01*
X59690000Y-109150000D02*
X59690000Y-100520000D01*
X44628095Y-109150000D02*
X44628095Y-100520000D01*
X46281425Y-109150000D02*
X46281425Y-100520000D01*
X67370000Y-109150000D02*
X67370000Y-100520000D01*
X65680000Y-98010000D02*
X65680000Y-97570000D01*
X56240000Y-100520000D02*
X56240000Y-100110000D01*
X61320000Y-100520000D02*
X61320000Y-100110000D01*
X45454760Y-109150000D02*
X45454760Y-100520000D01*
X57150000Y-109150000D02*
X57150000Y-100520000D01*
X46871900Y-109150000D02*
X46871900Y-100520000D01*
X63860000Y-100520000D02*
X63860000Y-100110000D01*
X58780000Y-98010000D02*
X58780000Y-97570000D01*
X118251500Y-58510276D02*
X118251500Y-59019724D01*
X117206500Y-58510276D02*
X117206500Y-59019724D01*
X109492267Y-87529000D02*
X109199733Y-87529000D01*
X109492267Y-86509000D02*
X109199733Y-86509000D01*
X88540000Y-100520000D02*
X88540000Y-100110000D01*
X75226190Y-109150000D02*
X75226190Y-100520000D01*
X86000000Y-98010000D02*
X86000000Y-97570000D01*
X77470000Y-109150000D02*
X77470000Y-100520000D01*
X75580475Y-109150000D02*
X75580475Y-100520000D01*
X77115710Y-109150000D02*
X77115710Y-100520000D01*
X76052855Y-109150000D02*
X76052855Y-100520000D01*
X81640000Y-100520000D02*
X81640000Y-100110000D01*
X86720000Y-100520000D02*
X86720000Y-100110000D01*
X75462380Y-109150000D02*
X75462380Y-100520000D01*
X74990000Y-109150000D02*
X74990000Y-100520000D01*
X76560000Y-98010000D02*
X76560000Y-97630000D01*
X90230000Y-109150000D02*
X90230000Y-100520000D01*
X84180000Y-100520000D02*
X84180000Y-100110000D01*
X74870000Y-109150000D02*
X74870000Y-100520000D01*
X77351900Y-109150000D02*
X77351900Y-100520000D01*
X75108095Y-109150000D02*
X75108095Y-100520000D01*
X75816665Y-109150000D02*
X75816665Y-100520000D01*
X80010000Y-109150000D02*
X80010000Y-100520000D01*
X78380000Y-98010000D02*
X78380000Y-97570000D01*
X83460000Y-98010000D02*
X83460000Y-97570000D01*
X82550000Y-109150000D02*
X82550000Y-100520000D01*
X76560000Y-100520000D02*
X76560000Y-100110000D01*
X76407140Y-109150000D02*
X76407140Y-100520000D01*
X74870000Y-109150000D02*
X90230000Y-109150000D01*
X81640000Y-98010000D02*
X81640000Y-97570000D01*
X84180000Y-98010000D02*
X84180000Y-97570000D01*
X86000000Y-100520000D02*
X86000000Y-100110000D01*
X75840000Y-98010000D02*
X75840000Y-97630000D01*
X74870000Y-100520000D02*
X90230000Y-100520000D01*
X83460000Y-100520000D02*
X83460000Y-100110000D01*
X76289045Y-109150000D02*
X76289045Y-100520000D01*
X76879520Y-109150000D02*
X76879520Y-100520000D01*
X76997615Y-109150000D02*
X76997615Y-100520000D01*
X88540000Y-98010000D02*
X88540000Y-97570000D01*
X76761425Y-109150000D02*
X76761425Y-100520000D01*
X89260000Y-98010000D02*
X89260000Y-97570000D01*
X85090000Y-109150000D02*
X85090000Y-100520000D01*
X75934760Y-109150000D02*
X75934760Y-100520000D01*
X89260000Y-100520000D02*
X89260000Y-100110000D01*
X75698570Y-109150000D02*
X75698570Y-100520000D01*
X78380000Y-100520000D02*
X78380000Y-100110000D01*
X87630000Y-109150000D02*
X87630000Y-100520000D01*
X74870000Y-95410000D02*
X76200000Y-95410000D01*
X76170950Y-109150000D02*
X76170950Y-100520000D01*
X75344285Y-109150000D02*
X75344285Y-100520000D01*
X80920000Y-100520000D02*
X80920000Y-100110000D01*
X77233805Y-109150000D02*
X77233805Y-100520000D01*
X74870000Y-96520000D02*
X74870000Y-95410000D01*
X76643330Y-109150000D02*
X76643330Y-100520000D01*
X75840000Y-100520000D02*
X75840000Y-100110000D01*
X80920000Y-98010000D02*
X80920000Y-97570000D01*
X79100000Y-100520000D02*
X79100000Y-100110000D01*
X86720000Y-98010000D02*
X86720000Y-97570000D01*
X76525235Y-109150000D02*
X76525235Y-100520000D01*
X79100000Y-98010000D02*
X79100000Y-97570000D01*
X112663500Y-58510276D02*
X112663500Y-59019724D01*
X111618500Y-58510276D02*
X111618500Y-59019724D01*
X118123000Y-90274000D02*
X118123000Y-92734000D01*
X119593000Y-92734000D02*
X119593000Y-90274000D01*
X119593000Y-90274000D02*
X118123000Y-90274000D01*
X96518000Y-80563767D02*
X96518000Y-80271233D01*
X97538000Y-80563767D02*
X97538000Y-80271233D01*
X72900000Y-97236233D02*
X72900000Y-97528767D01*
X71880000Y-97236233D02*
X71880000Y-97528767D01*
X111406000Y-64870000D02*
X112876000Y-64870000D01*
X112876000Y-64870000D02*
X112876000Y-62410000D01*
X111406000Y-62410000D02*
X111406000Y-64870000D01*
X129016000Y-96692767D02*
X129016000Y-96400233D01*
X130036000Y-96692767D02*
X130036000Y-96400233D01*
X116994000Y-62410000D02*
X116994000Y-64870000D01*
X118464000Y-64870000D02*
X118464000Y-62410000D01*
X116994000Y-64870000D02*
X118464000Y-64870000D01*
X121304000Y-92384000D02*
X121304000Y-96144000D01*
X121304000Y-96144000D02*
X122564000Y-96144000D01*
X128124000Y-90134000D02*
X128124000Y-96144000D01*
X128124000Y-96144000D02*
X126864000Y-96144000D01*
X119788000Y-64870000D02*
X121258000Y-64870000D01*
X119788000Y-62410000D02*
X119788000Y-64870000D01*
X121258000Y-64870000D02*
X121258000Y-62410000D01*
X103360000Y-44862917D02*
X103360000Y-45137083D01*
X92640000Y-42790000D02*
X92640000Y-43137083D01*
X98640000Y-42790000D02*
X98640000Y-43137083D01*
X112060000Y-46000000D02*
X112060000Y-46935000D01*
X101360000Y-44862917D02*
X101360000Y-45137083D01*
X95360000Y-42790000D02*
X95360000Y-43137083D01*
X94640000Y-42790000D02*
X94640000Y-43137083D01*
X95360000Y-44862917D02*
X95360000Y-45137083D01*
X92640000Y-44862917D02*
X92640000Y-45137083D01*
X104640000Y-44862917D02*
X104640000Y-45137083D01*
X96640000Y-44862917D02*
X96640000Y-45137083D01*
X105360000Y-42790000D02*
X105360000Y-43137083D01*
X97360000Y-44862917D02*
X97360000Y-45137083D01*
X106640000Y-44862917D02*
X106640000Y-45137083D01*
X107360000Y-44862917D02*
X107360000Y-45137083D01*
X93360000Y-44862917D02*
X93360000Y-45137083D01*
X93360000Y-42790000D02*
X93360000Y-43137083D01*
X103360000Y-42790000D02*
X103360000Y-43137083D01*
X100640000Y-42790000D02*
X100640000Y-43137083D01*
X98640000Y-44862917D02*
X98640000Y-45137083D01*
X101360000Y-42790000D02*
X101360000Y-43137083D01*
X108640000Y-42790000D02*
X108640000Y-43137083D01*
X99360000Y-44862917D02*
X99360000Y-45137083D01*
X110640000Y-42790000D02*
X110640000Y-43137083D01*
X97360000Y-42790000D02*
X97360000Y-43137083D01*
X102640000Y-42790000D02*
X102640000Y-43137083D01*
X108640000Y-44862917D02*
X108640000Y-45137083D01*
X110640000Y-44862917D02*
X110640000Y-45065000D01*
X109360000Y-42790000D02*
X109360000Y-43137083D01*
X100640000Y-44862917D02*
X100640000Y-45137083D01*
X111360000Y-44862917D02*
X111360000Y-45065000D01*
X99360000Y-42790000D02*
X99360000Y-43137083D01*
X111360000Y-42790000D02*
X111360000Y-43137083D01*
X107360000Y-42790000D02*
X107360000Y-43137083D01*
X112060000Y-46935000D02*
X111000000Y-46935000D01*
X96640000Y-42790000D02*
X96640000Y-43137083D01*
X105360000Y-44862917D02*
X105360000Y-45137083D01*
X102640000Y-44862917D02*
X102640000Y-45137083D01*
X106640000Y-42790000D02*
X106640000Y-43137083D01*
X94640000Y-44862917D02*
X94640000Y-45137083D01*
X104640000Y-42790000D02*
X104640000Y-43137083D01*
X109360000Y-44862917D02*
X109360000Y-45137083D01*
X69860000Y-42790000D02*
X69860000Y-43137083D01*
X83860000Y-42790000D02*
X83860000Y-43137083D01*
X85860000Y-42790000D02*
X85860000Y-43137083D01*
X83140000Y-42790000D02*
X83140000Y-43137083D01*
X75860000Y-44862917D02*
X75860000Y-45137083D01*
X73140000Y-42790000D02*
X73140000Y-43137083D01*
X88560000Y-46000000D02*
X88560000Y-46935000D01*
X87860000Y-44862917D02*
X87860000Y-45065000D01*
X87140000Y-44862917D02*
X87140000Y-45065000D01*
X77140000Y-42790000D02*
X77140000Y-43137083D01*
X85140000Y-42790000D02*
X85140000Y-43137083D01*
X79140000Y-44862917D02*
X79140000Y-45137083D01*
X75140000Y-44862917D02*
X75140000Y-45137083D01*
X83140000Y-44862917D02*
X83140000Y-45137083D01*
X75140000Y-42790000D02*
X75140000Y-43137083D01*
X69140000Y-44862917D02*
X69140000Y-45137083D01*
X69140000Y-42790000D02*
X69140000Y-43137083D01*
X77860000Y-44862917D02*
X77860000Y-45137083D01*
X85860000Y-44862917D02*
X85860000Y-45137083D01*
X79860000Y-42790000D02*
X79860000Y-43137083D01*
X81140000Y-42790000D02*
X81140000Y-43137083D01*
X85140000Y-44862917D02*
X85140000Y-45137083D01*
X73860000Y-44862917D02*
X73860000Y-45137083D01*
X77140000Y-44862917D02*
X77140000Y-45137083D01*
X79860000Y-44862917D02*
X79860000Y-45137083D01*
X88560000Y-46935000D02*
X87500000Y-46935000D01*
X73140000Y-44862917D02*
X73140000Y-45137083D01*
X69860000Y-44862917D02*
X69860000Y-45137083D01*
X71860000Y-42790000D02*
X71860000Y-43137083D01*
X75860000Y-42790000D02*
X75860000Y-43137083D01*
X71140000Y-44862917D02*
X71140000Y-45137083D01*
X81860000Y-42790000D02*
X81860000Y-43137083D01*
X87860000Y-42790000D02*
X87860000Y-43137083D01*
X83860000Y-44862917D02*
X83860000Y-45137083D01*
X87140000Y-42790000D02*
X87140000Y-43137083D01*
X81140000Y-44862917D02*
X81140000Y-45137083D01*
X71140000Y-42790000D02*
X71140000Y-43137083D01*
X73860000Y-42790000D02*
X73860000Y-43137083D01*
X81860000Y-44862917D02*
X81860000Y-45137083D01*
X79140000Y-42790000D02*
X79140000Y-43137083D01*
X71860000Y-44862917D02*
X71860000Y-45137083D01*
X77860000Y-42790000D02*
X77860000Y-43137083D01*
X97538000Y-65323767D02*
X97538000Y-65031233D01*
X96518000Y-65323767D02*
X96518000Y-65031233D01*
X109492267Y-85243000D02*
X109199733Y-85243000D01*
X109492267Y-84223000D02*
X109199733Y-84223000D01*
X92710000Y-87630000D02*
X95310000Y-87630000D01*
X95310000Y-87630000D02*
X95310000Y-90230000D01*
X92710000Y-85030000D02*
X49470000Y-85030000D01*
X92710000Y-85030000D02*
X92710000Y-87630000D01*
X95310000Y-85030000D02*
X95310000Y-86360000D01*
X95310000Y-90230000D02*
X49470000Y-90230000D01*
X49470000Y-85030000D02*
X49470000Y-90230000D01*
X93980000Y-85030000D02*
X95310000Y-85030000D01*
X118335500Y-96243224D02*
X118335500Y-95733776D01*
X119380500Y-96243224D02*
X119380500Y-95733776D01*
X112670000Y-78762000D02*
X112670000Y-80262000D01*
X106040000Y-80262000D02*
X106040000Y-83092000D01*
X105770000Y-78762000D02*
X105770000Y-80262000D01*
X105770000Y-80262000D02*
X106040000Y-80262000D01*
X112670000Y-80262000D02*
X112400000Y-80262000D01*
X112400000Y-80262000D02*
X112400000Y-81362000D01*
X46436233Y-75690000D02*
X46728767Y-75690000D01*
X46436233Y-76710000D02*
X46728767Y-76710000D01*
%LPC*%
D14*
X45720000Y-53340000D03*
X47445000Y-53340000D03*
X45720000Y-60960000D03*
X47445000Y-60960000D03*
D15*
X103968000Y-78130000D03*
X103968000Y-79855000D03*
X95250000Y-96520000D03*
X95250000Y-98245000D03*
D16*
X114890000Y-80806500D03*
X114890000Y-79056500D03*
D14*
X122414000Y-85598000D03*
X124139000Y-85598000D03*
X122414000Y-87884000D03*
X124139000Y-87884000D03*
D17*
X93980000Y-63500000D03*
D18*
X93980000Y-66040000D03*
X91440000Y-63500000D03*
X91440000Y-66040000D03*
X88900000Y-63500000D03*
X88900000Y-66040000D03*
X86360000Y-63500000D03*
X86360000Y-66040000D03*
X83820000Y-63500000D03*
X83820000Y-66040000D03*
X81280000Y-63500000D03*
X81280000Y-66040000D03*
X78740000Y-63500000D03*
X78740000Y-66040000D03*
X76200000Y-63500000D03*
X76200000Y-66040000D03*
X73660000Y-63500000D03*
X73660000Y-66040000D03*
X71120000Y-63500000D03*
X71120000Y-66040000D03*
X68580000Y-63500000D03*
X68580000Y-66040000D03*
X66040000Y-63500000D03*
X66040000Y-66040000D03*
X63500000Y-63500000D03*
X63500000Y-66040000D03*
X60960000Y-63500000D03*
X60960000Y-66040000D03*
X58420000Y-63500000D03*
X58420000Y-66040000D03*
X55880000Y-63500000D03*
X55880000Y-66040000D03*
X53340000Y-63500000D03*
X53340000Y-66040000D03*
X50800000Y-63500000D03*
X50800000Y-66040000D03*
X48260000Y-63500000D03*
X48260000Y-66040000D03*
X45720000Y-63500000D03*
X45720000Y-66040000D03*
D19*
X120523000Y-59677500D03*
X120523000Y-57852500D03*
D20*
X122016000Y-76395500D03*
D21*
X128016000Y-76395500D03*
D22*
X125016000Y-71695500D03*
D23*
X64000000Y-46000000D03*
D24*
X64000000Y-44000000D03*
X62000000Y-46000000D03*
X62000000Y-44000000D03*
X60000000Y-46000000D03*
X60000000Y-44000000D03*
X58000000Y-46000000D03*
X58000000Y-44000000D03*
X56000000Y-46000000D03*
X56000000Y-44000000D03*
X54000000Y-46000000D03*
X54000000Y-44000000D03*
X52000000Y-46000000D03*
X52000000Y-44000000D03*
X50000000Y-46000000D03*
X50000000Y-44000000D03*
X48000000Y-46000000D03*
X48000000Y-44000000D03*
X46000000Y-46000000D03*
X46000000Y-44000000D03*
D14*
X45720000Y-68580000D03*
X47445000Y-68580000D03*
D19*
X114935000Y-59677500D03*
X114935000Y-57852500D03*
D25*
X50800000Y-83820000D03*
X49075000Y-83820000D03*
D26*
X124333000Y-63210000D03*
X130833000Y-63210000D03*
X130833000Y-58710000D03*
X124333000Y-58710000D03*
D17*
X99060000Y-96520000D03*
D18*
X99060000Y-99060000D03*
X101600000Y-96520000D03*
X101600000Y-99060000D03*
X104140000Y-96520000D03*
X104140000Y-99060000D03*
X106680000Y-96520000D03*
X106680000Y-99060000D03*
X109220000Y-96520000D03*
X109220000Y-99060000D03*
X111760000Y-96520000D03*
X111760000Y-99060000D03*
D17*
X83820000Y-71120000D03*
D18*
X83820000Y-73660000D03*
X81280000Y-71120000D03*
X81280000Y-73660000D03*
X78740000Y-71120000D03*
X78740000Y-73660000D03*
X76200000Y-71120000D03*
X76200000Y-73660000D03*
X73660000Y-71120000D03*
X73660000Y-73660000D03*
X71120000Y-71120000D03*
X71120000Y-73660000D03*
X68580000Y-71120000D03*
X68580000Y-73660000D03*
X66040000Y-71120000D03*
X66040000Y-73660000D03*
X63500000Y-71120000D03*
X63500000Y-73660000D03*
X60960000Y-71120000D03*
X60960000Y-73660000D03*
X58420000Y-71120000D03*
X58420000Y-73660000D03*
X55880000Y-71120000D03*
X55880000Y-73660000D03*
X53340000Y-71120000D03*
X53340000Y-73660000D03*
X50800000Y-71120000D03*
X50800000Y-73660000D03*
X48260000Y-71120000D03*
X48260000Y-73660000D03*
X45720000Y-71120000D03*
X45720000Y-73660000D03*
D16*
X114935000Y-62335000D03*
X114935000Y-64085000D03*
D15*
X101682000Y-78130000D03*
X101682000Y-79855000D03*
D27*
X106068500Y-55590000D03*
X104243500Y-55590000D03*
D19*
X114890000Y-74574000D03*
X114890000Y-76399000D03*
D27*
X128570500Y-55590000D03*
X126745500Y-55590000D03*
D17*
X45720000Y-58420000D03*
D18*
X45720000Y-55880000D03*
X48260000Y-58420000D03*
X48260000Y-55880000D03*
X50800000Y-58420000D03*
X50800000Y-55880000D03*
X53340000Y-58420000D03*
X53340000Y-55880000D03*
X55880000Y-58420000D03*
X55880000Y-55880000D03*
X58420000Y-58420000D03*
X58420000Y-55880000D03*
X60960000Y-58420000D03*
X60960000Y-55880000D03*
X63500000Y-58420000D03*
X63500000Y-55880000D03*
X66040000Y-58420000D03*
X66040000Y-55880000D03*
X68580000Y-58420000D03*
X68580000Y-55880000D03*
X71120000Y-58420000D03*
X71120000Y-55880000D03*
X73660000Y-58420000D03*
X73660000Y-55880000D03*
X76200000Y-58420000D03*
X76200000Y-55880000D03*
X78740000Y-58420000D03*
X78740000Y-55880000D03*
X81280000Y-58420000D03*
X81280000Y-55880000D03*
X83820000Y-58420000D03*
X83820000Y-55880000D03*
X86360000Y-58420000D03*
X86360000Y-55880000D03*
X88900000Y-58420000D03*
X88900000Y-55880000D03*
X91440000Y-58420000D03*
X91440000Y-55880000D03*
X93980000Y-58420000D03*
X93980000Y-55880000D03*
D26*
X108406000Y-63210000D03*
X101906000Y-63210000D03*
X108406000Y-58710000D03*
X101906000Y-58710000D03*
D28*
X41910000Y-98245000D03*
X41910000Y-96520000D03*
D17*
X93980000Y-78740000D03*
D18*
X93980000Y-81280000D03*
X91440000Y-78740000D03*
X91440000Y-81280000D03*
X88900000Y-78740000D03*
X88900000Y-81280000D03*
X86360000Y-78740000D03*
X86360000Y-81280000D03*
X83820000Y-78740000D03*
X83820000Y-81280000D03*
X81280000Y-78740000D03*
X81280000Y-81280000D03*
X78740000Y-78740000D03*
X78740000Y-81280000D03*
X76200000Y-78740000D03*
X76200000Y-81280000D03*
X73660000Y-78740000D03*
X73660000Y-81280000D03*
X71120000Y-78740000D03*
X71120000Y-81280000D03*
X68580000Y-78740000D03*
X68580000Y-81280000D03*
X66040000Y-78740000D03*
X66040000Y-81280000D03*
X63500000Y-78740000D03*
X63500000Y-81280000D03*
X60960000Y-78740000D03*
X60960000Y-81280000D03*
X58420000Y-78740000D03*
X58420000Y-81280000D03*
X55880000Y-78740000D03*
X55880000Y-81280000D03*
X53340000Y-78740000D03*
X53340000Y-81280000D03*
D28*
X131812000Y-97409000D03*
X131812000Y-95684000D03*
D17*
X45720000Y-96520000D03*
D18*
X45720000Y-99060000D03*
X48260000Y-96520000D03*
X48260000Y-99060000D03*
X50800000Y-96520000D03*
X50800000Y-99060000D03*
X53340000Y-96520000D03*
X53340000Y-99060000D03*
X55880000Y-96520000D03*
X55880000Y-99060000D03*
X58420000Y-96520000D03*
X58420000Y-99060000D03*
X60960000Y-96520000D03*
X60960000Y-99060000D03*
X63500000Y-96520000D03*
X63500000Y-99060000D03*
X66040000Y-96520000D03*
X66040000Y-99060000D03*
D19*
X117729000Y-59677500D03*
X117729000Y-57852500D03*
D25*
X110208500Y-87019000D03*
X108483500Y-87019000D03*
D17*
X76200000Y-96520000D03*
D18*
X76200000Y-99060000D03*
X78740000Y-96520000D03*
X78740000Y-99060000D03*
X81280000Y-96520000D03*
X81280000Y-99060000D03*
X83820000Y-96520000D03*
X83820000Y-99060000D03*
X86360000Y-96520000D03*
X86360000Y-99060000D03*
X88900000Y-96520000D03*
X88900000Y-99060000D03*
D19*
X112141000Y-59677500D03*
X112141000Y-57852500D03*
D29*
X118858000Y-91059000D03*
X118858000Y-92809000D03*
D28*
X97028000Y-81280000D03*
X97028000Y-79555000D03*
D15*
X72390000Y-96520000D03*
X72390000Y-98245000D03*
D16*
X112141000Y-62335000D03*
X112141000Y-64085000D03*
D28*
X129526000Y-97409000D03*
X129526000Y-95684000D03*
D30*
X131445000Y-105410000D03*
X40640000Y-105410000D03*
X131445000Y-46355000D03*
D16*
X117729000Y-62335000D03*
X117729000Y-64085000D03*
D31*
X127014000Y-91084000D03*
X124714000Y-91084000D03*
D32*
X124714000Y-97384000D03*
D31*
X122414000Y-91084000D03*
D16*
X120523000Y-62335000D03*
X120523000Y-64085000D03*
D23*
X111000000Y-46000000D03*
D24*
X111000000Y-44000000D03*
X109000000Y-46000000D03*
X109000000Y-44000000D03*
X107000000Y-46000000D03*
X107000000Y-44000000D03*
X105000000Y-46000000D03*
X105000000Y-44000000D03*
X103000000Y-46000000D03*
X103000000Y-44000000D03*
X101000000Y-46000000D03*
X101000000Y-44000000D03*
X99000000Y-46000000D03*
X99000000Y-44000000D03*
X97000000Y-46000000D03*
X97000000Y-44000000D03*
X95000000Y-46000000D03*
X95000000Y-44000000D03*
X93000000Y-46000000D03*
X93000000Y-44000000D03*
D23*
X87500000Y-46000000D03*
D24*
X87500000Y-44000000D03*
X85500000Y-46000000D03*
X85500000Y-44000000D03*
X83500000Y-46000000D03*
X83500000Y-44000000D03*
X81500000Y-46000000D03*
X81500000Y-44000000D03*
X79500000Y-46000000D03*
X79500000Y-44000000D03*
X77500000Y-46000000D03*
X77500000Y-44000000D03*
X75500000Y-46000000D03*
X75500000Y-44000000D03*
X73500000Y-46000000D03*
X73500000Y-44000000D03*
X71500000Y-46000000D03*
X71500000Y-44000000D03*
X69500000Y-46000000D03*
X69500000Y-44000000D03*
D28*
X97028000Y-66040000D03*
X97028000Y-64315000D03*
D30*
X40640000Y-46355000D03*
D25*
X110208500Y-84733000D03*
X108483500Y-84733000D03*
D17*
X93980000Y-86360000D03*
D18*
X93980000Y-88900000D03*
X91440000Y-86360000D03*
X91440000Y-88900000D03*
X88900000Y-86360000D03*
X88900000Y-88900000D03*
X86360000Y-86360000D03*
X86360000Y-88900000D03*
X83820000Y-86360000D03*
X83820000Y-88900000D03*
X81280000Y-86360000D03*
X81280000Y-88900000D03*
X78740000Y-86360000D03*
X78740000Y-88900000D03*
X76200000Y-86360000D03*
X76200000Y-88900000D03*
X73660000Y-86360000D03*
X73660000Y-88900000D03*
X71120000Y-86360000D03*
X71120000Y-88900000D03*
X68580000Y-86360000D03*
X68580000Y-88900000D03*
X66040000Y-86360000D03*
X66040000Y-88900000D03*
X63500000Y-86360000D03*
X63500000Y-88900000D03*
X60960000Y-86360000D03*
X60960000Y-88900000D03*
X58420000Y-86360000D03*
X58420000Y-88900000D03*
X55880000Y-86360000D03*
X55880000Y-88900000D03*
X53340000Y-86360000D03*
X53340000Y-88900000D03*
X50800000Y-86360000D03*
X50800000Y-88900000D03*
D33*
X118858000Y-96901000D03*
X118858000Y-95076000D03*
D34*
X106940000Y-81992000D03*
D35*
X109220000Y-75692000D03*
D34*
X111500000Y-81992000D03*
D30*
X71120000Y-105410000D03*
D14*
X45720000Y-76200000D03*
X47445000Y-76200000D03*
M02*
