%TF.GenerationSoftware,KiCad,Pcbnew,6.0.9-8da3e8f707~116~ubuntu20.04.1*%
%TF.CreationDate,2022-12-14T15:11:29+01:00*%
%TF.ProjectId,ebaz_adaptor,6562617a-5f61-4646-9170-746f722e6b69,rev?*%
%TF.SameCoordinates,Original*%
%TF.FileFunction,Drillmap*%
%TF.FilePolarity,Positive*%
%FSLAX45Y45*%
G04 Gerber Fmt 4.5, Leading zero omitted, Abs format (unit mm)*
G04 Created by KiCad (PCBNEW 6.0.9-8da3e8f707~116~ubuntu20.04.1) date 2022-12-14 15:11:29*
%MOMM*%
%LPD*%
G01*
G04 APERTURE LIST*
%ADD10C,0.100000*%
%ADD11C,0.200000*%
%ADD12C,0.080000*%
%ADD13C,0.110000*%
G04 APERTURE END LIST*
D10*
X13450000Y-11000000D02*
X3750000Y-11000000D01*
X13450000Y-11000000D02*
G75*
G03*
X13600000Y-10850000I0J150000D01*
G01*
X3750000Y-4200000D02*
X13450000Y-4200000D01*
X13600000Y-4350000D02*
X13600000Y-10850000D01*
X3600000Y-10850000D02*
G75*
G03*
X3750000Y-11000000I150000J0D01*
G01*
X3750000Y-4200000D02*
G75*
G03*
X3600000Y-4350000I0J-150000D01*
G01*
X13600000Y-4350000D02*
G75*
G03*
X13450000Y-4200000I-150000J0D01*
G01*
X3600000Y-10850000D02*
X3600000Y-4350000D01*
D11*
D12*
X4560000Y-4360000D02*
X4640000Y-4440000D01*
X4640000Y-4360000D02*
X4560000Y-4440000D01*
X4560000Y-4560000D02*
X4640000Y-4640000D01*
X4640000Y-4560000D02*
X4560000Y-4640000D01*
X4760000Y-4360000D02*
X4840000Y-4440000D01*
X4840000Y-4360000D02*
X4760000Y-4440000D01*
X4760000Y-4560000D02*
X4840000Y-4640000D01*
X4840000Y-4560000D02*
X4760000Y-4640000D01*
X4960000Y-4360000D02*
X5040000Y-4440000D01*
X5040000Y-4360000D02*
X4960000Y-4440000D01*
X4960000Y-4560000D02*
X5040000Y-4640000D01*
X5040000Y-4560000D02*
X4960000Y-4640000D01*
X5160000Y-4360000D02*
X5240000Y-4440000D01*
X5240000Y-4360000D02*
X5160000Y-4440000D01*
X5160000Y-4560000D02*
X5240000Y-4640000D01*
X5240000Y-4560000D02*
X5160000Y-4640000D01*
X5360000Y-4360000D02*
X5440000Y-4440000D01*
X5440000Y-4360000D02*
X5360000Y-4440000D01*
X5360000Y-4560000D02*
X5440000Y-4640000D01*
X5440000Y-4560000D02*
X5360000Y-4640000D01*
X5560000Y-4360000D02*
X5640000Y-4440000D01*
X5640000Y-4360000D02*
X5560000Y-4440000D01*
X5560000Y-4560000D02*
X5640000Y-4640000D01*
X5640000Y-4560000D02*
X5560000Y-4640000D01*
X5760000Y-4360000D02*
X5840000Y-4440000D01*
X5840000Y-4360000D02*
X5760000Y-4440000D01*
X5760000Y-4560000D02*
X5840000Y-4640000D01*
X5840000Y-4560000D02*
X5760000Y-4640000D01*
X5960000Y-4360000D02*
X6040000Y-4440000D01*
X6040000Y-4360000D02*
X5960000Y-4440000D01*
X5960000Y-4560000D02*
X6040000Y-4640000D01*
X6040000Y-4560000D02*
X5960000Y-4640000D01*
X6160000Y-4360000D02*
X6240000Y-4440000D01*
X6240000Y-4360000D02*
X6160000Y-4440000D01*
X6160000Y-4560000D02*
X6240000Y-4640000D01*
X6240000Y-4560000D02*
X6160000Y-4640000D01*
X6360000Y-4360000D02*
X6440000Y-4440000D01*
X6440000Y-4360000D02*
X6360000Y-4440000D01*
X6360000Y-4560000D02*
X6440000Y-4640000D01*
X6440000Y-4560000D02*
X6360000Y-4640000D01*
X6910000Y-4360000D02*
X6990000Y-4440000D01*
X6990000Y-4360000D02*
X6910000Y-4440000D01*
X6910000Y-4560000D02*
X6990000Y-4640000D01*
X6990000Y-4560000D02*
X6910000Y-4640000D01*
X7110000Y-4360000D02*
X7190000Y-4440000D01*
X7190000Y-4360000D02*
X7110000Y-4440000D01*
X7110000Y-4560000D02*
X7190000Y-4640000D01*
X7190000Y-4560000D02*
X7110000Y-4640000D01*
X7310000Y-4360000D02*
X7390000Y-4440000D01*
X7390000Y-4360000D02*
X7310000Y-4440000D01*
X7310000Y-4560000D02*
X7390000Y-4640000D01*
X7390000Y-4560000D02*
X7310000Y-4640000D01*
X7510000Y-4360000D02*
X7590000Y-4440000D01*
X7590000Y-4360000D02*
X7510000Y-4440000D01*
X7510000Y-4560000D02*
X7590000Y-4640000D01*
X7590000Y-4560000D02*
X7510000Y-4640000D01*
X7710000Y-4360000D02*
X7790000Y-4440000D01*
X7790000Y-4360000D02*
X7710000Y-4440000D01*
X7710000Y-4560000D02*
X7790000Y-4640000D01*
X7790000Y-4560000D02*
X7710000Y-4640000D01*
X7910000Y-4360000D02*
X7990000Y-4440000D01*
X7990000Y-4360000D02*
X7910000Y-4440000D01*
X7910000Y-4560000D02*
X7990000Y-4640000D01*
X7990000Y-4560000D02*
X7910000Y-4640000D01*
X8110000Y-4360000D02*
X8190000Y-4440000D01*
X8190000Y-4360000D02*
X8110000Y-4440000D01*
X8110000Y-4560000D02*
X8190000Y-4640000D01*
X8190000Y-4560000D02*
X8110000Y-4640000D01*
X8310000Y-4360000D02*
X8390000Y-4440000D01*
X8390000Y-4360000D02*
X8310000Y-4440000D01*
X8310000Y-4560000D02*
X8390000Y-4640000D01*
X8390000Y-4560000D02*
X8310000Y-4640000D01*
X8510000Y-4360000D02*
X8590000Y-4440000D01*
X8590000Y-4360000D02*
X8510000Y-4440000D01*
X8510000Y-4560000D02*
X8590000Y-4640000D01*
X8590000Y-4560000D02*
X8510000Y-4640000D01*
X8710000Y-4360000D02*
X8790000Y-4440000D01*
X8790000Y-4360000D02*
X8710000Y-4440000D01*
X8710000Y-4560000D02*
X8790000Y-4640000D01*
X8790000Y-4560000D02*
X8710000Y-4640000D01*
X9260000Y-4360000D02*
X9340000Y-4440000D01*
X9340000Y-4360000D02*
X9260000Y-4440000D01*
X9260000Y-4560000D02*
X9340000Y-4640000D01*
X9340000Y-4560000D02*
X9260000Y-4640000D01*
X9460000Y-4360000D02*
X9540000Y-4440000D01*
X9540000Y-4360000D02*
X9460000Y-4440000D01*
X9460000Y-4560000D02*
X9540000Y-4640000D01*
X9540000Y-4560000D02*
X9460000Y-4640000D01*
X9660000Y-4360000D02*
X9740000Y-4440000D01*
X9740000Y-4360000D02*
X9660000Y-4440000D01*
X9660000Y-4560000D02*
X9740000Y-4640000D01*
X9740000Y-4560000D02*
X9660000Y-4640000D01*
X9860000Y-4360000D02*
X9940000Y-4440000D01*
X9940000Y-4360000D02*
X9860000Y-4440000D01*
X9860000Y-4560000D02*
X9940000Y-4640000D01*
X9940000Y-4560000D02*
X9860000Y-4640000D01*
X10060000Y-4360000D02*
X10140000Y-4440000D01*
X10140000Y-4360000D02*
X10060000Y-4440000D01*
X10060000Y-4560000D02*
X10140000Y-4640000D01*
X10140000Y-4560000D02*
X10060000Y-4640000D01*
X10260000Y-4360000D02*
X10340000Y-4440000D01*
X10340000Y-4360000D02*
X10260000Y-4440000D01*
X10260000Y-4560000D02*
X10340000Y-4640000D01*
X10340000Y-4560000D02*
X10260000Y-4640000D01*
X10460000Y-4360000D02*
X10540000Y-4440000D01*
X10540000Y-4360000D02*
X10460000Y-4440000D01*
X10460000Y-4560000D02*
X10540000Y-4640000D01*
X10540000Y-4560000D02*
X10460000Y-4640000D01*
X10660000Y-4360000D02*
X10740000Y-4440000D01*
X10740000Y-4360000D02*
X10660000Y-4440000D01*
X10660000Y-4560000D02*
X10740000Y-4640000D01*
X10740000Y-4560000D02*
X10660000Y-4640000D01*
X10860000Y-4360000D02*
X10940000Y-4440000D01*
X10940000Y-4360000D02*
X10860000Y-4440000D01*
X10860000Y-4560000D02*
X10940000Y-4640000D01*
X10940000Y-4560000D02*
X10860000Y-4640000D01*
X11060000Y-4360000D02*
X11140000Y-4440000D01*
X11140000Y-4360000D02*
X11060000Y-4440000D01*
X11060000Y-4560000D02*
X11140000Y-4640000D01*
X11140000Y-4560000D02*
X11060000Y-4640000D01*
D10*
X4622000Y-5588000D02*
G75*
G03*
X4622000Y-5588000I-50000J0D01*
G01*
X4622000Y-5842000D02*
G75*
G03*
X4622000Y-5842000I-50000J0D01*
G01*
X4622000Y-6350000D02*
G75*
G03*
X4622000Y-6350000I-50000J0D01*
G01*
X4622000Y-6604000D02*
G75*
G03*
X4622000Y-6604000I-50000J0D01*
G01*
X4622000Y-7112000D02*
G75*
G03*
X4622000Y-7112000I-50000J0D01*
G01*
X4622000Y-7366000D02*
G75*
G03*
X4622000Y-7366000I-50000J0D01*
G01*
X4622000Y-9652000D02*
G75*
G03*
X4622000Y-9652000I-50000J0D01*
G01*
X4622000Y-9906000D02*
G75*
G03*
X4622000Y-9906000I-50000J0D01*
G01*
X4876000Y-5588000D02*
G75*
G03*
X4876000Y-5588000I-50000J0D01*
G01*
X4876000Y-5842000D02*
G75*
G03*
X4876000Y-5842000I-50000J0D01*
G01*
X4876000Y-6350000D02*
G75*
G03*
X4876000Y-6350000I-50000J0D01*
G01*
X4876000Y-6604000D02*
G75*
G03*
X4876000Y-6604000I-50000J0D01*
G01*
X4876000Y-7112000D02*
G75*
G03*
X4876000Y-7112000I-50000J0D01*
G01*
X4876000Y-7366000D02*
G75*
G03*
X4876000Y-7366000I-50000J0D01*
G01*
X4876000Y-9652000D02*
G75*
G03*
X4876000Y-9652000I-50000J0D01*
G01*
X4876000Y-9906000D02*
G75*
G03*
X4876000Y-9906000I-50000J0D01*
G01*
X5130000Y-5588000D02*
G75*
G03*
X5130000Y-5588000I-50000J0D01*
G01*
X5130000Y-5842000D02*
G75*
G03*
X5130000Y-5842000I-50000J0D01*
G01*
X5130000Y-6350000D02*
G75*
G03*
X5130000Y-6350000I-50000J0D01*
G01*
X5130000Y-6604000D02*
G75*
G03*
X5130000Y-6604000I-50000J0D01*
G01*
X5130000Y-7112000D02*
G75*
G03*
X5130000Y-7112000I-50000J0D01*
G01*
X5130000Y-7366000D02*
G75*
G03*
X5130000Y-7366000I-50000J0D01*
G01*
X5130000Y-8636000D02*
G75*
G03*
X5130000Y-8636000I-50000J0D01*
G01*
X5130000Y-8890000D02*
G75*
G03*
X5130000Y-8890000I-50000J0D01*
G01*
X5130000Y-9652000D02*
G75*
G03*
X5130000Y-9652000I-50000J0D01*
G01*
X5130000Y-9906000D02*
G75*
G03*
X5130000Y-9906000I-50000J0D01*
G01*
X5384000Y-5588000D02*
G75*
G03*
X5384000Y-5588000I-50000J0D01*
G01*
X5384000Y-5842000D02*
G75*
G03*
X5384000Y-5842000I-50000J0D01*
G01*
X5384000Y-6350000D02*
G75*
G03*
X5384000Y-6350000I-50000J0D01*
G01*
X5384000Y-6604000D02*
G75*
G03*
X5384000Y-6604000I-50000J0D01*
G01*
X5384000Y-7112000D02*
G75*
G03*
X5384000Y-7112000I-50000J0D01*
G01*
X5384000Y-7366000D02*
G75*
G03*
X5384000Y-7366000I-50000J0D01*
G01*
X5384000Y-7874000D02*
G75*
G03*
X5384000Y-7874000I-50000J0D01*
G01*
X5384000Y-8128000D02*
G75*
G03*
X5384000Y-8128000I-50000J0D01*
G01*
X5384000Y-8636000D02*
G75*
G03*
X5384000Y-8636000I-50000J0D01*
G01*
X5384000Y-8890000D02*
G75*
G03*
X5384000Y-8890000I-50000J0D01*
G01*
X5384000Y-9652000D02*
G75*
G03*
X5384000Y-9652000I-50000J0D01*
G01*
X5384000Y-9906000D02*
G75*
G03*
X5384000Y-9906000I-50000J0D01*
G01*
X5638000Y-5588000D02*
G75*
G03*
X5638000Y-5588000I-50000J0D01*
G01*
X5638000Y-5842000D02*
G75*
G03*
X5638000Y-5842000I-50000J0D01*
G01*
X5638000Y-6350000D02*
G75*
G03*
X5638000Y-6350000I-50000J0D01*
G01*
X5638000Y-6604000D02*
G75*
G03*
X5638000Y-6604000I-50000J0D01*
G01*
X5638000Y-7112000D02*
G75*
G03*
X5638000Y-7112000I-50000J0D01*
G01*
X5638000Y-7366000D02*
G75*
G03*
X5638000Y-7366000I-50000J0D01*
G01*
X5638000Y-7874000D02*
G75*
G03*
X5638000Y-7874000I-50000J0D01*
G01*
X5638000Y-8128000D02*
G75*
G03*
X5638000Y-8128000I-50000J0D01*
G01*
X5638000Y-8636000D02*
G75*
G03*
X5638000Y-8636000I-50000J0D01*
G01*
X5638000Y-8890000D02*
G75*
G03*
X5638000Y-8890000I-50000J0D01*
G01*
X5638000Y-9652000D02*
G75*
G03*
X5638000Y-9652000I-50000J0D01*
G01*
X5638000Y-9906000D02*
G75*
G03*
X5638000Y-9906000I-50000J0D01*
G01*
X5892000Y-5588000D02*
G75*
G03*
X5892000Y-5588000I-50000J0D01*
G01*
X5892000Y-5842000D02*
G75*
G03*
X5892000Y-5842000I-50000J0D01*
G01*
X5892000Y-6350000D02*
G75*
G03*
X5892000Y-6350000I-50000J0D01*
G01*
X5892000Y-6604000D02*
G75*
G03*
X5892000Y-6604000I-50000J0D01*
G01*
X5892000Y-7112000D02*
G75*
G03*
X5892000Y-7112000I-50000J0D01*
G01*
X5892000Y-7366000D02*
G75*
G03*
X5892000Y-7366000I-50000J0D01*
G01*
X5892000Y-7874000D02*
G75*
G03*
X5892000Y-7874000I-50000J0D01*
G01*
X5892000Y-8128000D02*
G75*
G03*
X5892000Y-8128000I-50000J0D01*
G01*
X5892000Y-8636000D02*
G75*
G03*
X5892000Y-8636000I-50000J0D01*
G01*
X5892000Y-8890000D02*
G75*
G03*
X5892000Y-8890000I-50000J0D01*
G01*
X5892000Y-9652000D02*
G75*
G03*
X5892000Y-9652000I-50000J0D01*
G01*
X5892000Y-9906000D02*
G75*
G03*
X5892000Y-9906000I-50000J0D01*
G01*
X6146000Y-5588000D02*
G75*
G03*
X6146000Y-5588000I-50000J0D01*
G01*
X6146000Y-5842000D02*
G75*
G03*
X6146000Y-5842000I-50000J0D01*
G01*
X6146000Y-6350000D02*
G75*
G03*
X6146000Y-6350000I-50000J0D01*
G01*
X6146000Y-6604000D02*
G75*
G03*
X6146000Y-6604000I-50000J0D01*
G01*
X6146000Y-7112000D02*
G75*
G03*
X6146000Y-7112000I-50000J0D01*
G01*
X6146000Y-7366000D02*
G75*
G03*
X6146000Y-7366000I-50000J0D01*
G01*
X6146000Y-7874000D02*
G75*
G03*
X6146000Y-7874000I-50000J0D01*
G01*
X6146000Y-8128000D02*
G75*
G03*
X6146000Y-8128000I-50000J0D01*
G01*
X6146000Y-8636000D02*
G75*
G03*
X6146000Y-8636000I-50000J0D01*
G01*
X6146000Y-8890000D02*
G75*
G03*
X6146000Y-8890000I-50000J0D01*
G01*
X6146000Y-9652000D02*
G75*
G03*
X6146000Y-9652000I-50000J0D01*
G01*
X6146000Y-9906000D02*
G75*
G03*
X6146000Y-9906000I-50000J0D01*
G01*
X6400000Y-5588000D02*
G75*
G03*
X6400000Y-5588000I-50000J0D01*
G01*
X6400000Y-5842000D02*
G75*
G03*
X6400000Y-5842000I-50000J0D01*
G01*
X6400000Y-6350000D02*
G75*
G03*
X6400000Y-6350000I-50000J0D01*
G01*
X6400000Y-6604000D02*
G75*
G03*
X6400000Y-6604000I-50000J0D01*
G01*
X6400000Y-7112000D02*
G75*
G03*
X6400000Y-7112000I-50000J0D01*
G01*
X6400000Y-7366000D02*
G75*
G03*
X6400000Y-7366000I-50000J0D01*
G01*
X6400000Y-7874000D02*
G75*
G03*
X6400000Y-7874000I-50000J0D01*
G01*
X6400000Y-8128000D02*
G75*
G03*
X6400000Y-8128000I-50000J0D01*
G01*
X6400000Y-8636000D02*
G75*
G03*
X6400000Y-8636000I-50000J0D01*
G01*
X6400000Y-8890000D02*
G75*
G03*
X6400000Y-8890000I-50000J0D01*
G01*
X6400000Y-9652000D02*
G75*
G03*
X6400000Y-9652000I-50000J0D01*
G01*
X6400000Y-9906000D02*
G75*
G03*
X6400000Y-9906000I-50000J0D01*
G01*
X6654000Y-5588000D02*
G75*
G03*
X6654000Y-5588000I-50000J0D01*
G01*
X6654000Y-5842000D02*
G75*
G03*
X6654000Y-5842000I-50000J0D01*
G01*
X6654000Y-6350000D02*
G75*
G03*
X6654000Y-6350000I-50000J0D01*
G01*
X6654000Y-6604000D02*
G75*
G03*
X6654000Y-6604000I-50000J0D01*
G01*
X6654000Y-7112000D02*
G75*
G03*
X6654000Y-7112000I-50000J0D01*
G01*
X6654000Y-7366000D02*
G75*
G03*
X6654000Y-7366000I-50000J0D01*
G01*
X6654000Y-7874000D02*
G75*
G03*
X6654000Y-7874000I-50000J0D01*
G01*
X6654000Y-8128000D02*
G75*
G03*
X6654000Y-8128000I-50000J0D01*
G01*
X6654000Y-8636000D02*
G75*
G03*
X6654000Y-8636000I-50000J0D01*
G01*
X6654000Y-8890000D02*
G75*
G03*
X6654000Y-8890000I-50000J0D01*
G01*
X6654000Y-9652000D02*
G75*
G03*
X6654000Y-9652000I-50000J0D01*
G01*
X6654000Y-9906000D02*
G75*
G03*
X6654000Y-9906000I-50000J0D01*
G01*
X6908000Y-5588000D02*
G75*
G03*
X6908000Y-5588000I-50000J0D01*
G01*
X6908000Y-5842000D02*
G75*
G03*
X6908000Y-5842000I-50000J0D01*
G01*
X6908000Y-6350000D02*
G75*
G03*
X6908000Y-6350000I-50000J0D01*
G01*
X6908000Y-6604000D02*
G75*
G03*
X6908000Y-6604000I-50000J0D01*
G01*
X6908000Y-7112000D02*
G75*
G03*
X6908000Y-7112000I-50000J0D01*
G01*
X6908000Y-7366000D02*
G75*
G03*
X6908000Y-7366000I-50000J0D01*
G01*
X6908000Y-7874000D02*
G75*
G03*
X6908000Y-7874000I-50000J0D01*
G01*
X6908000Y-8128000D02*
G75*
G03*
X6908000Y-8128000I-50000J0D01*
G01*
X6908000Y-8636000D02*
G75*
G03*
X6908000Y-8636000I-50000J0D01*
G01*
X6908000Y-8890000D02*
G75*
G03*
X6908000Y-8890000I-50000J0D01*
G01*
X7162000Y-5588000D02*
G75*
G03*
X7162000Y-5588000I-50000J0D01*
G01*
X7162000Y-5842000D02*
G75*
G03*
X7162000Y-5842000I-50000J0D01*
G01*
X7162000Y-6350000D02*
G75*
G03*
X7162000Y-6350000I-50000J0D01*
G01*
X7162000Y-6604000D02*
G75*
G03*
X7162000Y-6604000I-50000J0D01*
G01*
X7162000Y-7112000D02*
G75*
G03*
X7162000Y-7112000I-50000J0D01*
G01*
X7162000Y-7366000D02*
G75*
G03*
X7162000Y-7366000I-50000J0D01*
G01*
X7162000Y-7874000D02*
G75*
G03*
X7162000Y-7874000I-50000J0D01*
G01*
X7162000Y-8128000D02*
G75*
G03*
X7162000Y-8128000I-50000J0D01*
G01*
X7162000Y-8636000D02*
G75*
G03*
X7162000Y-8636000I-50000J0D01*
G01*
X7162000Y-8890000D02*
G75*
G03*
X7162000Y-8890000I-50000J0D01*
G01*
X7416000Y-5588000D02*
G75*
G03*
X7416000Y-5588000I-50000J0D01*
G01*
X7416000Y-5842000D02*
G75*
G03*
X7416000Y-5842000I-50000J0D01*
G01*
X7416000Y-6350000D02*
G75*
G03*
X7416000Y-6350000I-50000J0D01*
G01*
X7416000Y-6604000D02*
G75*
G03*
X7416000Y-6604000I-50000J0D01*
G01*
X7416000Y-7112000D02*
G75*
G03*
X7416000Y-7112000I-50000J0D01*
G01*
X7416000Y-7366000D02*
G75*
G03*
X7416000Y-7366000I-50000J0D01*
G01*
X7416000Y-7874000D02*
G75*
G03*
X7416000Y-7874000I-50000J0D01*
G01*
X7416000Y-8128000D02*
G75*
G03*
X7416000Y-8128000I-50000J0D01*
G01*
X7416000Y-8636000D02*
G75*
G03*
X7416000Y-8636000I-50000J0D01*
G01*
X7416000Y-8890000D02*
G75*
G03*
X7416000Y-8890000I-50000J0D01*
G01*
X7670000Y-5588000D02*
G75*
G03*
X7670000Y-5588000I-50000J0D01*
G01*
X7670000Y-5842000D02*
G75*
G03*
X7670000Y-5842000I-50000J0D01*
G01*
X7670000Y-6350000D02*
G75*
G03*
X7670000Y-6350000I-50000J0D01*
G01*
X7670000Y-6604000D02*
G75*
G03*
X7670000Y-6604000I-50000J0D01*
G01*
X7670000Y-7112000D02*
G75*
G03*
X7670000Y-7112000I-50000J0D01*
G01*
X7670000Y-7366000D02*
G75*
G03*
X7670000Y-7366000I-50000J0D01*
G01*
X7670000Y-7874000D02*
G75*
G03*
X7670000Y-7874000I-50000J0D01*
G01*
X7670000Y-8128000D02*
G75*
G03*
X7670000Y-8128000I-50000J0D01*
G01*
X7670000Y-8636000D02*
G75*
G03*
X7670000Y-8636000I-50000J0D01*
G01*
X7670000Y-8890000D02*
G75*
G03*
X7670000Y-8890000I-50000J0D01*
G01*
X7670000Y-9652000D02*
G75*
G03*
X7670000Y-9652000I-50000J0D01*
G01*
X7670000Y-9906000D02*
G75*
G03*
X7670000Y-9906000I-50000J0D01*
G01*
X7924000Y-5588000D02*
G75*
G03*
X7924000Y-5588000I-50000J0D01*
G01*
X7924000Y-5842000D02*
G75*
G03*
X7924000Y-5842000I-50000J0D01*
G01*
X7924000Y-6350000D02*
G75*
G03*
X7924000Y-6350000I-50000J0D01*
G01*
X7924000Y-6604000D02*
G75*
G03*
X7924000Y-6604000I-50000J0D01*
G01*
X7924000Y-7112000D02*
G75*
G03*
X7924000Y-7112000I-50000J0D01*
G01*
X7924000Y-7366000D02*
G75*
G03*
X7924000Y-7366000I-50000J0D01*
G01*
X7924000Y-7874000D02*
G75*
G03*
X7924000Y-7874000I-50000J0D01*
G01*
X7924000Y-8128000D02*
G75*
G03*
X7924000Y-8128000I-50000J0D01*
G01*
X7924000Y-8636000D02*
G75*
G03*
X7924000Y-8636000I-50000J0D01*
G01*
X7924000Y-8890000D02*
G75*
G03*
X7924000Y-8890000I-50000J0D01*
G01*
X7924000Y-9652000D02*
G75*
G03*
X7924000Y-9652000I-50000J0D01*
G01*
X7924000Y-9906000D02*
G75*
G03*
X7924000Y-9906000I-50000J0D01*
G01*
X8178000Y-5588000D02*
G75*
G03*
X8178000Y-5588000I-50000J0D01*
G01*
X8178000Y-5842000D02*
G75*
G03*
X8178000Y-5842000I-50000J0D01*
G01*
X8178000Y-6350000D02*
G75*
G03*
X8178000Y-6350000I-50000J0D01*
G01*
X8178000Y-6604000D02*
G75*
G03*
X8178000Y-6604000I-50000J0D01*
G01*
X8178000Y-7112000D02*
G75*
G03*
X8178000Y-7112000I-50000J0D01*
G01*
X8178000Y-7366000D02*
G75*
G03*
X8178000Y-7366000I-50000J0D01*
G01*
X8178000Y-7874000D02*
G75*
G03*
X8178000Y-7874000I-50000J0D01*
G01*
X8178000Y-8128000D02*
G75*
G03*
X8178000Y-8128000I-50000J0D01*
G01*
X8178000Y-8636000D02*
G75*
G03*
X8178000Y-8636000I-50000J0D01*
G01*
X8178000Y-8890000D02*
G75*
G03*
X8178000Y-8890000I-50000J0D01*
G01*
X8178000Y-9652000D02*
G75*
G03*
X8178000Y-9652000I-50000J0D01*
G01*
X8178000Y-9906000D02*
G75*
G03*
X8178000Y-9906000I-50000J0D01*
G01*
X8432000Y-5588000D02*
G75*
G03*
X8432000Y-5588000I-50000J0D01*
G01*
X8432000Y-5842000D02*
G75*
G03*
X8432000Y-5842000I-50000J0D01*
G01*
X8432000Y-6350000D02*
G75*
G03*
X8432000Y-6350000I-50000J0D01*
G01*
X8432000Y-6604000D02*
G75*
G03*
X8432000Y-6604000I-50000J0D01*
G01*
X8432000Y-7112000D02*
G75*
G03*
X8432000Y-7112000I-50000J0D01*
G01*
X8432000Y-7366000D02*
G75*
G03*
X8432000Y-7366000I-50000J0D01*
G01*
X8432000Y-7874000D02*
G75*
G03*
X8432000Y-7874000I-50000J0D01*
G01*
X8432000Y-8128000D02*
G75*
G03*
X8432000Y-8128000I-50000J0D01*
G01*
X8432000Y-8636000D02*
G75*
G03*
X8432000Y-8636000I-50000J0D01*
G01*
X8432000Y-8890000D02*
G75*
G03*
X8432000Y-8890000I-50000J0D01*
G01*
X8432000Y-9652000D02*
G75*
G03*
X8432000Y-9652000I-50000J0D01*
G01*
X8432000Y-9906000D02*
G75*
G03*
X8432000Y-9906000I-50000J0D01*
G01*
X8686000Y-5588000D02*
G75*
G03*
X8686000Y-5588000I-50000J0D01*
G01*
X8686000Y-5842000D02*
G75*
G03*
X8686000Y-5842000I-50000J0D01*
G01*
X8686000Y-6350000D02*
G75*
G03*
X8686000Y-6350000I-50000J0D01*
G01*
X8686000Y-6604000D02*
G75*
G03*
X8686000Y-6604000I-50000J0D01*
G01*
X8686000Y-7874000D02*
G75*
G03*
X8686000Y-7874000I-50000J0D01*
G01*
X8686000Y-8128000D02*
G75*
G03*
X8686000Y-8128000I-50000J0D01*
G01*
X8686000Y-8636000D02*
G75*
G03*
X8686000Y-8636000I-50000J0D01*
G01*
X8686000Y-8890000D02*
G75*
G03*
X8686000Y-8890000I-50000J0D01*
G01*
X8686000Y-9652000D02*
G75*
G03*
X8686000Y-9652000I-50000J0D01*
G01*
X8686000Y-9906000D02*
G75*
G03*
X8686000Y-9906000I-50000J0D01*
G01*
X8940000Y-5588000D02*
G75*
G03*
X8940000Y-5588000I-50000J0D01*
G01*
X8940000Y-5842000D02*
G75*
G03*
X8940000Y-5842000I-50000J0D01*
G01*
X8940000Y-6350000D02*
G75*
G03*
X8940000Y-6350000I-50000J0D01*
G01*
X8940000Y-6604000D02*
G75*
G03*
X8940000Y-6604000I-50000J0D01*
G01*
X8940000Y-7874000D02*
G75*
G03*
X8940000Y-7874000I-50000J0D01*
G01*
X8940000Y-8128000D02*
G75*
G03*
X8940000Y-8128000I-50000J0D01*
G01*
X8940000Y-8636000D02*
G75*
G03*
X8940000Y-8636000I-50000J0D01*
G01*
X8940000Y-8890000D02*
G75*
G03*
X8940000Y-8890000I-50000J0D01*
G01*
X8940000Y-9652000D02*
G75*
G03*
X8940000Y-9652000I-50000J0D01*
G01*
X8940000Y-9906000D02*
G75*
G03*
X8940000Y-9906000I-50000J0D01*
G01*
X9194000Y-5588000D02*
G75*
G03*
X9194000Y-5588000I-50000J0D01*
G01*
X9194000Y-5842000D02*
G75*
G03*
X9194000Y-5842000I-50000J0D01*
G01*
X9194000Y-6350000D02*
G75*
G03*
X9194000Y-6350000I-50000J0D01*
G01*
X9194000Y-6604000D02*
G75*
G03*
X9194000Y-6604000I-50000J0D01*
G01*
X9194000Y-7874000D02*
G75*
G03*
X9194000Y-7874000I-50000J0D01*
G01*
X9194000Y-8128000D02*
G75*
G03*
X9194000Y-8128000I-50000J0D01*
G01*
X9194000Y-8636000D02*
G75*
G03*
X9194000Y-8636000I-50000J0D01*
G01*
X9194000Y-8890000D02*
G75*
G03*
X9194000Y-8890000I-50000J0D01*
G01*
X9448000Y-5588000D02*
G75*
G03*
X9448000Y-5588000I-50000J0D01*
G01*
X9448000Y-5842000D02*
G75*
G03*
X9448000Y-5842000I-50000J0D01*
G01*
X9448000Y-6350000D02*
G75*
G03*
X9448000Y-6350000I-50000J0D01*
G01*
X9448000Y-6604000D02*
G75*
G03*
X9448000Y-6604000I-50000J0D01*
G01*
X9448000Y-7874000D02*
G75*
G03*
X9448000Y-7874000I-50000J0D01*
G01*
X9448000Y-8128000D02*
G75*
G03*
X9448000Y-8128000I-50000J0D01*
G01*
X9448000Y-8636000D02*
G75*
G03*
X9448000Y-8636000I-50000J0D01*
G01*
X9448000Y-8890000D02*
G75*
G03*
X9448000Y-8890000I-50000J0D01*
G01*
X9956000Y-9652000D02*
G75*
G03*
X9956000Y-9652000I-50000J0D01*
G01*
X9956000Y-9906000D02*
G75*
G03*
X9956000Y-9906000I-50000J0D01*
G01*
X10210000Y-9652000D02*
G75*
G03*
X10210000Y-9652000I-50000J0D01*
G01*
X10210000Y-9906000D02*
G75*
G03*
X10210000Y-9906000I-50000J0D01*
G01*
X10464000Y-9652000D02*
G75*
G03*
X10464000Y-9652000I-50000J0D01*
G01*
X10464000Y-9906000D02*
G75*
G03*
X10464000Y-9906000I-50000J0D01*
G01*
X10718000Y-9652000D02*
G75*
G03*
X10718000Y-9652000I-50000J0D01*
G01*
X10718000Y-9906000D02*
G75*
G03*
X10718000Y-9906000I-50000J0D01*
G01*
X10972000Y-9652000D02*
G75*
G03*
X10972000Y-9652000I-50000J0D01*
G01*
X10972000Y-9906000D02*
G75*
G03*
X10972000Y-9906000I-50000J0D01*
G01*
X11226000Y-9652000D02*
G75*
G03*
X11226000Y-9652000I-50000J0D01*
G01*
X11226000Y-9906000D02*
G75*
G03*
X11226000Y-9906000I-50000J0D01*
G01*
X12251600Y-7639550D02*
G75*
G03*
X12251600Y-7639550I-50000J0D01*
G01*
D11*
X12251600Y-7739550D02*
X12251600Y-7539550D01*
X12151600Y-7739550D02*
X12151600Y-7539550D01*
X12251600Y-7539550D02*
G75*
G03*
X12151600Y-7539550I-50000J0D01*
G01*
X12151600Y-7739550D02*
G75*
G03*
X12251600Y-7739550I50000J0D01*
G01*
D10*
X12551600Y-7169550D02*
G75*
G03*
X12551600Y-7169550I-50000J0D01*
G01*
D11*
X12601600Y-7119550D02*
X12401600Y-7119550D01*
X12601600Y-7219550D02*
X12401600Y-7219550D01*
X12401600Y-7119550D02*
G75*
G03*
X12401600Y-7219550I0J-50000D01*
G01*
X12601600Y-7219550D02*
G75*
G03*
X12601600Y-7119550I0J50000D01*
G01*
D10*
X12851600Y-7639550D02*
G75*
G03*
X12851600Y-7639550I-50000J0D01*
G01*
D11*
X12851600Y-7739550D02*
X12851600Y-7539550D01*
X12751600Y-7739550D02*
X12751600Y-7539550D01*
X12851600Y-7539550D02*
G75*
G03*
X12751600Y-7539550I-50000J0D01*
G01*
X12751600Y-7739550D02*
G75*
G03*
X12851600Y-7739550I50000J0D01*
G01*
D13*
X10190600Y-5816000D02*
X10190600Y-5926000D01*
X10135600Y-5871000D02*
X10245600Y-5871000D01*
X10190600Y-6266000D02*
X10190600Y-6376000D01*
X10135600Y-6321000D02*
X10245600Y-6321000D01*
X10840600Y-5816000D02*
X10840600Y-5926000D01*
X10785600Y-5871000D02*
X10895600Y-5871000D01*
X10840600Y-6266000D02*
X10840600Y-6376000D01*
X10785600Y-6321000D02*
X10895600Y-6321000D01*
X12433300Y-5816000D02*
X12433300Y-5926000D01*
X12378300Y-5871000D02*
X12488300Y-5871000D01*
X12433300Y-6266000D02*
X12433300Y-6376000D01*
X12378300Y-6321000D02*
X12488300Y-6321000D01*
X13083300Y-5816000D02*
X13083300Y-5926000D01*
X13028300Y-5871000D02*
X13138300Y-5871000D01*
X13083300Y-6266000D02*
X13083300Y-6376000D01*
X13028300Y-6321000D02*
X13138300Y-6321000D01*
D11*
X3852619Y-11315476D02*
X3852619Y-11115476D01*
X3900238Y-11115476D01*
X3928809Y-11125000D01*
X3947857Y-11144048D01*
X3957381Y-11163095D01*
X3966905Y-11201190D01*
X3966905Y-11229762D01*
X3957381Y-11267857D01*
X3947857Y-11286905D01*
X3928809Y-11305952D01*
X3900238Y-11315476D01*
X3852619Y-11315476D01*
X4052619Y-11315476D02*
X4052619Y-11182143D01*
X4052619Y-11220238D02*
X4062143Y-11201190D01*
X4071667Y-11191667D01*
X4090714Y-11182143D01*
X4109762Y-11182143D01*
X4176428Y-11315476D02*
X4176428Y-11182143D01*
X4176428Y-11115476D02*
X4166905Y-11125000D01*
X4176428Y-11134524D01*
X4185952Y-11125000D01*
X4176428Y-11115476D01*
X4176428Y-11134524D01*
X4300238Y-11315476D02*
X4281190Y-11305952D01*
X4271667Y-11286905D01*
X4271667Y-11115476D01*
X4405000Y-11315476D02*
X4385952Y-11305952D01*
X4376429Y-11286905D01*
X4376429Y-11115476D01*
X4633571Y-11315476D02*
X4633571Y-11115476D01*
X4700238Y-11258333D01*
X4766905Y-11115476D01*
X4766905Y-11315476D01*
X4947857Y-11315476D02*
X4947857Y-11210714D01*
X4938333Y-11191667D01*
X4919286Y-11182143D01*
X4881190Y-11182143D01*
X4862143Y-11191667D01*
X4947857Y-11305952D02*
X4928810Y-11315476D01*
X4881190Y-11315476D01*
X4862143Y-11305952D01*
X4852619Y-11286905D01*
X4852619Y-11267857D01*
X4862143Y-11248809D01*
X4881190Y-11239286D01*
X4928810Y-11239286D01*
X4947857Y-11229762D01*
X5043095Y-11182143D02*
X5043095Y-11382143D01*
X5043095Y-11191667D02*
X5062143Y-11182143D01*
X5100238Y-11182143D01*
X5119286Y-11191667D01*
X5128810Y-11201190D01*
X5138333Y-11220238D01*
X5138333Y-11277381D01*
X5128810Y-11296428D01*
X5119286Y-11305952D01*
X5100238Y-11315476D01*
X5062143Y-11315476D01*
X5043095Y-11305952D01*
X5224048Y-11296428D02*
X5233571Y-11305952D01*
X5224048Y-11315476D01*
X5214524Y-11305952D01*
X5224048Y-11296428D01*
X5224048Y-11315476D01*
X5224048Y-11191667D02*
X5233571Y-11201190D01*
X5224048Y-11210714D01*
X5214524Y-11201190D01*
X5224048Y-11191667D01*
X5224048Y-11210714D01*
D12*
X3515000Y-11605000D02*
X3595000Y-11685000D01*
X3595000Y-11605000D02*
X3515000Y-11685000D01*
D11*
X3890714Y-11535476D02*
X3909762Y-11535476D01*
X3928809Y-11545000D01*
X3938333Y-11554524D01*
X3947857Y-11573571D01*
X3957381Y-11611667D01*
X3957381Y-11659286D01*
X3947857Y-11697381D01*
X3938333Y-11716428D01*
X3928809Y-11725952D01*
X3909762Y-11735476D01*
X3890714Y-11735476D01*
X3871667Y-11725952D01*
X3862143Y-11716428D01*
X3852619Y-11697381D01*
X3843095Y-11659286D01*
X3843095Y-11611667D01*
X3852619Y-11573571D01*
X3862143Y-11554524D01*
X3871667Y-11545000D01*
X3890714Y-11535476D01*
X4043095Y-11716428D02*
X4052619Y-11725952D01*
X4043095Y-11735476D01*
X4033571Y-11725952D01*
X4043095Y-11716428D01*
X4043095Y-11735476D01*
X4166905Y-11621190D02*
X4147857Y-11611667D01*
X4138333Y-11602143D01*
X4128809Y-11583095D01*
X4128809Y-11573571D01*
X4138333Y-11554524D01*
X4147857Y-11545000D01*
X4166905Y-11535476D01*
X4205000Y-11535476D01*
X4224048Y-11545000D01*
X4233571Y-11554524D01*
X4243095Y-11573571D01*
X4243095Y-11583095D01*
X4233571Y-11602143D01*
X4224048Y-11611667D01*
X4205000Y-11621190D01*
X4166905Y-11621190D01*
X4147857Y-11630714D01*
X4138333Y-11640238D01*
X4128809Y-11659286D01*
X4128809Y-11697381D01*
X4138333Y-11716428D01*
X4147857Y-11725952D01*
X4166905Y-11735476D01*
X4205000Y-11735476D01*
X4224048Y-11725952D01*
X4233571Y-11716428D01*
X4243095Y-11697381D01*
X4243095Y-11659286D01*
X4233571Y-11640238D01*
X4224048Y-11630714D01*
X4205000Y-11621190D01*
X4366905Y-11535476D02*
X4385952Y-11535476D01*
X4405000Y-11545000D01*
X4414524Y-11554524D01*
X4424048Y-11573571D01*
X4433571Y-11611667D01*
X4433571Y-11659286D01*
X4424048Y-11697381D01*
X4414524Y-11716428D01*
X4405000Y-11725952D01*
X4385952Y-11735476D01*
X4366905Y-11735476D01*
X4347857Y-11725952D01*
X4338333Y-11716428D01*
X4328810Y-11697381D01*
X4319286Y-11659286D01*
X4319286Y-11611667D01*
X4328810Y-11573571D01*
X4338333Y-11554524D01*
X4347857Y-11545000D01*
X4366905Y-11535476D01*
X4557381Y-11535476D02*
X4576429Y-11535476D01*
X4595476Y-11545000D01*
X4605000Y-11554524D01*
X4614524Y-11573571D01*
X4624048Y-11611667D01*
X4624048Y-11659286D01*
X4614524Y-11697381D01*
X4605000Y-11716428D01*
X4595476Y-11725952D01*
X4576429Y-11735476D01*
X4557381Y-11735476D01*
X4538333Y-11725952D01*
X4528810Y-11716428D01*
X4519286Y-11697381D01*
X4509762Y-11659286D01*
X4509762Y-11611667D01*
X4519286Y-11573571D01*
X4528810Y-11554524D01*
X4538333Y-11545000D01*
X4557381Y-11535476D01*
X4709762Y-11735476D02*
X4709762Y-11602143D01*
X4709762Y-11621190D02*
X4719286Y-11611667D01*
X4738333Y-11602143D01*
X4766905Y-11602143D01*
X4785952Y-11611667D01*
X4795476Y-11630714D01*
X4795476Y-11735476D01*
X4795476Y-11630714D02*
X4805000Y-11611667D01*
X4824048Y-11602143D01*
X4852619Y-11602143D01*
X4871667Y-11611667D01*
X4881190Y-11630714D01*
X4881190Y-11735476D01*
X4976429Y-11735476D02*
X4976429Y-11602143D01*
X4976429Y-11621190D02*
X4985952Y-11611667D01*
X5005000Y-11602143D01*
X5033571Y-11602143D01*
X5052619Y-11611667D01*
X5062143Y-11630714D01*
X5062143Y-11735476D01*
X5062143Y-11630714D02*
X5071667Y-11611667D01*
X5090714Y-11602143D01*
X5119286Y-11602143D01*
X5138333Y-11611667D01*
X5147857Y-11630714D01*
X5147857Y-11735476D01*
X5538333Y-11525952D02*
X5366905Y-11783095D01*
X5795476Y-11535476D02*
X5814524Y-11535476D01*
X5833571Y-11545000D01*
X5843095Y-11554524D01*
X5852619Y-11573571D01*
X5862143Y-11611667D01*
X5862143Y-11659286D01*
X5852619Y-11697381D01*
X5843095Y-11716428D01*
X5833571Y-11725952D01*
X5814524Y-11735476D01*
X5795476Y-11735476D01*
X5776428Y-11725952D01*
X5766905Y-11716428D01*
X5757381Y-11697381D01*
X5747857Y-11659286D01*
X5747857Y-11611667D01*
X5757381Y-11573571D01*
X5766905Y-11554524D01*
X5776428Y-11545000D01*
X5795476Y-11535476D01*
X5947857Y-11716428D02*
X5957381Y-11725952D01*
X5947857Y-11735476D01*
X5938333Y-11725952D01*
X5947857Y-11716428D01*
X5947857Y-11735476D01*
X6081190Y-11535476D02*
X6100238Y-11535476D01*
X6119286Y-11545000D01*
X6128809Y-11554524D01*
X6138333Y-11573571D01*
X6147857Y-11611667D01*
X6147857Y-11659286D01*
X6138333Y-11697381D01*
X6128809Y-11716428D01*
X6119286Y-11725952D01*
X6100238Y-11735476D01*
X6081190Y-11735476D01*
X6062143Y-11725952D01*
X6052619Y-11716428D01*
X6043095Y-11697381D01*
X6033571Y-11659286D01*
X6033571Y-11611667D01*
X6043095Y-11573571D01*
X6052619Y-11554524D01*
X6062143Y-11545000D01*
X6081190Y-11535476D01*
X6214524Y-11535476D02*
X6338333Y-11535476D01*
X6271667Y-11611667D01*
X6300238Y-11611667D01*
X6319286Y-11621190D01*
X6328809Y-11630714D01*
X6338333Y-11649762D01*
X6338333Y-11697381D01*
X6328809Y-11716428D01*
X6319286Y-11725952D01*
X6300238Y-11735476D01*
X6243095Y-11735476D01*
X6224048Y-11725952D01*
X6214524Y-11716428D01*
X6528809Y-11735476D02*
X6414524Y-11735476D01*
X6471667Y-11735476D02*
X6471667Y-11535476D01*
X6452619Y-11564048D01*
X6433571Y-11583095D01*
X6414524Y-11592619D01*
X6709762Y-11535476D02*
X6614524Y-11535476D01*
X6605000Y-11630714D01*
X6614524Y-11621190D01*
X6633571Y-11611667D01*
X6681190Y-11611667D01*
X6700238Y-11621190D01*
X6709762Y-11630714D01*
X6719286Y-11649762D01*
X6719286Y-11697381D01*
X6709762Y-11716428D01*
X6700238Y-11725952D01*
X6681190Y-11735476D01*
X6633571Y-11735476D01*
X6614524Y-11725952D01*
X6605000Y-11716428D01*
X6795476Y-11535476D02*
X6795476Y-11573571D01*
X6871667Y-11535476D02*
X6871667Y-11573571D01*
X7166905Y-11811667D02*
X7157381Y-11802143D01*
X7138333Y-11773571D01*
X7128809Y-11754524D01*
X7119286Y-11725952D01*
X7109762Y-11678333D01*
X7109762Y-11640238D01*
X7119286Y-11592619D01*
X7128809Y-11564048D01*
X7138333Y-11545000D01*
X7157381Y-11516428D01*
X7166905Y-11506905D01*
X7328809Y-11535476D02*
X7290714Y-11535476D01*
X7271667Y-11545000D01*
X7262143Y-11554524D01*
X7243095Y-11583095D01*
X7233571Y-11621190D01*
X7233571Y-11697381D01*
X7243095Y-11716428D01*
X7252619Y-11725952D01*
X7271667Y-11735476D01*
X7309762Y-11735476D01*
X7328809Y-11725952D01*
X7338333Y-11716428D01*
X7347857Y-11697381D01*
X7347857Y-11649762D01*
X7338333Y-11630714D01*
X7328809Y-11621190D01*
X7309762Y-11611667D01*
X7271667Y-11611667D01*
X7252619Y-11621190D01*
X7243095Y-11630714D01*
X7233571Y-11649762D01*
X7471667Y-11535476D02*
X7490714Y-11535476D01*
X7509762Y-11545000D01*
X7519286Y-11554524D01*
X7528809Y-11573571D01*
X7538333Y-11611667D01*
X7538333Y-11659286D01*
X7528809Y-11697381D01*
X7519286Y-11716428D01*
X7509762Y-11725952D01*
X7490714Y-11735476D01*
X7471667Y-11735476D01*
X7452619Y-11725952D01*
X7443095Y-11716428D01*
X7433571Y-11697381D01*
X7424048Y-11659286D01*
X7424048Y-11611667D01*
X7433571Y-11573571D01*
X7443095Y-11554524D01*
X7452619Y-11545000D01*
X7471667Y-11535476D01*
X7776428Y-11735476D02*
X7776428Y-11535476D01*
X7862143Y-11735476D02*
X7862143Y-11630714D01*
X7852619Y-11611667D01*
X7833571Y-11602143D01*
X7805000Y-11602143D01*
X7785952Y-11611667D01*
X7776428Y-11621190D01*
X7985952Y-11735476D02*
X7966905Y-11725952D01*
X7957381Y-11716428D01*
X7947857Y-11697381D01*
X7947857Y-11640238D01*
X7957381Y-11621190D01*
X7966905Y-11611667D01*
X7985952Y-11602143D01*
X8014524Y-11602143D01*
X8033571Y-11611667D01*
X8043095Y-11621190D01*
X8052619Y-11640238D01*
X8052619Y-11697381D01*
X8043095Y-11716428D01*
X8033571Y-11725952D01*
X8014524Y-11735476D01*
X7985952Y-11735476D01*
X8166905Y-11735476D02*
X8147857Y-11725952D01*
X8138333Y-11706905D01*
X8138333Y-11535476D01*
X8319286Y-11725952D02*
X8300238Y-11735476D01*
X8262143Y-11735476D01*
X8243095Y-11725952D01*
X8233571Y-11706905D01*
X8233571Y-11630714D01*
X8243095Y-11611667D01*
X8262143Y-11602143D01*
X8300238Y-11602143D01*
X8319286Y-11611667D01*
X8328809Y-11630714D01*
X8328809Y-11649762D01*
X8233571Y-11668809D01*
X8405000Y-11725952D02*
X8424048Y-11735476D01*
X8462143Y-11735476D01*
X8481190Y-11725952D01*
X8490714Y-11706905D01*
X8490714Y-11697381D01*
X8481190Y-11678333D01*
X8462143Y-11668809D01*
X8433571Y-11668809D01*
X8414524Y-11659286D01*
X8405000Y-11640238D01*
X8405000Y-11630714D01*
X8414524Y-11611667D01*
X8433571Y-11602143D01*
X8462143Y-11602143D01*
X8481190Y-11611667D01*
X8557381Y-11811667D02*
X8566905Y-11802143D01*
X8585952Y-11773571D01*
X8595476Y-11754524D01*
X8605000Y-11725952D01*
X8614524Y-11678333D01*
X8614524Y-11640238D01*
X8605000Y-11592619D01*
X8595476Y-11564048D01*
X8585952Y-11545000D01*
X8566905Y-11516428D01*
X8557381Y-11506905D01*
D10*
X3595000Y-11909000D02*
G75*
G03*
X3595000Y-11909000I-50000J0D01*
G01*
D11*
X3957381Y-11999476D02*
X3843095Y-11999476D01*
X3900238Y-11999476D02*
X3900238Y-11799476D01*
X3881190Y-11828048D01*
X3862143Y-11847095D01*
X3843095Y-11856619D01*
X4043095Y-11980428D02*
X4052619Y-11989952D01*
X4043095Y-11999476D01*
X4033571Y-11989952D01*
X4043095Y-11980428D01*
X4043095Y-11999476D01*
X4176428Y-11799476D02*
X4195476Y-11799476D01*
X4214524Y-11809000D01*
X4224048Y-11818524D01*
X4233571Y-11837571D01*
X4243095Y-11875667D01*
X4243095Y-11923286D01*
X4233571Y-11961381D01*
X4224048Y-11980428D01*
X4214524Y-11989952D01*
X4195476Y-11999476D01*
X4176428Y-11999476D01*
X4157381Y-11989952D01*
X4147857Y-11980428D01*
X4138333Y-11961381D01*
X4128809Y-11923286D01*
X4128809Y-11875667D01*
X4138333Y-11837571D01*
X4147857Y-11818524D01*
X4157381Y-11809000D01*
X4176428Y-11799476D01*
X4366905Y-11799476D02*
X4385952Y-11799476D01*
X4405000Y-11809000D01*
X4414524Y-11818524D01*
X4424048Y-11837571D01*
X4433571Y-11875667D01*
X4433571Y-11923286D01*
X4424048Y-11961381D01*
X4414524Y-11980428D01*
X4405000Y-11989952D01*
X4385952Y-11999476D01*
X4366905Y-11999476D01*
X4347857Y-11989952D01*
X4338333Y-11980428D01*
X4328810Y-11961381D01*
X4319286Y-11923286D01*
X4319286Y-11875667D01*
X4328810Y-11837571D01*
X4338333Y-11818524D01*
X4347857Y-11809000D01*
X4366905Y-11799476D01*
X4557381Y-11799476D02*
X4576429Y-11799476D01*
X4595476Y-11809000D01*
X4605000Y-11818524D01*
X4614524Y-11837571D01*
X4624048Y-11875667D01*
X4624048Y-11923286D01*
X4614524Y-11961381D01*
X4605000Y-11980428D01*
X4595476Y-11989952D01*
X4576429Y-11999476D01*
X4557381Y-11999476D01*
X4538333Y-11989952D01*
X4528810Y-11980428D01*
X4519286Y-11961381D01*
X4509762Y-11923286D01*
X4509762Y-11875667D01*
X4519286Y-11837571D01*
X4528810Y-11818524D01*
X4538333Y-11809000D01*
X4557381Y-11799476D01*
X4709762Y-11999476D02*
X4709762Y-11866143D01*
X4709762Y-11885190D02*
X4719286Y-11875667D01*
X4738333Y-11866143D01*
X4766905Y-11866143D01*
X4785952Y-11875667D01*
X4795476Y-11894714D01*
X4795476Y-11999476D01*
X4795476Y-11894714D02*
X4805000Y-11875667D01*
X4824048Y-11866143D01*
X4852619Y-11866143D01*
X4871667Y-11875667D01*
X4881190Y-11894714D01*
X4881190Y-11999476D01*
X4976429Y-11999476D02*
X4976429Y-11866143D01*
X4976429Y-11885190D02*
X4985952Y-11875667D01*
X5005000Y-11866143D01*
X5033571Y-11866143D01*
X5052619Y-11875667D01*
X5062143Y-11894714D01*
X5062143Y-11999476D01*
X5062143Y-11894714D02*
X5071667Y-11875667D01*
X5090714Y-11866143D01*
X5119286Y-11866143D01*
X5138333Y-11875667D01*
X5147857Y-11894714D01*
X5147857Y-11999476D01*
X5538333Y-11789952D02*
X5366905Y-12047095D01*
X5795476Y-11799476D02*
X5814524Y-11799476D01*
X5833571Y-11809000D01*
X5843095Y-11818524D01*
X5852619Y-11837571D01*
X5862143Y-11875667D01*
X5862143Y-11923286D01*
X5852619Y-11961381D01*
X5843095Y-11980428D01*
X5833571Y-11989952D01*
X5814524Y-11999476D01*
X5795476Y-11999476D01*
X5776428Y-11989952D01*
X5766905Y-11980428D01*
X5757381Y-11961381D01*
X5747857Y-11923286D01*
X5747857Y-11875667D01*
X5757381Y-11837571D01*
X5766905Y-11818524D01*
X5776428Y-11809000D01*
X5795476Y-11799476D01*
X5947857Y-11980428D02*
X5957381Y-11989952D01*
X5947857Y-11999476D01*
X5938333Y-11989952D01*
X5947857Y-11980428D01*
X5947857Y-11999476D01*
X6081190Y-11799476D02*
X6100238Y-11799476D01*
X6119286Y-11809000D01*
X6128809Y-11818524D01*
X6138333Y-11837571D01*
X6147857Y-11875667D01*
X6147857Y-11923286D01*
X6138333Y-11961381D01*
X6128809Y-11980428D01*
X6119286Y-11989952D01*
X6100238Y-11999476D01*
X6081190Y-11999476D01*
X6062143Y-11989952D01*
X6052619Y-11980428D01*
X6043095Y-11961381D01*
X6033571Y-11923286D01*
X6033571Y-11875667D01*
X6043095Y-11837571D01*
X6052619Y-11818524D01*
X6062143Y-11809000D01*
X6081190Y-11799476D01*
X6214524Y-11799476D02*
X6338333Y-11799476D01*
X6271667Y-11875667D01*
X6300238Y-11875667D01*
X6319286Y-11885190D01*
X6328809Y-11894714D01*
X6338333Y-11913762D01*
X6338333Y-11961381D01*
X6328809Y-11980428D01*
X6319286Y-11989952D01*
X6300238Y-11999476D01*
X6243095Y-11999476D01*
X6224048Y-11989952D01*
X6214524Y-11980428D01*
X6433571Y-11999476D02*
X6471667Y-11999476D01*
X6490714Y-11989952D01*
X6500238Y-11980428D01*
X6519286Y-11951857D01*
X6528809Y-11913762D01*
X6528809Y-11837571D01*
X6519286Y-11818524D01*
X6509762Y-11809000D01*
X6490714Y-11799476D01*
X6452619Y-11799476D01*
X6433571Y-11809000D01*
X6424048Y-11818524D01*
X6414524Y-11837571D01*
X6414524Y-11885190D01*
X6424048Y-11904238D01*
X6433571Y-11913762D01*
X6452619Y-11923286D01*
X6490714Y-11923286D01*
X6509762Y-11913762D01*
X6519286Y-11904238D01*
X6528809Y-11885190D01*
X6700238Y-11866143D02*
X6700238Y-11999476D01*
X6652619Y-11789952D02*
X6605000Y-11932809D01*
X6728809Y-11932809D01*
X6795476Y-11799476D02*
X6795476Y-11837571D01*
X6871667Y-11799476D02*
X6871667Y-11837571D01*
X7166905Y-12075667D02*
X7157381Y-12066143D01*
X7138333Y-12037571D01*
X7128809Y-12018524D01*
X7119286Y-11989952D01*
X7109762Y-11942333D01*
X7109762Y-11904238D01*
X7119286Y-11856619D01*
X7128809Y-11828048D01*
X7138333Y-11809000D01*
X7157381Y-11780428D01*
X7166905Y-11770905D01*
X7233571Y-11818524D02*
X7243095Y-11809000D01*
X7262143Y-11799476D01*
X7309762Y-11799476D01*
X7328809Y-11809000D01*
X7338333Y-11818524D01*
X7347857Y-11837571D01*
X7347857Y-11856619D01*
X7338333Y-11885190D01*
X7224048Y-11999476D01*
X7347857Y-11999476D01*
X7424048Y-11818524D02*
X7433571Y-11809000D01*
X7452619Y-11799476D01*
X7500238Y-11799476D01*
X7519286Y-11809000D01*
X7528809Y-11818524D01*
X7538333Y-11837571D01*
X7538333Y-11856619D01*
X7528809Y-11885190D01*
X7414524Y-11999476D01*
X7538333Y-11999476D01*
X7709762Y-11866143D02*
X7709762Y-11999476D01*
X7662143Y-11789952D02*
X7614524Y-11932809D01*
X7738333Y-11932809D01*
X7966905Y-11999476D02*
X7966905Y-11799476D01*
X8052619Y-11999476D02*
X8052619Y-11894714D01*
X8043095Y-11875667D01*
X8024048Y-11866143D01*
X7995476Y-11866143D01*
X7976428Y-11875667D01*
X7966905Y-11885190D01*
X8176428Y-11999476D02*
X8157381Y-11989952D01*
X8147857Y-11980428D01*
X8138333Y-11961381D01*
X8138333Y-11904238D01*
X8147857Y-11885190D01*
X8157381Y-11875667D01*
X8176428Y-11866143D01*
X8205000Y-11866143D01*
X8224048Y-11875667D01*
X8233571Y-11885190D01*
X8243095Y-11904238D01*
X8243095Y-11961381D01*
X8233571Y-11980428D01*
X8224048Y-11989952D01*
X8205000Y-11999476D01*
X8176428Y-11999476D01*
X8357381Y-11999476D02*
X8338333Y-11989952D01*
X8328809Y-11970905D01*
X8328809Y-11799476D01*
X8509762Y-11989952D02*
X8490714Y-11999476D01*
X8452619Y-11999476D01*
X8433571Y-11989952D01*
X8424048Y-11970905D01*
X8424048Y-11894714D01*
X8433571Y-11875667D01*
X8452619Y-11866143D01*
X8490714Y-11866143D01*
X8509762Y-11875667D01*
X8519286Y-11894714D01*
X8519286Y-11913762D01*
X8424048Y-11932809D01*
X8595476Y-11989952D02*
X8614524Y-11999476D01*
X8652619Y-11999476D01*
X8671667Y-11989952D01*
X8681190Y-11970905D01*
X8681190Y-11961381D01*
X8671667Y-11942333D01*
X8652619Y-11932809D01*
X8624048Y-11932809D01*
X8605000Y-11923286D01*
X8595476Y-11904238D01*
X8595476Y-11894714D01*
X8605000Y-11875667D01*
X8624048Y-11866143D01*
X8652619Y-11866143D01*
X8671667Y-11875667D01*
X8919286Y-11923286D02*
X9071667Y-11923286D01*
X8995476Y-11999476D02*
X8995476Y-11847095D01*
X9300238Y-11799476D02*
X9424048Y-11799476D01*
X9357381Y-11875667D01*
X9385952Y-11875667D01*
X9405000Y-11885190D01*
X9414524Y-11894714D01*
X9424048Y-11913762D01*
X9424048Y-11961381D01*
X9414524Y-11980428D01*
X9405000Y-11989952D01*
X9385952Y-11999476D01*
X9328810Y-11999476D01*
X9309762Y-11989952D01*
X9300238Y-11980428D01*
X9652619Y-11989952D02*
X9671667Y-11999476D01*
X9709762Y-11999476D01*
X9728810Y-11989952D01*
X9738333Y-11970905D01*
X9738333Y-11961381D01*
X9728810Y-11942333D01*
X9709762Y-11932809D01*
X9681190Y-11932809D01*
X9662143Y-11923286D01*
X9652619Y-11904238D01*
X9652619Y-11894714D01*
X9662143Y-11875667D01*
X9681190Y-11866143D01*
X9709762Y-11866143D01*
X9728810Y-11875667D01*
X9852619Y-11999476D02*
X9833571Y-11989952D01*
X9824048Y-11970905D01*
X9824048Y-11799476D01*
X9957381Y-11999476D02*
X9938333Y-11989952D01*
X9928810Y-11980428D01*
X9919286Y-11961381D01*
X9919286Y-11904238D01*
X9928810Y-11885190D01*
X9938333Y-11875667D01*
X9957381Y-11866143D01*
X9985952Y-11866143D01*
X10005000Y-11875667D01*
X10014524Y-11885190D01*
X10024048Y-11904238D01*
X10024048Y-11961381D01*
X10014524Y-11980428D01*
X10005000Y-11989952D01*
X9985952Y-11999476D01*
X9957381Y-11999476D01*
X10081190Y-11866143D02*
X10157381Y-11866143D01*
X10109762Y-11799476D02*
X10109762Y-11970905D01*
X10119286Y-11989952D01*
X10138333Y-11999476D01*
X10157381Y-11999476D01*
X10214524Y-11989952D02*
X10233571Y-11999476D01*
X10271667Y-11999476D01*
X10290714Y-11989952D01*
X10300238Y-11970905D01*
X10300238Y-11961381D01*
X10290714Y-11942333D01*
X10271667Y-11932809D01*
X10243095Y-11932809D01*
X10224048Y-11923286D01*
X10214524Y-11904238D01*
X10214524Y-11894714D01*
X10224048Y-11875667D01*
X10243095Y-11866143D01*
X10271667Y-11866143D01*
X10290714Y-11875667D01*
X10366905Y-12075667D02*
X10376429Y-12066143D01*
X10395476Y-12037571D01*
X10405000Y-12018524D01*
X10414524Y-11989952D01*
X10424048Y-11942333D01*
X10424048Y-11904238D01*
X10414524Y-11856619D01*
X10405000Y-11828048D01*
X10395476Y-11809000D01*
X10376429Y-11780428D01*
X10366905Y-11770905D01*
D13*
X3540000Y-12118000D02*
X3540000Y-12228000D01*
X3485000Y-12173000D02*
X3595000Y-12173000D01*
D11*
X3957381Y-12263476D02*
X3843095Y-12263476D01*
X3900238Y-12263476D02*
X3900238Y-12063476D01*
X3881190Y-12092048D01*
X3862143Y-12111095D01*
X3843095Y-12120619D01*
X4043095Y-12244428D02*
X4052619Y-12253952D01*
X4043095Y-12263476D01*
X4033571Y-12253952D01*
X4043095Y-12244428D01*
X4043095Y-12263476D01*
X4243095Y-12263476D02*
X4128809Y-12263476D01*
X4185952Y-12263476D02*
X4185952Y-12063476D01*
X4166905Y-12092048D01*
X4147857Y-12111095D01*
X4128809Y-12120619D01*
X4366905Y-12063476D02*
X4385952Y-12063476D01*
X4405000Y-12073000D01*
X4414524Y-12082524D01*
X4424048Y-12101571D01*
X4433571Y-12139667D01*
X4433571Y-12187286D01*
X4424048Y-12225381D01*
X4414524Y-12244428D01*
X4405000Y-12253952D01*
X4385952Y-12263476D01*
X4366905Y-12263476D01*
X4347857Y-12253952D01*
X4338333Y-12244428D01*
X4328810Y-12225381D01*
X4319286Y-12187286D01*
X4319286Y-12139667D01*
X4328810Y-12101571D01*
X4338333Y-12082524D01*
X4347857Y-12073000D01*
X4366905Y-12063476D01*
X4557381Y-12063476D02*
X4576429Y-12063476D01*
X4595476Y-12073000D01*
X4605000Y-12082524D01*
X4614524Y-12101571D01*
X4624048Y-12139667D01*
X4624048Y-12187286D01*
X4614524Y-12225381D01*
X4605000Y-12244428D01*
X4595476Y-12253952D01*
X4576429Y-12263476D01*
X4557381Y-12263476D01*
X4538333Y-12253952D01*
X4528810Y-12244428D01*
X4519286Y-12225381D01*
X4509762Y-12187286D01*
X4509762Y-12139667D01*
X4519286Y-12101571D01*
X4528810Y-12082524D01*
X4538333Y-12073000D01*
X4557381Y-12063476D01*
X4709762Y-12263476D02*
X4709762Y-12130143D01*
X4709762Y-12149190D02*
X4719286Y-12139667D01*
X4738333Y-12130143D01*
X4766905Y-12130143D01*
X4785952Y-12139667D01*
X4795476Y-12158714D01*
X4795476Y-12263476D01*
X4795476Y-12158714D02*
X4805000Y-12139667D01*
X4824048Y-12130143D01*
X4852619Y-12130143D01*
X4871667Y-12139667D01*
X4881190Y-12158714D01*
X4881190Y-12263476D01*
X4976429Y-12263476D02*
X4976429Y-12130143D01*
X4976429Y-12149190D02*
X4985952Y-12139667D01*
X5005000Y-12130143D01*
X5033571Y-12130143D01*
X5052619Y-12139667D01*
X5062143Y-12158714D01*
X5062143Y-12263476D01*
X5062143Y-12158714D02*
X5071667Y-12139667D01*
X5090714Y-12130143D01*
X5119286Y-12130143D01*
X5138333Y-12139667D01*
X5147857Y-12158714D01*
X5147857Y-12263476D01*
X5538333Y-12053952D02*
X5366905Y-12311095D01*
X5795476Y-12063476D02*
X5814524Y-12063476D01*
X5833571Y-12073000D01*
X5843095Y-12082524D01*
X5852619Y-12101571D01*
X5862143Y-12139667D01*
X5862143Y-12187286D01*
X5852619Y-12225381D01*
X5843095Y-12244428D01*
X5833571Y-12253952D01*
X5814524Y-12263476D01*
X5795476Y-12263476D01*
X5776428Y-12253952D01*
X5766905Y-12244428D01*
X5757381Y-12225381D01*
X5747857Y-12187286D01*
X5747857Y-12139667D01*
X5757381Y-12101571D01*
X5766905Y-12082524D01*
X5776428Y-12073000D01*
X5795476Y-12063476D01*
X5947857Y-12244428D02*
X5957381Y-12253952D01*
X5947857Y-12263476D01*
X5938333Y-12253952D01*
X5947857Y-12244428D01*
X5947857Y-12263476D01*
X6081190Y-12063476D02*
X6100238Y-12063476D01*
X6119286Y-12073000D01*
X6128809Y-12082524D01*
X6138333Y-12101571D01*
X6147857Y-12139667D01*
X6147857Y-12187286D01*
X6138333Y-12225381D01*
X6128809Y-12244428D01*
X6119286Y-12253952D01*
X6100238Y-12263476D01*
X6081190Y-12263476D01*
X6062143Y-12253952D01*
X6052619Y-12244428D01*
X6043095Y-12225381D01*
X6033571Y-12187286D01*
X6033571Y-12139667D01*
X6043095Y-12101571D01*
X6052619Y-12082524D01*
X6062143Y-12073000D01*
X6081190Y-12063476D01*
X6319286Y-12130143D02*
X6319286Y-12263476D01*
X6271667Y-12053952D02*
X6224048Y-12196809D01*
X6347857Y-12196809D01*
X6405000Y-12063476D02*
X6528809Y-12063476D01*
X6462143Y-12139667D01*
X6490714Y-12139667D01*
X6509762Y-12149190D01*
X6519286Y-12158714D01*
X6528809Y-12177762D01*
X6528809Y-12225381D01*
X6519286Y-12244428D01*
X6509762Y-12253952D01*
X6490714Y-12263476D01*
X6433571Y-12263476D01*
X6414524Y-12253952D01*
X6405000Y-12244428D01*
X6595476Y-12063476D02*
X6719286Y-12063476D01*
X6652619Y-12139667D01*
X6681190Y-12139667D01*
X6700238Y-12149190D01*
X6709762Y-12158714D01*
X6719286Y-12177762D01*
X6719286Y-12225381D01*
X6709762Y-12244428D01*
X6700238Y-12253952D01*
X6681190Y-12263476D01*
X6624048Y-12263476D01*
X6605000Y-12253952D01*
X6595476Y-12244428D01*
X6795476Y-12063476D02*
X6795476Y-12101571D01*
X6871667Y-12063476D02*
X6871667Y-12101571D01*
X7166905Y-12339667D02*
X7157381Y-12330143D01*
X7138333Y-12301571D01*
X7128809Y-12282524D01*
X7119286Y-12253952D01*
X7109762Y-12206333D01*
X7109762Y-12168238D01*
X7119286Y-12120619D01*
X7128809Y-12092048D01*
X7138333Y-12073000D01*
X7157381Y-12044428D01*
X7166905Y-12034905D01*
X7271667Y-12149190D02*
X7252619Y-12139667D01*
X7243095Y-12130143D01*
X7233571Y-12111095D01*
X7233571Y-12101571D01*
X7243095Y-12082524D01*
X7252619Y-12073000D01*
X7271667Y-12063476D01*
X7309762Y-12063476D01*
X7328809Y-12073000D01*
X7338333Y-12082524D01*
X7347857Y-12101571D01*
X7347857Y-12111095D01*
X7338333Y-12130143D01*
X7328809Y-12139667D01*
X7309762Y-12149190D01*
X7271667Y-12149190D01*
X7252619Y-12158714D01*
X7243095Y-12168238D01*
X7233571Y-12187286D01*
X7233571Y-12225381D01*
X7243095Y-12244428D01*
X7252619Y-12253952D01*
X7271667Y-12263476D01*
X7309762Y-12263476D01*
X7328809Y-12253952D01*
X7338333Y-12244428D01*
X7347857Y-12225381D01*
X7347857Y-12187286D01*
X7338333Y-12168238D01*
X7328809Y-12158714D01*
X7309762Y-12149190D01*
X7585952Y-12263476D02*
X7585952Y-12063476D01*
X7671667Y-12263476D02*
X7671667Y-12158714D01*
X7662143Y-12139667D01*
X7643095Y-12130143D01*
X7614524Y-12130143D01*
X7595476Y-12139667D01*
X7585952Y-12149190D01*
X7795476Y-12263476D02*
X7776428Y-12253952D01*
X7766905Y-12244428D01*
X7757381Y-12225381D01*
X7757381Y-12168238D01*
X7766905Y-12149190D01*
X7776428Y-12139667D01*
X7795476Y-12130143D01*
X7824048Y-12130143D01*
X7843095Y-12139667D01*
X7852619Y-12149190D01*
X7862143Y-12168238D01*
X7862143Y-12225381D01*
X7852619Y-12244428D01*
X7843095Y-12253952D01*
X7824048Y-12263476D01*
X7795476Y-12263476D01*
X7976428Y-12263476D02*
X7957381Y-12253952D01*
X7947857Y-12234905D01*
X7947857Y-12063476D01*
X8128809Y-12253952D02*
X8109762Y-12263476D01*
X8071667Y-12263476D01*
X8052619Y-12253952D01*
X8043095Y-12234905D01*
X8043095Y-12158714D01*
X8052619Y-12139667D01*
X8071667Y-12130143D01*
X8109762Y-12130143D01*
X8128809Y-12139667D01*
X8138333Y-12158714D01*
X8138333Y-12177762D01*
X8043095Y-12196809D01*
X8214524Y-12253952D02*
X8233571Y-12263476D01*
X8271667Y-12263476D01*
X8290714Y-12253952D01*
X8300238Y-12234905D01*
X8300238Y-12225381D01*
X8290714Y-12206333D01*
X8271667Y-12196809D01*
X8243095Y-12196809D01*
X8224048Y-12187286D01*
X8214524Y-12168238D01*
X8214524Y-12158714D01*
X8224048Y-12139667D01*
X8243095Y-12130143D01*
X8271667Y-12130143D01*
X8290714Y-12139667D01*
X8366905Y-12339667D02*
X8376428Y-12330143D01*
X8395476Y-12301571D01*
X8405000Y-12282524D01*
X8414524Y-12253952D01*
X8424048Y-12206333D01*
X8424048Y-12168238D01*
X8414524Y-12120619D01*
X8405000Y-12092048D01*
X8395476Y-12073000D01*
X8376428Y-12044428D01*
X8366905Y-12034905D01*
M02*
