M48
; DRILL file {KiCad 6.0.9-8da3e8f707~116~ubuntu20.04.1} date sre 14 dec 2022 15:11:25
; FORMAT={-:-/ absolute / metric / decimal}
; #@! TF.CreationDate,2022-12-14T15:11:25+01:00
; #@! TF.GenerationSoftware,Kicad,Pcbnew,6.0.9-8da3e8f707~116~ubuntu20.04.1
; #@! TF.FileFunction,Plated,1,2,PTH
FMAT,2
METRIC
; #@! TA.AperFunction,Plated,PTH,ComponentDrill
T1C0.800
; #@! TA.AperFunction,Plated,PTH,ComponentDrill
T2C1.000
; #@! TA.AperFunction,Plated,PTH,ComponentDrill
T3C1.100
%
G90
G05
T1
X46.0Y-44.0
X46.0Y-46.0
X48.0Y-44.0
X48.0Y-46.0
X50.0Y-44.0
X50.0Y-46.0
X52.0Y-44.0
X52.0Y-46.0
X54.0Y-44.0
X54.0Y-46.0
X56.0Y-44.0
X56.0Y-46.0
X58.0Y-44.0
X58.0Y-46.0
X60.0Y-44.0
X60.0Y-46.0
X62.0Y-44.0
X62.0Y-46.0
X64.0Y-44.0
X64.0Y-46.0
X69.5Y-44.0
X69.5Y-46.0
X71.5Y-44.0
X71.5Y-46.0
X73.5Y-44.0
X73.5Y-46.0
X75.5Y-44.0
X75.5Y-46.0
X77.5Y-44.0
X77.5Y-46.0
X79.5Y-44.0
X79.5Y-46.0
X81.5Y-44.0
X81.5Y-46.0
X83.5Y-44.0
X83.5Y-46.0
X85.5Y-44.0
X85.5Y-46.0
X87.5Y-44.0
X87.5Y-46.0
X93.0Y-44.0
X93.0Y-46.0
X95.0Y-44.0
X95.0Y-46.0
X97.0Y-44.0
X97.0Y-46.0
X99.0Y-44.0
X99.0Y-46.0
X101.0Y-44.0
X101.0Y-46.0
X103.0Y-44.0
X103.0Y-46.0
X105.0Y-44.0
X105.0Y-46.0
X107.0Y-44.0
X107.0Y-46.0
X109.0Y-44.0
X109.0Y-46.0
X111.0Y-44.0
X111.0Y-46.0
T2
X45.72Y-55.88
X45.72Y-58.42
X45.72Y-63.5
X45.72Y-66.04
X45.72Y-71.12
X45.72Y-73.66
X45.72Y-96.52
X45.72Y-99.06
X48.26Y-55.88
X48.26Y-58.42
X48.26Y-63.5
X48.26Y-66.04
X48.26Y-71.12
X48.26Y-73.66
X48.26Y-96.52
X48.26Y-99.06
X50.8Y-55.88
X50.8Y-58.42
X50.8Y-63.5
X50.8Y-66.04
X50.8Y-71.12
X50.8Y-73.66
X50.8Y-86.36
X50.8Y-88.9
X50.8Y-96.52
X50.8Y-99.06
X53.34Y-55.88
X53.34Y-58.42
X53.34Y-63.5
X53.34Y-66.04
X53.34Y-71.12
X53.34Y-73.66
X53.34Y-78.74
X53.34Y-81.28
X53.34Y-86.36
X53.34Y-88.9
X53.34Y-96.52
X53.34Y-99.06
X55.88Y-55.88
X55.88Y-58.42
X55.88Y-63.5
X55.88Y-66.04
X55.88Y-71.12
X55.88Y-73.66
X55.88Y-78.74
X55.88Y-81.28
X55.88Y-86.36
X55.88Y-88.9
X55.88Y-96.52
X55.88Y-99.06
X58.42Y-55.88
X58.42Y-58.42
X58.42Y-63.5
X58.42Y-66.04
X58.42Y-71.12
X58.42Y-73.66
X58.42Y-78.74
X58.42Y-81.28
X58.42Y-86.36
X58.42Y-88.9
X58.42Y-96.52
X58.42Y-99.06
X60.96Y-55.88
X60.96Y-58.42
X60.96Y-63.5
X60.96Y-66.04
X60.96Y-71.12
X60.96Y-73.66
X60.96Y-78.74
X60.96Y-81.28
X60.96Y-86.36
X60.96Y-88.9
X60.96Y-96.52
X60.96Y-99.06
X63.5Y-55.88
X63.5Y-58.42
X63.5Y-63.5
X63.5Y-66.04
X63.5Y-71.12
X63.5Y-73.66
X63.5Y-78.74
X63.5Y-81.28
X63.5Y-86.36
X63.5Y-88.9
X63.5Y-96.52
X63.5Y-99.06
X66.04Y-55.88
X66.04Y-58.42
X66.04Y-63.5
X66.04Y-66.04
X66.04Y-71.12
X66.04Y-73.66
X66.04Y-78.74
X66.04Y-81.28
X66.04Y-86.36
X66.04Y-88.9
X66.04Y-96.52
X66.04Y-99.06
X68.58Y-55.88
X68.58Y-58.42
X68.58Y-63.5
X68.58Y-66.04
X68.58Y-71.12
X68.58Y-73.66
X68.58Y-78.74
X68.58Y-81.28
X68.58Y-86.36
X68.58Y-88.9
X71.12Y-55.88
X71.12Y-58.42
X71.12Y-63.5
X71.12Y-66.04
X71.12Y-71.12
X71.12Y-73.66
X71.12Y-78.74
X71.12Y-81.28
X71.12Y-86.36
X71.12Y-88.9
X73.66Y-55.88
X73.66Y-58.42
X73.66Y-63.5
X73.66Y-66.04
X73.66Y-71.12
X73.66Y-73.66
X73.66Y-78.74
X73.66Y-81.28
X73.66Y-86.36
X73.66Y-88.9
X76.2Y-55.88
X76.2Y-58.42
X76.2Y-63.5
X76.2Y-66.04
X76.2Y-71.12
X76.2Y-73.66
X76.2Y-78.74
X76.2Y-81.28
X76.2Y-86.36
X76.2Y-88.9
X76.2Y-96.52
X76.2Y-99.06
X78.74Y-55.88
X78.74Y-58.42
X78.74Y-63.5
X78.74Y-66.04
X78.74Y-71.12
X78.74Y-73.66
X78.74Y-78.74
X78.74Y-81.28
X78.74Y-86.36
X78.74Y-88.9
X78.74Y-96.52
X78.74Y-99.06
X81.28Y-55.88
X81.28Y-58.42
X81.28Y-63.5
X81.28Y-66.04
X81.28Y-71.12
X81.28Y-73.66
X81.28Y-78.74
X81.28Y-81.28
X81.28Y-86.36
X81.28Y-88.9
X81.28Y-96.52
X81.28Y-99.06
X83.82Y-55.88
X83.82Y-58.42
X83.82Y-63.5
X83.82Y-66.04
X83.82Y-71.12
X83.82Y-73.66
X83.82Y-78.74
X83.82Y-81.28
X83.82Y-86.36
X83.82Y-88.9
X83.82Y-96.52
X83.82Y-99.06
X86.36Y-55.88
X86.36Y-58.42
X86.36Y-63.5
X86.36Y-66.04
X86.36Y-78.74
X86.36Y-81.28
X86.36Y-86.36
X86.36Y-88.9
X86.36Y-96.52
X86.36Y-99.06
X88.9Y-55.88
X88.9Y-58.42
X88.9Y-63.5
X88.9Y-66.04
X88.9Y-78.74
X88.9Y-81.28
X88.9Y-86.36
X88.9Y-88.9
X88.9Y-96.52
X88.9Y-99.06
X91.44Y-55.88
X91.44Y-58.42
X91.44Y-63.5
X91.44Y-66.04
X91.44Y-78.74
X91.44Y-81.28
X91.44Y-86.36
X91.44Y-88.9
X93.98Y-55.88
X93.98Y-58.42
X93.98Y-63.5
X93.98Y-66.04
X93.98Y-78.74
X93.98Y-81.28
X93.98Y-86.36
X93.98Y-88.9
X99.06Y-96.52
X99.06Y-99.06
X101.6Y-96.52
X101.6Y-99.06
X104.14Y-96.52
X104.14Y-99.06
X106.68Y-96.52
X106.68Y-99.06
X109.22Y-96.52
X109.22Y-99.06
X111.76Y-96.52
X111.76Y-99.06
T3
X101.906Y-58.71
X101.906Y-63.21
X108.406Y-58.71
X108.406Y-63.21
X124.333Y-58.71
X124.333Y-63.21
X130.833Y-58.71
X130.833Y-63.21
T2
X122.016Y-77.395G85X122.016Y-75.395
G05
X126.016Y-71.695G85X124.016Y-71.695
G05
X128.016Y-77.395G85X128.016Y-75.395
G05
T0
M30
