%TF.GenerationSoftware,KiCad,Pcbnew,6.0.9-8da3e8f707~116~ubuntu20.04.1*%
%TF.CreationDate,2022-12-14T15:11:29+01:00*%
%TF.ProjectId,ebaz_adaptor,6562617a-5f61-4646-9170-746f722e6b69,rev?*%
%TF.SameCoordinates,Original*%
%TF.FileFunction,Drillmap*%
%TF.FilePolarity,Positive*%
%FSLAX45Y45*%
G04 Gerber Fmt 4.5, Leading zero omitted, Abs format (unit mm)*
G04 Created by KiCad (PCBNEW 6.0.9-8da3e8f707~116~ubuntu20.04.1) date 2022-12-14 15:11:29*
%MOMM*%
%LPD*%
G01*
G04 APERTURE LIST*
%ADD10C,0.100000*%
%ADD11C,0.200000*%
%ADD12C,0.250000*%
G04 APERTURE END LIST*
D10*
X13450000Y-11000000D02*
X3750000Y-11000000D01*
X13450000Y-11000000D02*
G75*
G03*
X13600000Y-10850000I0J150000D01*
G01*
X3750000Y-4200000D02*
X13450000Y-4200000D01*
X13600000Y-4350000D02*
X13600000Y-10850000D01*
X3600000Y-10850000D02*
G75*
G03*
X3750000Y-11000000I150000J0D01*
G01*
X3750000Y-4200000D02*
G75*
G03*
X3600000Y-4350000I0J-150000D01*
G01*
X13600000Y-4350000D02*
G75*
G03*
X13450000Y-4200000I-150000J0D01*
G01*
X3600000Y-10850000D02*
X3600000Y-4350000D01*
D11*
D12*
X3939000Y-4510500D02*
X4189000Y-4760500D01*
X4189000Y-4510500D02*
X3939000Y-4760500D01*
X3939000Y-10416000D02*
X4189000Y-10666000D01*
X4189000Y-10416000D02*
X3939000Y-10666000D01*
X6987000Y-10416000D02*
X7237000Y-10666000D01*
X7237000Y-10416000D02*
X6987000Y-10666000D01*
X13019500Y-4510500D02*
X13269500Y-4760500D01*
X13269500Y-4510500D02*
X13019500Y-4760500D01*
X13019500Y-10416000D02*
X13269500Y-10666000D01*
X13269500Y-10416000D02*
X13019500Y-10666000D01*
D11*
X3852619Y-11315476D02*
X3852619Y-11115476D01*
X3900238Y-11115476D01*
X3928809Y-11125000D01*
X3947857Y-11144048D01*
X3957381Y-11163095D01*
X3966905Y-11201190D01*
X3966905Y-11229762D01*
X3957381Y-11267857D01*
X3947857Y-11286905D01*
X3928809Y-11305952D01*
X3900238Y-11315476D01*
X3852619Y-11315476D01*
X4052619Y-11315476D02*
X4052619Y-11182143D01*
X4052619Y-11220238D02*
X4062143Y-11201190D01*
X4071667Y-11191667D01*
X4090714Y-11182143D01*
X4109762Y-11182143D01*
X4176428Y-11315476D02*
X4176428Y-11182143D01*
X4176428Y-11115476D02*
X4166905Y-11125000D01*
X4176428Y-11134524D01*
X4185952Y-11125000D01*
X4176428Y-11115476D01*
X4176428Y-11134524D01*
X4300238Y-11315476D02*
X4281190Y-11305952D01*
X4271667Y-11286905D01*
X4271667Y-11115476D01*
X4405000Y-11315476D02*
X4385952Y-11305952D01*
X4376429Y-11286905D01*
X4376429Y-11115476D01*
X4633571Y-11315476D02*
X4633571Y-11115476D01*
X4700238Y-11258333D01*
X4766905Y-11115476D01*
X4766905Y-11315476D01*
X4947857Y-11315476D02*
X4947857Y-11210714D01*
X4938333Y-11191667D01*
X4919286Y-11182143D01*
X4881190Y-11182143D01*
X4862143Y-11191667D01*
X4947857Y-11305952D02*
X4928810Y-11315476D01*
X4881190Y-11315476D01*
X4862143Y-11305952D01*
X4852619Y-11286905D01*
X4852619Y-11267857D01*
X4862143Y-11248809D01*
X4881190Y-11239286D01*
X4928810Y-11239286D01*
X4947857Y-11229762D01*
X5043095Y-11182143D02*
X5043095Y-11382143D01*
X5043095Y-11191667D02*
X5062143Y-11182143D01*
X5100238Y-11182143D01*
X5119286Y-11191667D01*
X5128810Y-11201190D01*
X5138333Y-11220238D01*
X5138333Y-11277381D01*
X5128810Y-11296428D01*
X5119286Y-11305952D01*
X5100238Y-11315476D01*
X5062143Y-11315476D01*
X5043095Y-11305952D01*
X5224048Y-11296428D02*
X5233571Y-11305952D01*
X5224048Y-11315476D01*
X5214524Y-11305952D01*
X5224048Y-11296428D01*
X5224048Y-11315476D01*
X5224048Y-11191667D02*
X5233571Y-11201190D01*
X5224048Y-11210714D01*
X5214524Y-11201190D01*
X5224048Y-11191667D01*
X5224048Y-11210714D01*
X3395000Y-11545000D02*
X3595000Y-11745000D01*
X3595000Y-11545000D02*
X3395000Y-11745000D01*
X3843095Y-11554524D02*
X3852619Y-11545000D01*
X3871667Y-11535476D01*
X3919286Y-11535476D01*
X3938333Y-11545000D01*
X3947857Y-11554524D01*
X3957381Y-11573571D01*
X3957381Y-11592619D01*
X3947857Y-11621190D01*
X3833571Y-11735476D01*
X3957381Y-11735476D01*
X4043095Y-11716428D02*
X4052619Y-11725952D01*
X4043095Y-11735476D01*
X4033571Y-11725952D01*
X4043095Y-11716428D01*
X4043095Y-11735476D01*
X4233571Y-11535476D02*
X4138333Y-11535476D01*
X4128809Y-11630714D01*
X4138333Y-11621190D01*
X4157381Y-11611667D01*
X4205000Y-11611667D01*
X4224048Y-11621190D01*
X4233571Y-11630714D01*
X4243095Y-11649762D01*
X4243095Y-11697381D01*
X4233571Y-11716428D01*
X4224048Y-11725952D01*
X4205000Y-11735476D01*
X4157381Y-11735476D01*
X4138333Y-11725952D01*
X4128809Y-11716428D01*
X4366905Y-11535476D02*
X4385952Y-11535476D01*
X4405000Y-11545000D01*
X4414524Y-11554524D01*
X4424048Y-11573571D01*
X4433571Y-11611667D01*
X4433571Y-11659286D01*
X4424048Y-11697381D01*
X4414524Y-11716428D01*
X4405000Y-11725952D01*
X4385952Y-11735476D01*
X4366905Y-11735476D01*
X4347857Y-11725952D01*
X4338333Y-11716428D01*
X4328810Y-11697381D01*
X4319286Y-11659286D01*
X4319286Y-11611667D01*
X4328810Y-11573571D01*
X4338333Y-11554524D01*
X4347857Y-11545000D01*
X4366905Y-11535476D01*
X4557381Y-11535476D02*
X4576429Y-11535476D01*
X4595476Y-11545000D01*
X4605000Y-11554524D01*
X4614524Y-11573571D01*
X4624048Y-11611667D01*
X4624048Y-11659286D01*
X4614524Y-11697381D01*
X4605000Y-11716428D01*
X4595476Y-11725952D01*
X4576429Y-11735476D01*
X4557381Y-11735476D01*
X4538333Y-11725952D01*
X4528810Y-11716428D01*
X4519286Y-11697381D01*
X4509762Y-11659286D01*
X4509762Y-11611667D01*
X4519286Y-11573571D01*
X4528810Y-11554524D01*
X4538333Y-11545000D01*
X4557381Y-11535476D01*
X4709762Y-11735476D02*
X4709762Y-11602143D01*
X4709762Y-11621190D02*
X4719286Y-11611667D01*
X4738333Y-11602143D01*
X4766905Y-11602143D01*
X4785952Y-11611667D01*
X4795476Y-11630714D01*
X4795476Y-11735476D01*
X4795476Y-11630714D02*
X4805000Y-11611667D01*
X4824048Y-11602143D01*
X4852619Y-11602143D01*
X4871667Y-11611667D01*
X4881190Y-11630714D01*
X4881190Y-11735476D01*
X4976429Y-11735476D02*
X4976429Y-11602143D01*
X4976429Y-11621190D02*
X4985952Y-11611667D01*
X5005000Y-11602143D01*
X5033571Y-11602143D01*
X5052619Y-11611667D01*
X5062143Y-11630714D01*
X5062143Y-11735476D01*
X5062143Y-11630714D02*
X5071667Y-11611667D01*
X5090714Y-11602143D01*
X5119286Y-11602143D01*
X5138333Y-11611667D01*
X5147857Y-11630714D01*
X5147857Y-11735476D01*
X5538333Y-11525952D02*
X5366905Y-11783095D01*
X5795476Y-11535476D02*
X5814524Y-11535476D01*
X5833571Y-11545000D01*
X5843095Y-11554524D01*
X5852619Y-11573571D01*
X5862143Y-11611667D01*
X5862143Y-11659286D01*
X5852619Y-11697381D01*
X5843095Y-11716428D01*
X5833571Y-11725952D01*
X5814524Y-11735476D01*
X5795476Y-11735476D01*
X5776428Y-11725952D01*
X5766905Y-11716428D01*
X5757381Y-11697381D01*
X5747857Y-11659286D01*
X5747857Y-11611667D01*
X5757381Y-11573571D01*
X5766905Y-11554524D01*
X5776428Y-11545000D01*
X5795476Y-11535476D01*
X5947857Y-11716428D02*
X5957381Y-11725952D01*
X5947857Y-11735476D01*
X5938333Y-11725952D01*
X5947857Y-11716428D01*
X5947857Y-11735476D01*
X6081190Y-11535476D02*
X6100238Y-11535476D01*
X6119286Y-11545000D01*
X6128809Y-11554524D01*
X6138333Y-11573571D01*
X6147857Y-11611667D01*
X6147857Y-11659286D01*
X6138333Y-11697381D01*
X6128809Y-11716428D01*
X6119286Y-11725952D01*
X6100238Y-11735476D01*
X6081190Y-11735476D01*
X6062143Y-11725952D01*
X6052619Y-11716428D01*
X6043095Y-11697381D01*
X6033571Y-11659286D01*
X6033571Y-11611667D01*
X6043095Y-11573571D01*
X6052619Y-11554524D01*
X6062143Y-11545000D01*
X6081190Y-11535476D01*
X6243095Y-11735476D02*
X6281190Y-11735476D01*
X6300238Y-11725952D01*
X6309762Y-11716428D01*
X6328809Y-11687857D01*
X6338333Y-11649762D01*
X6338333Y-11573571D01*
X6328809Y-11554524D01*
X6319286Y-11545000D01*
X6300238Y-11535476D01*
X6262143Y-11535476D01*
X6243095Y-11545000D01*
X6233571Y-11554524D01*
X6224048Y-11573571D01*
X6224048Y-11621190D01*
X6233571Y-11640238D01*
X6243095Y-11649762D01*
X6262143Y-11659286D01*
X6300238Y-11659286D01*
X6319286Y-11649762D01*
X6328809Y-11640238D01*
X6338333Y-11621190D01*
X6452619Y-11621190D02*
X6433571Y-11611667D01*
X6424048Y-11602143D01*
X6414524Y-11583095D01*
X6414524Y-11573571D01*
X6424048Y-11554524D01*
X6433571Y-11545000D01*
X6452619Y-11535476D01*
X6490714Y-11535476D01*
X6509762Y-11545000D01*
X6519286Y-11554524D01*
X6528809Y-11573571D01*
X6528809Y-11583095D01*
X6519286Y-11602143D01*
X6509762Y-11611667D01*
X6490714Y-11621190D01*
X6452619Y-11621190D01*
X6433571Y-11630714D01*
X6424048Y-11640238D01*
X6414524Y-11659286D01*
X6414524Y-11697381D01*
X6424048Y-11716428D01*
X6433571Y-11725952D01*
X6452619Y-11735476D01*
X6490714Y-11735476D01*
X6509762Y-11725952D01*
X6519286Y-11716428D01*
X6528809Y-11697381D01*
X6528809Y-11659286D01*
X6519286Y-11640238D01*
X6509762Y-11630714D01*
X6490714Y-11621190D01*
X6700238Y-11602143D02*
X6700238Y-11735476D01*
X6652619Y-11525952D02*
X6605000Y-11668809D01*
X6728809Y-11668809D01*
X6795476Y-11535476D02*
X6795476Y-11573571D01*
X6871667Y-11535476D02*
X6871667Y-11573571D01*
X7166905Y-11811667D02*
X7157381Y-11802143D01*
X7138333Y-11773571D01*
X7128809Y-11754524D01*
X7119286Y-11725952D01*
X7109762Y-11678333D01*
X7109762Y-11640238D01*
X7119286Y-11592619D01*
X7128809Y-11564048D01*
X7138333Y-11545000D01*
X7157381Y-11516428D01*
X7166905Y-11506905D01*
X7338333Y-11535476D02*
X7243095Y-11535476D01*
X7233571Y-11630714D01*
X7243095Y-11621190D01*
X7262143Y-11611667D01*
X7309762Y-11611667D01*
X7328809Y-11621190D01*
X7338333Y-11630714D01*
X7347857Y-11649762D01*
X7347857Y-11697381D01*
X7338333Y-11716428D01*
X7328809Y-11725952D01*
X7309762Y-11735476D01*
X7262143Y-11735476D01*
X7243095Y-11725952D01*
X7233571Y-11716428D01*
X7585952Y-11735476D02*
X7585952Y-11535476D01*
X7671667Y-11735476D02*
X7671667Y-11630714D01*
X7662143Y-11611667D01*
X7643095Y-11602143D01*
X7614524Y-11602143D01*
X7595476Y-11611667D01*
X7585952Y-11621190D01*
X7795476Y-11735476D02*
X7776428Y-11725952D01*
X7766905Y-11716428D01*
X7757381Y-11697381D01*
X7757381Y-11640238D01*
X7766905Y-11621190D01*
X7776428Y-11611667D01*
X7795476Y-11602143D01*
X7824048Y-11602143D01*
X7843095Y-11611667D01*
X7852619Y-11621190D01*
X7862143Y-11640238D01*
X7862143Y-11697381D01*
X7852619Y-11716428D01*
X7843095Y-11725952D01*
X7824048Y-11735476D01*
X7795476Y-11735476D01*
X7976428Y-11735476D02*
X7957381Y-11725952D01*
X7947857Y-11706905D01*
X7947857Y-11535476D01*
X8128809Y-11725952D02*
X8109762Y-11735476D01*
X8071667Y-11735476D01*
X8052619Y-11725952D01*
X8043095Y-11706905D01*
X8043095Y-11630714D01*
X8052619Y-11611667D01*
X8071667Y-11602143D01*
X8109762Y-11602143D01*
X8128809Y-11611667D01*
X8138333Y-11630714D01*
X8138333Y-11649762D01*
X8043095Y-11668809D01*
X8214524Y-11725952D02*
X8233571Y-11735476D01*
X8271667Y-11735476D01*
X8290714Y-11725952D01*
X8300238Y-11706905D01*
X8300238Y-11697381D01*
X8290714Y-11678333D01*
X8271667Y-11668809D01*
X8243095Y-11668809D01*
X8224048Y-11659286D01*
X8214524Y-11640238D01*
X8214524Y-11630714D01*
X8224048Y-11611667D01*
X8243095Y-11602143D01*
X8271667Y-11602143D01*
X8290714Y-11611667D01*
X8366905Y-11811667D02*
X8376428Y-11802143D01*
X8395476Y-11773571D01*
X8405000Y-11754524D01*
X8414524Y-11725952D01*
X8424048Y-11678333D01*
X8424048Y-11640238D01*
X8414524Y-11592619D01*
X8405000Y-11564048D01*
X8395476Y-11545000D01*
X8376428Y-11516428D01*
X8366905Y-11506905D01*
X8728810Y-11811667D02*
X8719286Y-11802143D01*
X8700238Y-11773571D01*
X8690714Y-11754524D01*
X8681190Y-11725952D01*
X8671667Y-11678333D01*
X8671667Y-11640238D01*
X8681190Y-11592619D01*
X8690714Y-11564048D01*
X8700238Y-11545000D01*
X8719286Y-11516428D01*
X8728810Y-11506905D01*
X8805000Y-11602143D02*
X8805000Y-11735476D01*
X8805000Y-11621190D02*
X8814524Y-11611667D01*
X8833571Y-11602143D01*
X8862143Y-11602143D01*
X8881190Y-11611667D01*
X8890714Y-11630714D01*
X8890714Y-11735476D01*
X9014524Y-11735476D02*
X8995476Y-11725952D01*
X8985952Y-11716428D01*
X8976429Y-11697381D01*
X8976429Y-11640238D01*
X8985952Y-11621190D01*
X8995476Y-11611667D01*
X9014524Y-11602143D01*
X9043095Y-11602143D01*
X9062143Y-11611667D01*
X9071667Y-11621190D01*
X9081190Y-11640238D01*
X9081190Y-11697381D01*
X9071667Y-11716428D01*
X9062143Y-11725952D01*
X9043095Y-11735476D01*
X9014524Y-11735476D01*
X9138333Y-11602143D02*
X9214524Y-11602143D01*
X9166905Y-11535476D02*
X9166905Y-11706905D01*
X9176429Y-11725952D01*
X9195476Y-11735476D01*
X9214524Y-11735476D01*
X9433571Y-11602143D02*
X9433571Y-11802143D01*
X9433571Y-11611667D02*
X9452619Y-11602143D01*
X9490714Y-11602143D01*
X9509762Y-11611667D01*
X9519286Y-11621190D01*
X9528810Y-11640238D01*
X9528810Y-11697381D01*
X9519286Y-11716428D01*
X9509762Y-11725952D01*
X9490714Y-11735476D01*
X9452619Y-11735476D01*
X9433571Y-11725952D01*
X9643095Y-11735476D02*
X9624048Y-11725952D01*
X9614524Y-11706905D01*
X9614524Y-11535476D01*
X9805000Y-11735476D02*
X9805000Y-11630714D01*
X9795476Y-11611667D01*
X9776429Y-11602143D01*
X9738333Y-11602143D01*
X9719286Y-11611667D01*
X9805000Y-11725952D02*
X9785952Y-11735476D01*
X9738333Y-11735476D01*
X9719286Y-11725952D01*
X9709762Y-11706905D01*
X9709762Y-11687857D01*
X9719286Y-11668809D01*
X9738333Y-11659286D01*
X9785952Y-11659286D01*
X9805000Y-11649762D01*
X9871667Y-11602143D02*
X9947857Y-11602143D01*
X9900238Y-11535476D02*
X9900238Y-11706905D01*
X9909762Y-11725952D01*
X9928810Y-11735476D01*
X9947857Y-11735476D01*
X10090714Y-11725952D02*
X10071667Y-11735476D01*
X10033571Y-11735476D01*
X10014524Y-11725952D01*
X10005000Y-11706905D01*
X10005000Y-11630714D01*
X10014524Y-11611667D01*
X10033571Y-11602143D01*
X10071667Y-11602143D01*
X10090714Y-11611667D01*
X10100238Y-11630714D01*
X10100238Y-11649762D01*
X10005000Y-11668809D01*
X10271667Y-11735476D02*
X10271667Y-11535476D01*
X10271667Y-11725952D02*
X10252619Y-11735476D01*
X10214524Y-11735476D01*
X10195476Y-11725952D01*
X10185952Y-11716428D01*
X10176429Y-11697381D01*
X10176429Y-11640238D01*
X10185952Y-11621190D01*
X10195476Y-11611667D01*
X10214524Y-11602143D01*
X10252619Y-11602143D01*
X10271667Y-11611667D01*
X10347857Y-11811667D02*
X10357381Y-11802143D01*
X10376429Y-11773571D01*
X10385952Y-11754524D01*
X10395476Y-11725952D01*
X10405000Y-11678333D01*
X10405000Y-11640238D01*
X10395476Y-11592619D01*
X10385952Y-11564048D01*
X10376429Y-11545000D01*
X10357381Y-11516428D01*
X10347857Y-11506905D01*
M02*
